SplineFontDB: 3.2
FontName: RallyDisplay-Regular
FullName: Rally Display Regular
FamilyName: Rally Display
Weight: Regular
Copyright: Copyright (c) 2023-2024, Zamero Type Foundry
UComments: "2023-12-31: Created with FontForge (http://fontforge.org)+AAoACgAK-Magical cartoon rabbit. :)"
Version: 001.000
ItalicAngle: 0
UnderlinePosition: -100
UnderlineWidth: 50
Ascent: 800
Descent: 200
InvalidEm: 0
LayerCount: 2
Layer: 0 0 "Back" 1
Layer: 1 0 "Fore" 0
XUID: [1021 474 1118879153 10182]
StyleMap: 0x0040
FSType: 0
OS2Version: 0
OS2_WeightWidthSlopeOnly: 0
OS2_UseTypoMetrics: 1
CreationTime: 1704051534
ModificationTime: 1728266112
PfmFamily: 81
TTFWeight: 400
TTFWidth: 5
LineGap: 90
VLineGap: 90
OS2TypoAscent: 0
OS2TypoAOffset: 1
OS2TypoDescent: 0
OS2TypoDOffset: 1
OS2TypoLinegap: 90
OS2WinAscent: 0
OS2WinAOffset: 1
OS2WinDescent: 0
OS2WinDOffset: 1
HheadAscent: 0
HheadAOffset: 1
HheadDescent: 0
HheadDOffset: 1
OS2Vendor: 'ZAM '
Lookup: 1 0 0 "'subs' Subscript lookup 0" { "'subs' Subscript lookup 0 subtable" ("inferior") } ['subs' ('DFLT' <'dflt' > ) ]
Lookup: 1 0 0 "'onum' Oldstyle Figures lookup 27" { "'onum' Oldstyle Figures lookup 27-1" ("osf") } ['onum' ('DFLT' <'dflt' > 'grek' <'dflt' > 'latn' <'AZE ' 'CAT ' 'CRT ' 'KAZ ' 'MOL ' 'NLD ' 'ROM ' 'TAT ' 'TRK ' 'dflt' > ) ]
Lookup: 1 0 0 "'ss16' Style Set 16 lookup 26" { "'ss16' Style Set 16 lookup 26-1" ("ss16") } ['ss16' ('DFLT' <'dflt' > 'grek' <'dflt' > 'latn' <'AZE ' 'CAT ' 'CRT ' 'KAZ ' 'MOL ' 'NLD ' 'ROM ' 'TAT ' 'TRK ' 'dflt' > ) ]
Lookup: 1 0 0 "'init' Initial Forms lookup 24" { "'init' Initial Forms lookup 24-1" ("init") } ['init' ('DFLT' <'dflt' > 'grek' <'dflt' > 'latn' <'AZE ' 'CAT ' 'CRT ' 'KAZ ' 'MOL ' 'NLD ' 'ROM ' 'TAT ' 'TRK ' 'dflt' > ) ]
Lookup: 1 0 0 "'fina' Terminal Forms lookup 25" { "'fina' Terminal Forms lookup 25-1" ("fina") } ['fina' ('DFLT' <'dflt' > 'grek' <'dflt' > 'latn' <'AZE ' 'CAT ' 'CRT ' 'KAZ ' 'MOL ' 'NLD ' 'ROM ' 'TAT ' 'TRK ' 'dflt' > ) ]

StartChar: dotlessi
Encoding: 239 305 1
Width: 310
Flags: W
HStem: 0 21G<123.83 240.159> 406.084 90.9268<13.6201 128.151>
VStem: 123.83 116.329<0 406.084>
AnchorPoint: "Anchor-3" 215 0 basechar 0
AnchorPoint: "Anchor-2" 180 0 basechar 0
AnchorPoint: "Anchor-0" 159 496.019 basechar 0
LayerCount: 2
Back
SplineSet
274.729492188 496.93359375 m 5
 280.159179688 0 l 5
 83.830078125 0 l 5
 90 496.93359375 l 5
 274.729492188 496.93359375 l 5
EndSplineSet
Fore
SplineSet
234.729492188 497.010742188 m 1
 240.159179688 0 l 1
 123.830078125 0 l 1
 128.151367188 406.083984375 l 5
 10 404.080078125 l 5
 13.6201171875 497.010742188 l 1
 234.729492188 497.010742188 l 1
EndSplineSet
EndChar

StartChar: period
Encoding: 14 46 2
Width: 270
Flags: W
HStem: -10 148<84.8537 195.146>
VStem: 66 148<8.85374 119.146>
LayerCount: 2
Fore
SplineSet
66 64 m 0
 66 109.222514205 94.7774857955 138 140 138 c 0
 185.222514205 138 214 109.222514205 214 64 c 0
 214 18.7774857955 185.222514205 -10 140 -10 c 0
 94.7774857955 -10 66 18.7774857955 66 64 c 0
EndSplineSet
EndChar

StartChar: o
Encoding: 79 111 3
Width: 565
Flags: W
HStem: -10.0664 101.925<206.049 358.109> 405.009 101.925<206.049 358.109>
VStem: 30 109.375<160.605 337.866> 424.625 110.375<160.605 337.866>
AnchorPoint: "Anchor-3" 315 0 basechar 0
AnchorPoint: "Anchor-2" 278 0 basechar 0
AnchorPoint: "Anchor-0" 277 496.019 basechar 0
LayerCount: 2
Fore
SplineSet
139.375 249.858398438 m 0
 139.375 153.302662417 194.849777354 91.8583984375 282.025390625 91.8583984375 c 4
 369.169966524 91.8583984375 424.625 153.302662417 424.625 249.858398438 c 0
 424.625 344.673074109 369.169966524 405.008789062 282.025390625 405.008789062 c 0
 194.849777354 405.008789062 139.375 344.673074109 139.375 249.858398438 c 0
30 249.93359375 m 0
 30 406.989257812 127.999893604 506.93359375 282 506.93359375 c 0
 436.611430324 506.93359375 535 406.989257812 535 249.93359375 c 0
 535 91.0439453125 436.611430324 -10.06640625 282 -10.06640625 c 0
 127.999893604 -10.06640625 30 91.0439453125 30 249.93359375 c 0
EndSplineSet
EndChar

StartChar: slash
Encoding: 15 47 4
Width: 497
Flags: W
LayerCount: 2
Back
SplineSet
1 -123.994140625 m 1
 198.637695312 379 l 1
 317 815.001953125 l 1
 506 763.001953125 l 1
 328.983398438 331 l 1
 190 -175.994140625 l 1
 1 -123.994140625 l 1
EndSplineSet
Fore
SplineSet
41 -133.994140625 m 1
 357 805.001953125 l 1
 456 773.001953125 l 5
 140 -165.994140625 l 5
 41 -133.994140625 l 1
EndSplineSet
Substitution2: "'frac' Diagonal Fractions in Latin lookup 25 subtable" fraction
EndChar

StartChar: d
Encoding: 68 100 5
Width: 672
Flags: W
HStem: -10.0664 100<209.367 366.154> 0 90.9268<556.849 658.38> 406.934 100<209.367 371.068> 735.002 20G<446.875 554.251>
VStem: 30 111<158.441 336.789> 438 118.849<150.988 344.712> 442.271 62.7295<117.013 412.434> 447 107.17<263.934 755.002>
AnchorPoint: "Anchor-2" 328 0 basechar 0
AnchorPoint: "Anchor-0" 483 755.01 basechar 0
LayerCount: 2
Back
SplineSet
387.270507812 755.001953125 m 5
 381.840820312 0 l 5
 578.169921875 0 l 5
 573.848632812 604.075195312 l 5
 672 602.071289062 l 5
 668.379882812 755.001953125 l 5
 387.270507812 755.001953125 l 5
EndSplineSet
Fore
SplineSet
438 246.93359375 m 0xbc
 438 344.71171875 380.444998205 406.93359375 290 406.93359375 c 0
 198.943525835 406.93359375 141 344.71171875 141 246.93359375 c 0
 141 150.988271183 198.943525835 89.93359375 290 89.93359375 c 4
 380.444998205 89.93359375 438 150.988271183 438 246.93359375 c 0xbc
505 263.93359375 m 0xba
 505 117.013180272 422.833855314 -10.06640625 268 -10.06640625 c 0
 122.554875959 -10.06640625 30 89.8779296875 30 246.93359375 c 0
 30 405.823242188 122.554875959 506.93359375 268 506.93359375 c 0
 412.833786481 506.93359375 505 412.434184942 505 263.93359375 c 0xba
442.270507812 0 m 1x7a
 447 755.001953125 l 1
 554.169921875 755.001953125 l 1x79
 556.848632812 90.9267578125 l 1x7c
 662 92.9306640625 l 1
 658.379882812 0 l 1
 442.270507812 0 l 1x7a
EndSplineSet
EndChar

StartChar: p
Encoding: 80 112 6
Width: 662
Flags: W
HStem: -10.0664 100<290.932 452.633> 406.084 90.9268<13.6201 108.151> 406.934 100<291.519 452.633>
VStem: 157 57.7295<96.0996 393.768> 521 111<160.078 338.427>
AnchorPoint: "Anchor-2" 181 -173.994 basechar 0
AnchorPoint: "Anchor-0" 339 496.019 basechar 0
LayerCount: 2
Fore
SplineSet
224 249.93359375 m 4xb8
 224 152.155148237 281.554551866 89.93359375 372 89.93359375 c 4
 463.056782058 89.93359375 521 152.155148237 521 249.93359375 c 4
 521 345.879040288 463.056782058 406.93359375 372 406.93359375 c 4
 281.554551866 406.93359375 224 345.879040288 224 249.93359375 c 4xb8
157 262.93359375 m 4
 157 393.767578125 239.166015625 506.93359375 394 506.93359375 c 4
 539.4453125 506.93359375 632 406.989257812 632 249.93359375 c 4
 632 91.0439453125 539.4453125 -10.06640625 394 -10.06640625 c 4
 249.166015625 -10.06640625 157 96.099609375 157 262.93359375 c 4
214.729492188 497.010742188 m 5xd8
 220.159179688 -174 l 5
 103.830078125 -174 l 5
 108.151367188 406.083984375 l 5
 10 404.080078125 l 5
 13.6201171875 497.010742188 l 5
 214.729492188 497.010742188 l 5xd8
EndSplineSet
EndChar

StartChar: t
Encoding: 84 116 7
Width: 426
Flags: W
HStem: 401 96<13 294.833> 480 20G<173 385.64>
VStem: 118.83 112.299<139.615 462.872>
AnchorPoint: "Anchor-2" 231 0 basechar 0
AnchorPoint: "Anchor-0" 186 648.019 basechar 0
LayerCount: 2
Fore
SplineSet
13 497 m 1xa0
 173 493 l 1
 386 500 l 1x60
 384 389 l 1
 170 401 l 1
 10 401 l 1
 13 497 l 1xa0
231.12890625 252 m 0
 231.12890625 148.332485033 248.603836596 109.502543044 350.159179688 91.9306640625 c 5
 326.5390625 -16 l 1
 156.251931215 33.078125 118.830078125 72 118.830078125 262 c 0
 118.830078125 362.482421875 133.151367188 650.046875 133.151367188 650.046875 c 1
 242.729492188 647 l 1
 242.729492188 647 231.12890625 384.754494863 231.12890625 252 c 0
EndSplineSet
EndChar

StartChar: l
Encoding: 76 108 8
Width: 387
Flags: W
HStem: 0 91.3975<259.129 373.539> 664.075 90.9268<33.6201 148.151>
VStem: 143.83 115.299<91.3975 664.075>
AnchorPoint: "Anchor-2" 230 0 basechar 0
AnchorPoint: "Anchor-0" 174 755.01 basechar 0
LayerCount: 2
Back
SplineSet
105.334960938 140.244140625 m 5
 109.862304688 751.69921875 l 5
 349.01953125 797.84375 l 5
 404.7265625 645.374023438 l 5
 295.80859375 623.6875 l 5
 300.63671875 14.7734375 l 5
 48.3994140625 -44.3125 l 5
 -7.3076171875 108.157226562 l 5
 105.334960938 140.244140625 l 5
EndSplineSet
Fore
SplineSet
259.12890625 91.3974609375 m 1
 377.159179688 92.9306640625 l 5
 373.5390625 0 l 5
 143.830078125 0 l 1
 148.151367188 664.075195312 l 1
 30 662.071289062 l 1
 33.6201171875 755.001953125 l 1
 254.729492188 755.001953125 l 1
 259.12890625 91.3974609375 l 1
EndSplineSet
EndChar

StartChar: e
Encoding: 69 101 9
Width: 541
Flags: W
HStem: -23.9004 94.8008<270.907 431.819> 198 86<127 403> 408.934 98<198.068 354.22>
VStem: 403 113.619<288 361.044>
AnchorPoint: "Anchor-3" 355 0 basechar 0
AnchorPoint: "Anchor-2" 288 0 basechar 0
AnchorPoint: "Anchor-0" 274 496.019 basechar 0
LayerCount: 2
Back
SplineSet
145 251.93359375 m 0
 145 118.399011671 234.924400059 91.0845098901 427.2890625 79.900390625 c 1
 411.819335938 -23.900390625 l 1
 195.319904327 -22.2919921875 30 49 30 259 c 0
 30 399.989257812 114.333684792 506.93359375 271 506.93359375 c 0
 466.952995619 506.93359375 517.619140625 377.117081999 517.619140625 261.659179688 c 0
 517.619140625 223.858398438 512 196 512 196 c 1
 130 193 l 1
 115 279 l 1
 404 283 l 1
 404 283 404.043226139 284.065301324 404.043226139 285.999999724 c 0
 404.043226139 306 397.916066056 408.93359375 277 408.93359375 c 0
 172.754005142 408.93359375 145 332.861387567 145 251.93359375 c 0
EndSplineSet
Fore
SplineSet
143 251.93359375 m 0
 143 115.369377683 227.932759261 81.1964484392 440.2890625 70.900390625 c 1
 431.819335938 -23.900390625 l 1
 193.979492188 -22.2919921875 30 49 30 259 c 0
 30 399.989257812 114.333684792 506.93359375 271 506.93359375 c 0
 466.158438493 506.93359375 516.619140625 379.763434498 516.619140625 266.659179688 c 0
 516.619140625 228.858398438 511 201 511 201 c 1
 127 198 l 1
 112 284 l 1
 403 288 l 1
 403 288 403 290.368087167 403 294 c 0
 403 342.873823405 371.499144955 408.93359375 278 408.93359375 c 0
 171.384777986 408.93359375 143 332.861387567 143 251.93359375 c 0
EndSplineSet
Substitution2: "'ss17' Style Set 17 lookup 29-1" e.ss17
Substitution2: "'ss15' Style Set 15 lookup 23-1" e.ss15
Substitution2: "'ss04' Style Set 4 lookup 12-1" e.ss04
EndChar

StartChar: s
Encoding: 83 115 10
Width: 388
Flags: W
HStem: 495.9 20G<280.303 283.426>
VStem: 40 112.432<324.716 393.143> 234.438 113.852<117.655 192.08>
AnchorPoint: "Anchor-2" 186 0 basechar 0
AnchorPoint: "Anchor-0" 189 496.019 basechar 0
LayerCount: 2
Fore
SplineSet
280.302734375 515.900390625 m 1
 294.232421875 426.700195312 l 1
 294.232421875 426.700195312 152.431640625 418.384483876 152.431640625 360 c 0
 152.431640625 336.639380714 168.649993362 320.761538978 232.298828125 295.861328125 c 0
 313.611138586 264.05094726 348.2890625 222.041769864 348.2890625 157 c 0
 348.2890625 -20.2066687279 73.0390625 -23.900390625 73.0390625 -23.900390625 c 1
 60.5693359375 76.900390625 l 1
 60.5693359375 76.900390625 234.4375 84.5944547358 234.4375 154 c 0
 234.4375 185.490800689 208.18189043 201.724807362 142.036132812 227.700195312 c 0
 64.1695133837 258.278356647 40 296.00064625 40 352 c 0
 40 511.732141847 280.302734375 515.900390625 280.302734375 515.900390625 c 1
EndSplineSet
EndChar

StartChar: b
Encoding: 66 98 11
Width: 662
Flags: W
HStem: -10.0664 100<295.846 452.633> 0 21G<103.83 220.159> 406.934 100<290.932 452.633> 664.075 90.9268<13.6201 108.151>
VStem: 108.151 106.578<263.934 664.075> 157 63.1592<117.013 412.435> 521 111<158.441 336.789>
AnchorPoint: "Anchor-2" 338 0 basechar 0
AnchorPoint: "Anchor-0" 154 755.01 basechar 0
LayerCount: 2
Fore
SplineSet
224 246.93359375 m 0xb2
 224 150.988147212 281.554551866 89.93359375 372 89.93359375 c 0
 463.056782058 89.93359375 521 150.988147212 521 246.93359375 c 0
 521 344.712039263 463.056782058 406.93359375 372 406.93359375 c 0
 281.554551866 406.93359375 224 344.712039263 224 246.93359375 c 0xb2
157 263.93359375 m 0xb6
 157 412.434570312 249.166015625 506.93359375 394 506.93359375 c 0
 539.4453125 506.93359375 632 405.823242188 632 246.93359375 c 0
 632 89.8779296875 539.4453125 -10.06640625 394 -10.06640625 c 4
 239.166015625 -10.06640625 157 117.012695312 157 263.93359375 c 0xb6
214.729492188 755.001953125 m 1x7a
 220.159179688 0 l 1x76
 103.830078125 0 l 1
 108.151367188 664.075195312 l 1
 10 662.071289062 l 1
 13.6201171875 755.001953125 l 1
 214.729492188 755.001953125 l 1x7a
EndSplineSet
EndChar

StartChar: grave
Encoding: 64 96 12
Width: 230
Flags: W
HStem: 526.72 213.784
VStem: 11 208.518
LayerCount: 2
Fore
SplineSet
76.6767578125 740.50390625 m 5
 219.517578125 572.465820312 l 1
 176.080078125 526.719726562 l 1
 11 674.18359375 l 5
 76.6767578125 740.50390625 l 5
EndSplineSet
EndChar

StartChar: q
Encoding: 81 113 13
Width: 682
Flags: W
HStem: -173.994 90.9268<556.849 658.38> -10.0664 100<209.367 366.154> 406.934 100<209.367 371.068> 476.934 20G<446.859 554.262>
VStem: 30 111<158.441 336.789> 447 107.17<263.934 496.934> 447 58<117.013 412.434>
AnchorPoint: "Anchor-2" 506 -173.994 basechar 0
AnchorPoint: "Anchor-0" 323 496.019 basechar 0
LayerCount: 2
Fore
SplineSet
438 246.93359375 m 0xe8
 438 344.71171875 380.444998205 406.93359375 290 406.93359375 c 4
 198.943525835 406.93359375 141 344.71171875 141 246.93359375 c 0
 141 150.988271183 198.943525835 89.93359375 290 89.93359375 c 0
 380.444998205 89.93359375 438 150.988271183 438 246.93359375 c 0xe8
505 263.93359375 m 0xea
 505 117.013180272 422.833855314 -10.06640625 268 -10.06640625 c 0
 122.554875959 -10.06640625 30 89.8779296875 30 246.93359375 c 0
 30 405.823242188 122.554875959 506.93359375 268 506.93359375 c 0
 412.833786481 506.93359375 505 412.434184942 505 263.93359375 c 0xea
442.270507812 -173.994140625 m 1
 447 496.93359375 l 1
 554.169921875 496.93359375 l 1xdc
 556.848632812 -83.0673828125 l 1
 662 -81.0634765625 l 1
 658.379882812 -173.994140625 l 1
 442.270507812 -173.994140625 l 1
EndSplineSet
EndChar

StartChar: a
Encoding: 65 97 14
Width: 672
Flags: W
HStem: -10.0664 100<209.367 366.154> 0 90.9268<556.849 658.38> 406.934 100<209.367 371.068> 477.002 20G<446.81 554.302>
VStem: 30 111<158.441 336.789> 438 118.849<150.988 344.712> 447 107.17<263.934 497.002> 447 58<117.013 412.434>
AnchorPoint: "Anchor-3" 475 0 basechar 0
AnchorPoint: "Anchor-2" 328 0 basechar 0
AnchorPoint: "Anchor-0" 323 496.019 basechar 0
LayerCount: 2
Back
SplineSet
434 246.93359375 m 0xac
 434 342.267265625 377.222768499 402.93359375 288 402.93359375 c 0
 200.610229493 402.93359375 145 342.267265625 145 246.93359375 c 0
 145 153.432738 200.610229493 93.93359375 288 93.93359375 c 0
 377.222768499 93.93359375 434 153.432738 434 246.93359375 c 0xac
505 263.93359375 m 0xa9
 505 117.013180272 422.833855314 -10.06640625 268 -10.06640625 c 0
 122.554875959 -10.06640625 30 89.8779296875 30 246.93359375 c 0
 30 405.823242188 122.554875959 506.93359375 268 506.93359375 c 0
 412.833786481 506.93359375 505 412.434184942 505 263.93359375 c 0xa9
442.270507812 0 m 1x5c
 447 497.001953125 l 1
 554.169921875 497.001953125 l 1x5a
 556.848632812 90.9267578125 l 1
 662 92.9306640625 l 1
 658.379882812 0 l 1
 442.270507812 0 l 1x5c
EndSplineSet
Fore
SplineSet
438 246.93359375 m 0xac
 438 344.71171875 380.444998205 406.93359375 290 406.93359375 c 0
 198.943525835 406.93359375 141 344.71171875 141 246.93359375 c 0
 141 150.988271183 198.943525835 89.93359375 290 89.93359375 c 4
 380.444998205 89.93359375 438 150.988271183 438 246.93359375 c 0xac
505 263.93359375 m 0xa9
 505 117.013180272 422.833855314 -10.06640625 268 -10.06640625 c 0
 122.554875959 -10.06640625 30 89.8779296875 30 246.93359375 c 0
 30 405.823242188 122.554875959 506.93359375 268 506.93359375 c 0
 412.833786481 506.93359375 505 412.434184942 505 263.93359375 c 0xa9
442.270507812 0 m 1x5c
 447 497.001953125 l 1
 554.169921875 497.001953125 l 1x5a
 556.848632812 90.9267578125 l 1
 662 92.9306640625 l 1
 658.379882812 0 l 1
 442.270507812 0 l 1x5c
EndSplineSet
Substitution2: "'ss03' Style Set 3 lookup 11-1" a.ss03
EndChar

StartChar: h
Encoding: 72 104 15
Width: 643
Flags: W
HStem: 0 21G<133.83 250.159> 407.934 99<303.942 443.849> 664.075 90.9268<13.6201 138.151>
VStem: 133.83 116.329<0 664.075> 486 112<1.14906 361.697>
AnchorPoint: "Anchor-2" 350 0 basechar 0
AnchorPoint: "Anchor-0" 164 755.01 basechar 0
LayerCount: 2
Fore
SplineSet
178 253.93359375 m 1
 199.064453125 411.989257812 265.5 506.93359375 403 506.93359375 c 0
 531.481445312 506.93359375 598 429.158203125 598 278.93359375 c 0
 598 134.376953125 580.159179688 -15 580.159179688 -15 c 1
 465.830078125 0 l 1
 465.830078125 0 486 138.278320312 486 251.93359375 c 0
 486 350.953125 457.584960938 407.93359375 377 407.93359375 c 0
 293.782226562 407.93359375 249.305664062 354.221679688 236 216.93359375 c 1
 178 253.93359375 l 1
244.729492188 755.001953125 m 5
 250.159179688 0 l 5
 133.830078125 0 l 5
 138.151367188 664.075195312 l 5
 10 662.071289062 l 5
 13.6201171875 755.001953125 l 5
 244.729492188 755.001953125 l 5
EndSplineSet
EndChar

StartChar: n
Encoding: 78 110 16
Width: 633
Flags: W
HStem: 0 21G<123.83 240.159> 406.075 90.9268<13.6201 128.151> 407.934 99<293.942 433.849>
VStem: 123.83 116.329<0 253.934> 476 112<1.14906 361.697>
AnchorPoint: "Anchor-2" 340 0 basechar 0
AnchorPoint: "Anchor-0" 323 496.019 basechar 0
AnchorPoint: "Anchor-0" 323 496.019 basechar 0
LayerCount: 2
Fore
SplineSet
168 253.93359375 m 1xb8
 189.064453125 411.989257812 255.5 506.93359375 393 506.93359375 c 0
 521.481445312 506.93359375 588 429.158203125 588 278.93359375 c 0
 588 134.376953125 570.159179688 -15 570.159179688 -15 c 1
 455.830078125 0 l 1
 455.830078125 0 476 138.278320312 476 251.93359375 c 0
 476 350.953125 447.584960938 407.93359375 367 407.93359375 c 0
 283.782226562 407.93359375 239.305664062 354.221679688 226 216.93359375 c 1
 168 253.93359375 l 1xb8
234.729492188 497.001953125 m 5xd8
 240.159179688 0 l 5
 123.830078125 0 l 5
 128.151367188 406.075195312 l 5
 10 404.071289062 l 5
 13.6201171875 497.001953125 l 5
 234.729492188 497.001953125 l 5xd8
EndSplineSet
EndChar

StartChar: I
Encoding: 41 73 17
Width: 468
Flags: W
HStem: 0 104<33.958 163.084 297.21 435.287> 618.08 112.931<38.748 166.279 294.135 425.857>
VStem: 163.084 134.126<104 619>
AnchorPoint: "Anchor-3" 305 0 basechar 0
AnchorPoint: "Anchor-2" 228 0 basechar 0
AnchorPoint: "Anchor-2" 228 0 basechar 0
AnchorPoint: "Anchor-0" 233 731.008 basechar 0
LayerCount: 2
Back
SplineSet
339.857421875 731.010742188 m 5
 345.287109375 0 l 5
 128.958007812 0 l 5
 133.279296875 560.083984375 l 5
 15.1279296875 558.080078125 l 5
 18.748046875 731.010742188 l 5
 339.857421875 731.010742188 l 5
EndSplineSet
Fore
SplineSet
425.857421875 731.010742188 m 1
 432.127929688 616 l 1
 294.134765625 619 l 1
 297.209960938 104 l 5
 438.26953125 108 l 5
 435.287109375 0 l 1
 33.9580078125 0 l 1
 30 106 l 5
 163.083984375 104 l 5
 166.279296875 620.083984375 l 1
 35.1279296875 618.080078125 l 1
 38.748046875 731.010742188 l 1
 425.857421875 731.010742188 l 1
EndSplineSet
EndChar

StartChar: c
Encoding: 67 99 18
Width: 471
Flags: W
HStem: -10.0664 103<211.346 408.855> 405.934 101<213.062 385.135>
VStem: 30 113<160.925 338.144>
AnchorPoint: "Anchor-0" 297 496.019 basechar 0
AnchorPoint: "Anchor-2" 288 0 basechar 0
LayerCount: 2
Back
SplineSet
20 249.93359375 m 0
 20 406.989257812 127.722105271 506.93359375 297 506.93359375 c 0
 415.535915516 506.93359375 465.916992188 450.782226562 465.916992188 450.782226562 c 1
 409.647460938 308.369140625 l 1
 409.647460938 308.369140625 373.776884975 346.93359375 318 346.93359375 c 4
 252.610710758 346.93359375 211 309.211914062 211 249.93359375 c 0
 211 180.822265625 247.426625003 154.52486356 323.040039062 139.244140625 c 0
 407.435563152 122.917258333 455.553710938 87 455.553710938 1.279296875 c 0
 455.553710938 -81.1748046875 404 -147 404 -147 c 1
 280 -97 l 1
 280 -97 295.76171875 -74 295.76171875 -54 c 0
 295.76171875 -29.5654296875 282.579369985 -17.3599949932 223.834960938 -5.6943359375 c 0
 112.853515625 16.3447265625 20 91.0439453125 20 249.93359375 c 0
EndSplineSet
Fore
SplineSet
30 249.93359375 m 0
 30 406.989257812 131.888778271 506.93359375 292 506.93359375 c 0
 400.009806154 506.93359375 445.916992188 460.782226562 445.916992188 460.782226562 c 1
 409.647460938 369.369140625 l 1
 409.647460938 369.369140625 363.991950511 405.93359375 293 405.93359375 c 0
 201.332772091 405.93359375 143 345.267799613 143 249.93359375 c 0
 143 153.988808594 196.456152343 92.93359375 301 92.93359375 c 4
 388.718458439 92.93359375 433.1484375 128.364257812 433.1484375 128.364257812 c 5
 455.146484375 29.31640625 l 1
 455.146484375 29.31640625 414.159810979 -10.06640625 287 -10.06640625 c 0
 129.944335938 -10.06640625 30 91.0439453125 30 249.93359375 c 0
EndSplineSet
EndChar

StartChar: equal
Encoding: 29 61 19
Width: 450
Flags: W
HStem: 197 97<151.2 399> 207 90<46 292.8> 373 90<48 403>
LayerCount: 2
Fore
SplineSet
46 297 m 5x60
 400 294 l 5
 399 197 l 5xa0
 45 207 l 5
 46 297 l 5x60
48 463 m 5
 404 468 l 5
 403 367 l 5
 47 373 l 5
 48 463 l 5
EndSplineSet
EndChar

StartChar: k
Encoding: 75 107 20
Width: 608
Flags: W
HStem: 0 21G<133.83 250.159> 494 20G<459.76 502.739> 664.075 90.9268<13.6201 138.151>
VStem: 133.83 116.329<0 664.075>
AnchorPoint: "Anchor-2" 358 0 basechar 0
AnchorPoint: "Anchor-0" 164 755.01 basechar 0
LayerCount: 2
Fore
SplineSet
481 514 m 29
 556 445 l 29
 346 255 l 29
 578 67 l 29
 501 -17 l 29
 207 256 l 29
 481 514 l 29
244.729492188 755.001953125 m 1
 250.159179688 0 l 1
 133.830078125 0 l 1
 138.151367188 664.075195312 l 1
 10 662.071289062 l 1
 13.6201171875 755.001953125 l 1
 244.729492188 755.001953125 l 1
EndSplineSet
Substitution2: "'ss06' Style Set 6 lookup 14-1" k.ss06
EndChar

StartChar: m
Encoding: 77 109 21
Width: 938
Flags: W
HStem: 0 21G<123.83 240.159> 406.075 90.9268<13.6201 128.151> 407.934 99<297.136 425.95 622.791 749.074>
VStem: 123.83 116.329<0 253.934> 456 112<24.2647 402.477> 781 112<18.0497 371.741>
AnchorPoint: "Anchor-2" 490 0 basechar 0
AnchorPoint: "Anchor-0" 529 496.019 basechar 0
LayerCount: 2
Fore
SplineSet
493 253.93359375 m 5xbc
 512.344726562 411.989257812 591.724609375 506.93359375 718 506.93359375 c 0
 833.303710938 506.93359375 893 439.391601562 893 308.93359375 c 0
 893 149.623046875 875.159179688 -15 875.159179688 -15 c 1
 760.830078125 0 l 1
 760.830078125 0 781 154.744140625 781 281.93359375 c 0
 781 361.91015625 755.19140625 407.93359375 682 407.93359375 c 0
 619.995117188 407.93359375 568.364257812 354.221679688 551 216.93359375 c 5
 493 253.93359375 l 5xbc
168 253.93359375 m 1
 186.485351562 411.989257812 262.336914062 506.93359375 383 506.93359375 c 0
 504.892578125 506.93359375 568 439.391601562 568 308.93359375 c 4
 568 154.541015625 555.159179688 -5 555.159179688 -5 c 5
 445.830078125 0 l 5
 445.830078125 0 456 160.232421875 456 291.93359375 c 4
 456 365.5625 430.19140625 407.93359375 357 407.93359375 c 0
 294.995117188 407.93359375 243.364257812 354.221679688 226 216.93359375 c 1
 168 253.93359375 l 1
234.729492188 497.001953125 m 1xdc
 240.159179688 0 l 1
 123.830078125 0 l 1
 128.151367188 406.075195312 l 1
 10 404.071289062 l 1
 13.6201171875 497.001953125 l 1
 234.729492188 497.001953125 l 1xdc
EndSplineSet
EndChar

StartChar: hyphen
Encoding: 13 45 23
Width: 380
Flags: W
HStem: 205 112<70.5 347> 213 103<33 307.5>
VStem: 33 316
LayerCount: 2
Fore
SplineSet
33 316 m 1x60
 349 317 l 5
 347 205 l 5xa0
 31 213 l 1
 33 316 l 1x60
EndSplineSet
EndChar

StartChar: three
Encoding: 19 51 24
Width: 581
Flags: W
HStem: -10.0664 108<107.492 356.743> 327.992 93.0078<314 367.957> 620.008 111<50 350.848>
VStem: 416.917 123<151.833 281.602>
LayerCount: 2
Fore
SplineSet
314 421 m 1
 418.229534596 421 539.916992188 365.404353899 539.916992188 217.9921875 c 0
 539.916992188 68.5786468443 433.750426621 -10.06640625 266.916992188 -10.06640625 c 0
 99.2594696565 -10.06640625 28 34.0849609375 28 34.0849609375 c 1
 60 138 l 1
 60 138 137.695180045 97.93359375 245.916992188 97.93359375 c 0
 366.411678538 97.93359375 416.916992188 143.611587801 416.916992188 220.9921875 c 0
 416.916992188 284.369110577 367.86561472 327.9921875 270.916992188 327.9921875 c 0
 195.416462406 327.9921875 155.2578125 308.43359375 155.2578125 308.43359375 c 1
 129 372 l 1
 350.84765625 620.0078125 l 1
 43 618.0078125 l 1
 50 731.0078125 l 1
 509.016601562 731.0078125 l 1
 519.016601562 655.0078125 l 1
 314 421 l 1
EndSplineSet
Substitution2: "'onum' Oldstyle Figures lookup 27-1" three.osf
Substitution2: "'ss01' Style Set 1 lookup 9-1" three.ss01
Substitution2: "'frac' Diagonal Fractions in Latin lookup 26 subtable" three.numr
Substitution2: "'dnom' Denominators lookup 0 subtable" three.dnom
Substitution2: "'numr' Numerators lookup 0 subtable" three.numr
Substitution2: "'sinf' Scientific Inferiors lookup 0 subtable" three.inferior
Substitution2: "'sups' Superscript lookup 0 subtable" three.superior
EndChar

StartChar: eight
Encoding: 24 56 25
Width: 608
Flags: W
HStem: -10.0078 111.739<209.151 397.575> 633.656 105.336<225.145 389.105>
VStem: 40 118.311<147.579 271.81> 66.6787 119.121<484.636 597.125> 431.223 108.935<476.306 594.698> 443.693 125.235<145.861 259.252>
LayerCount: 2
Fore
SplineSet
299.500976562 101.731445312 m 0xe4
 388.916939027 101.731445312 443.693359375 139.47502659 443.693359375 201.086914062 c 0xe4
 443.693359375 258.555348121 400.937791195 295.623847981 273.751953125 334.103515625 c 0
 134.560825173 376.215345243 66.6787109375 438.904916789 66.6787109375 536 c 0
 66.6787109375 660.085723141 160.698437168 738.9921875 308.55078125 738.9921875 c 0
 450.482120523 738.9921875 540.157226562 669.31262037 540.157226562 543.611328125 c 0
 540.157226562 388.974365557 344.053710938 332 344.053710938 332 c 1
 295.579101562 386.384765625 l 1
 295.579101562 386.384765625 431.22265625 448.92658161 431.22265625 532.682617188 c 0
 431.22265625 595.473962723 384.638061481 633.65625 308.02734375 633.65625 c 0
 232.64640538 633.65625 185.799804688 597.570354222 185.799804688 539.504882812 c 0xd8
 185.799804688 486.260076462 220.514651834 461.16809985 333.245117188 426.96484375 c 0
 505.629365475 374.662189154 568.928710938 320.54696051 568.928710938 206.379882812 c 0
 568.928710938 71.4940272002 469.752770573 -10.0078125 305.616210938 -10.0078125 c 0
 146.094374179 -10.0078125 40 72.9892081909 40 197.782226562 c 0
 40 357.63757676 228.459960938 409.984375 228.459960938 409.984375 c 5
 282.620117188 348.284179688 l 1
 282.620117188 348.284179688 158.310546875 303.259099285 158.310546875 206.194335938 c 0
 158.310546875 142.93631268 214.002409257 101.731445312 299.500976562 101.731445312 c 0xe4
EndSplineSet
Substitution2: "'onum' Oldstyle Figures lookup 27-1" eight.osf
Substitution2: "'frac' Diagonal Fractions in Latin lookup 26 subtable" eight.numr
Substitution2: "'dnom' Denominators lookup 0 subtable" eight.dnom
Substitution2: "'numr' Numerators lookup 0 subtable" eight.numr
Substitution2: "'sinf' Scientific Inferiors lookup 0 subtable" eight.inferior
Substitution2: "'sups' Superscript lookup 0 subtable" eight.superior
EndChar

StartChar: g
Encoding: 71 103 26
Width: 603
Flags: W
HStem: -196.994 94.9307<163.891 298.451> 19.9336 93<203.957 363.474> 409.934 97<203.957 362.439> 477.934 20G<433.101 541.271>
VStem: 30 111<178.929 346.475> 438.422 109.578<-5.63191 496.264>
AnchorPoint: "Anchor-2" 310 -190 basechar 0
AnchorPoint: "Anchor-0" 307 496.019 basechar 0
LayerCount: 2
Back
SplineSet
382.270507812 -173.994140625 m 5
 387 496.93359375 l 5
 574.169921875 496.93359375 l 5xf8
 576.848632812 -23.0673828125 l 5
 672 -21.0634765625 l 5
 668.379882812 -173.994140625 l 5
 382.270507812 -173.994140625 l 5
EndSplineSet
Fore
SplineSet
424 262.93359375 m 0xec
 424 352.767246095 370.333849677 409.93359375 286 409.93359375 c 0
 197.38799494 409.93359375 141 353.545019532 141 264.93359375 c 0
 141 172.043854704 197.38799494 112.93359375 286 112.93359375 c 0
 370.333849677 112.93359375 424 171.266088112 424 262.93359375 c 0xec
491 272.93359375 m 0
 491 137.273503932 431.914010875 19.93359375 260 19.93359375 c 0
 119.443787692 19.93359375 30 114.044602687 30 261.93359375 c 0
 30 411.6565317 119.443787692 506.93359375 260 506.93359375 c 0
 401.167108342 506.93359375 491 415.934163046 491 272.93359375 c 0
548 83 m 0
 548 -58 505.969613367 -180.994140625 163.890625 -196.994140625 c 1
 150.270507812 -102.063476562 l 1
 378.277129937 -86.6026924993 438.421875 -36.5353144745 438.421875 96.9326171875 c 0
 438.421875 281 433.100585938 494.93359375 433.100585938 494.93359375 c 1
 541.270507812 497.93359375 l 1xdc
 541.270507812 497.93359375 548 247 548 83 c 0
EndSplineSet
Substitution2: "'ss05' Style Set 5 lookup 13-1" g.ss05
EndChar

StartChar: u
Encoding: 85 117 27
Width: 633
Flags: W
HStem: -9.93164 99<198.535 332.644> 0 90.9268<507.849 619.38> 477.002 20G<65.8408 177.17 397.81 505.302>
VStem: 45 112<136.781 501.152> 398 107.17<213.068 497.002>
AnchorPoint: "Anchor-3" 465 0 basechar 0
AnchorPoint: "Anchor-2" 325 0 basechar 0
AnchorPoint: "Anchor-0" 298 496.019 basechar 0
LayerCount: 2
Fore
SplineSet
393.270507812 0 m 1x78
 398 497.001953125 l 1
 505.169921875 497.001953125 l 1
 507.848632812 90.9267578125 l 1
 623 92.9306640625 l 1
 619.379882812 0 l 1
 393.270507812 0 l 1x78
465 213.068359375 m 1
 446.798319328 122 392.885569853 -9.931640625 237 -9.931640625 c 0
 114.9296875 -9.931640625 45 67.8438216743 45 236 c 0
 45 361.149565843 65.8408203125 509.001953125 65.8408203125 509.001953125 c 1
 177.169921875 500.001953125 l 1
 177.169921875 500.001953125 157 360.077417776 157 245.068359375 c 0
 157 146.048464754 185.414727696 89.068359375 266 89.068359375 c 0xb8
 352.012663117 89.068359375 396.153846153 141.563350866 407 250.068359375 c 1
 465 213.068359375 l 1
EndSplineSet
EndChar

StartChar: exclam
Encoding: 1 33 28
Width: 256
Flags: W
HStem: -10 148<72.8537 183.146> 711 20G<61 195>
VStem: 54 148<8.85374 119.146> 61 134<538.684 731>
LayerCount: 2
Fore
SplineSet
61 731 m 1xd0
 195 731 l 1
 176 209 l 1
 176 209 162.136986301 214.634765625 130 214.634765625 c 0
 96.6538461538 214.634765625 79 207 79 207 c 1
 61 731 l 1xd0
54 64 m 0xe0
 54 109.222514205 82.7774857955 138 128 138 c 4
 173.222514205 138 202 109.222514205 202 64 c 0
 202 18.7774857955 173.222514205 -10 128 -10 c 0
 82.7774857955 -10 54 18.7774857955 54 64 c 0xe0
EndSplineSet
Substitution2: "'ss16' Style Set 16 lookup 26-1" exclam.ss16
EndChar

StartChar: r
Encoding: 82 114 29
Width: 478
Flags: W
HStem: 0 21G<123.83 240.159> 406.075 90.9268<13.6201 128.151> 496.934 20G<376.542 418.171>
VStem: 123.83 116.329<0 304.607 381.447 406.075>
AnchorPoint: "Anchor-2" 288 0 basechar 0
AnchorPoint: "Anchor-0" 249 496.019 basechar 0
LayerCount: 2
Fore
SplineSet
407 516.93359375 m 5xb0
 460.068359375 421.926757812 l 5
 223.962890625 304.607421875 l 5
 200.669921875 381.447265625 l 5
 407 516.93359375 l 5xb0
234.729492188 497.001953125 m 5xd0
 240.159179688 0 l 5
 123.830078125 0 l 5
 128.151367188 406.075195312 l 5
 10 404.071289062 l 1
 13.6201171875 497.001953125 l 1
 234.729492188 497.001953125 l 5xd0
EndSplineSet
Substitution2: "'ss07' Style Set 7 lookup 15-1" r.ss07
EndChar

StartChar: f
Encoding: 70 102 30
Width: 433
Flags: W
HStem: 0 21G<133.335 248.637> 401 96<30 245.857> 480 20G<190 394.623> 696.374 101.47<296.766 343.31>
VStem: 114.869 113.533<391.252 637.735> 135.994 108.644<0 399.965 406 563.944>
AnchorPoint: "Anchor-2" 208 0 basechar 0
AnchorPoint: "Anchor-0" 254 765.01 basechar 0
LayerCount: 2
Fore
SplineSet
30 497 m 5xd0
 190 493 l 5
 395 500 l 5xb0
 393 394 l 5
 187 406 l 5
 27 401 l 5
 30 497 l 5xd0
135.984375 412.096679688 m 6
 135.990869549 413.10685859 135.994140625 414.107770821 135.994140625 415.099609375 c 4x94
 135.994140625 495.588735002 114.869140625 516.320449633 114.869140625 580 c 4
 114.869140625 711.412976765 197.189297229 767.86158329 342.01953125 797.84375 c 5
 360.7265625 696.374023438 l 5
 264.448095983 674.387342781 228.40234375 636.752655962 228.40234375 566 c 4x98
 228.40234375 522.090982389 243.822809427 481.466168012 244.637695312 399.96484375 c 6x94
 248.63671875 0 l 5
 133.334960938 0 l 5
 135.984375 412.096679688 l 6
EndSplineSet
EndChar

StartChar: one
Encoding: 17 49 32
Width: 361
Flags: W
HStem: 0 21G<178.958 305.287> 626.084 104.927<34.748 183.279>
VStem: 178.958 126.329<0 626.084>
LayerCount: 2
Fore
SplineSet
299.857421875 731.010742188 m 1
 305.287109375 0 l 1
 178.958007812 0 l 5
 183.279296875 626.083984375 l 5
 31.1279296875 624.080078125 l 1
 34.748046875 731.010742188 l 1
 299.857421875 731.010742188 l 1
EndSplineSet
Substitution2: "'onum' Oldstyle Figures lookup 27-1" one.osf
Substitution2: "'frac' Diagonal Fractions in Latin lookup 26 subtable" one.numr
Substitution2: "'dnom' Denominators lookup 0 subtable" one.dnom
Substitution2: "'numr' Numerators lookup 0 subtable" one.numr
Substitution2: "'sinf' Scientific Inferiors lookup 0 subtable" one.inferior
Substitution2: "'sups' Superscript lookup 0 subtable" one.superior
EndChar

StartChar: zero
Encoding: 16 48 33
Width: 675
Flags: W
HStem: -10.0664 117.351<254.803 419.38> 621.583 117.351<254.803 419.38>
VStem: 30 120.487<233.977 491.891> 524.513 120.487<233.977 491.891>
LayerCount: 2
Fore
SplineSet
150.487304688 361.704101562 m 0
 150.487304688 206.224969823 222.901800568 107.284179688 336.697265625 107.284179688 c 4
 451.47384909 107.284179688 524.512695312 206.224969823 524.512695312 361.704101562 c 0
 524.512695312 520.519906737 451.47384909 621.583007812 336.697265625 621.583007812 c 0
 222.901800568 621.583007812 150.487304688 520.519906737 150.487304688 361.704101562 c 0
30 361.93359375 m 0
 30 592.322641811 149.388759271 738.93359375 337 738.93359375 c 0
 525.222610829 738.93359375 645 592.322641811 645 361.93359375 c 0
 645 134.599173678 525.222610829 -10.06640625 337 -10.06640625 c 0
 149.388759271 -10.06640625 30 134.599173678 30 361.93359375 c 0
EndSplineSet
Substitution2: "'onum' Oldstyle Figures lookup 27-1" zero.osf
Substitution2: "'frac' Diagonal Fractions in Latin lookup 26 subtable" zero.numr
Substitution2: "'dnom' Denominators lookup 0 subtable" zero.dnom
Substitution2: "'numr' Numerators lookup 0 subtable" zero.numr
Substitution2: "'sinf' Scientific Inferiors lookup 0 subtable" zero.inferior
Substitution2: "'sups' Superscript lookup 0 subtable" zero.superior
EndChar

StartChar: uni0237
Encoding: 424 567 35
Width: 310
Flags: W
HStem: 406.084 90.9268<13.6201 128.151>
VStem: 123.83 116.329<20 406.084>
AnchorPoint: "Anchor-0" 159 496.019 basechar 0
AnchorPoint: "Anchor-2" 80 -165 basechar 0
LayerCount: 2
Fore
SplineSet
234.729492188 497.010742188 m 1
 240.159179688 0 l 1
 109 -184 l 5
 11 -118 l 1
 123.830078125 20 l 1
 128.151367188 406.083984375 l 1
 10 404.080078125 l 1
 13.6201171875 497.010742188 l 1
 234.729492188 497.010742188 l 1
EndSplineSet
EndChar

StartChar: y
Encoding: 89 121 36
Width: 593
Flags: W
HStem: 491 20G<10 205.397 458.577 528.578>
AnchorPoint: "Anchor-2" 223 -186.994 basechar 0
AnchorPoint: "Anchor-0" 333 496.019 basechar 0
AnchorPoint: "Anchor-0" 333 496.019 basechar 0
LayerCount: 2
Fore
SplineSet
337.905273438 104.1328125 m 5
 317 20 l 5
 257.174804688 20 l 5
 120.151367188 409 l 1
 17.0458984375 400 l 1
 10 497 l 1
 198.546875 511 l 1
 337.905273438 104.1328125 l 5
291.741210938 35.58984375 m 2
 465.904296875 511 l 1
 572.450195312 477 l 1
 412.607421875 50 l 2
 348.8247033 -120.387564265 259 -225 259 -225 c 1
 169 -163.994140625 l 1
 169 -163.994140625 252.607675746 -71.2323337489 291.741210938 35.58984375 c 2
EndSplineSet
Substitution2: "'ss08' Style Set 8 lookup 16-1" y.ss08
EndChar

StartChar: x
Encoding: 88 120 37
Width: 562
Flags: W
HStem: 494 20G<99.9231 206.24 425.537 469.706>
AnchorPoint: "Anchor-2" 327.769 0 basechar 0
AnchorPoint: "Anchor-0" 319.769 496.019 basechar 0
LayerCount: 2
Fore
SplineSet
438.768554688 514 m 1
 537.768554688 450 l 1
 381.768554688 251 l 5
 552.768554688 48 l 1
 458.768554688 -17 l 1
 264.768554688 251 l 5
 438.768554688 514 l 1
139.911132812 407.638671875 m 1
 28.94921875 383.47265625 l 1
 10 474.8359375 l 1
 193.768554688 514 l 1
 357.768554688 251 l 5
 163.768554688 -17 l 1
 69.7685546875 48 l 1
 240.768554688 251 l 5
 139.911132812 407.638671875 l 1
EndSplineSet
EndChar

StartChar: S
Encoding: 51 83 38
Width: 487
Flags: W
HStem: 718.393 20G<364.69 367.053>
VStem: 40 132.269<477.901 569.191> 313.121 134.215<174.323 277.339>
AnchorPoint: "Anchor-2" 207 0 basechar 0
AnchorPoint: "Anchor-2" 207 0 basechar 0
AnchorPoint: "Anchor-0" 227 731.008 basechar 0
LayerCount: 2
Fore
SplineSet
364.690429688 738.392578125 m 1
 377.541015625 629.592773438 l 1
 377.541015625 629.592773438 172.268554688 611.428260135 172.268554688 526.93359375 c 0
 172.268554688 483.869310269 199.536437167 459.318514897 316.284179688 404.650390625 c 4
 413.614701163 359.0745454 447.3359375 312.247420589 447.3359375 231.044921875 c 0
 447.3359375 -14.4427133135 86.4423828125 -19.8779296875 86.4423828125 -19.8779296875 c 1
 75.220703125 96.6826171875 l 1
 75.220703125 96.6826171875 313.12109375 109.628525753 313.12109375 226 c 0
 313.12109375 265.39341893 295.863156766 290.061748936 191.401367188 332.655273438 c 0
 75.0449218749 380.098756115 40 441.00318089 40 510.93359375 c 0
 40 732.636345207 364.690429688 738.392578125 364.690429688 738.392578125 c 1
EndSplineSet
EndChar

StartChar: v
Encoding: 86 118 39
Width: 593
Flags: W
HStem: 0 21G<250.474 402.064> 491 20G<10 205.066 458.95 528.578>
AnchorPoint: "Anchor-2" 328 0 basechar 0
AnchorPoint: "Anchor-0" 336 496.019 basechar 0
LayerCount: 2
Fore
SplineSet
394.607421875 0 m 5
 257.174804688 0 l 5
 120.151367188 409 l 5
 17.0458984375 400 l 5
 10 497 l 5
 198.546875 511 l 5
 327.905273438 114.1328125 l 5
 465.904296875 511 l 5
 572.450195312 477 l 5
 394.607421875 0 l 5
EndSplineSet
EndChar

StartChar: w
Encoding: 87 119 40
Width: 862
Flags: W
HStem: 0 21G<257.132 393.445 561.503 693.667> 491 20G<10 205.373 453.32 528.461 738.723 807.578>
AnchorPoint: "Anchor-2" 470 0 basechar 0
AnchorPoint: "Anchor-0" 503 496.019 basechar 0
LayerCount: 2
Fore
SplineSet
385.607421875 0 m 5
 264.174804688 0 l 5
 120.151367188 409 l 1
 17.0458984375 400 l 1
 10 497 l 1
 198.546875 511 l 1
 329.905273438 126.1328125 l 5
 459.904296875 521 l 1
 576.450195312 487 l 1
 385.607421875 0 l 5
686.607421875 0 m 1
 569.174804688 0 l 1
 434.151367188 352 l 1
 515 453 l 1
 630.905273438 132.1328125 l 1
 744.904296875 501 l 1
 851.450195312 467 l 1
 686.607421875 0 l 1
EndSplineSet
EndChar

StartChar: six
Encoding: 22 54 41
Width: 619
Flags: W
HStem: -10 108.858<235.206 396.595> 385.009 98.7178<233.941 397.92> 636.533 112.459<373.516 489.163>
VStem: 40 131.375<164.076 319.748> 458.625 119.691<160.796 321.873>
LayerCount: 2
Back
SplineSet
498.310546875 748.9921875 m 1
 512 637.533203125 l 1
 175.065365254 610.146952891 170.458007812 416.932617188 170.458007812 416.932617188 c 1
 170.458007812 416.932617188 215.209080523 483.7265625 336.600585938 483.7265625 c 0
 472.674581172 483.7265625 572.31640625 388.819152798 572.31640625 245.249023438 c 0
 572.31640625 100.798835154 490.925518401 -10 316.310546875 -10 c 0
 170.896357089 -10 45 80.6409024463 45 300.348632812 c 4
 45 516.020480109 153.586977651 728.185507446 498.310546875 748.9921875 c 1
176.375 242.858398438 m 0
 176.375 154.857510653 229.905346038 98.8583984375 314.025390625 98.8583984375 c 0
 398.725511696 98.8583984375 452.625 154.857510653 452.625 242.858398438 c 0
 452.625 329.728081597 398.725511696 385.008789062 314.025390625 385.008789062 c 0
 229.905346038 385.008789062 176.375 329.728081597 176.375 242.858398438 c 0
EndSplineSet
Fore
SplineSet
488.310546875 748.9921875 m 5
 502 636.533203125 l 5
 182.170684679 618.612585116 170.458007812 416.932617188 170.458007812 416.932617188 c 5
 170.458007812 416.932617188 217.363907935 483.7265625 344.600585938 483.7265625 c 4
 479.647840254 483.7265625 578.31640625 388.819152798 578.31640625 245.249023438 c 4
 578.31640625 110.798835154 505.373686114 -10 316.310546875 -10 c 4
 150.841007912 -10 40 92.3932717406 40 306.348632812 c 4
 40 519.13616121 147.38926696 728.463768616 488.310546875 748.9921875 c 5
171.375 242.858398438 m 4
 171.375 154.857510653 227.62754988 98.8583984375 316.025390625 98.8583984375 c 4
 403.169966524 98.8583984375 458.625 154.857510653 458.625 242.858398438 c 4
 458.625 329.728081597 403.169966524 385.008789062 316.025390625 385.008789062 c 4
 227.62754988 385.008789062 171.375 329.728081597 171.375 242.858398438 c 4
EndSplineSet
Substitution2: "'onum' Oldstyle Figures lookup 27-1" six.osf
Substitution2: "'frac' Diagonal Fractions in Latin lookup 26 subtable" six.numr
Substitution2: "'dnom' Denominators lookup 0 subtable" six.dnom
Substitution2: "'numr' Numerators lookup 0 subtable" six.numr
Substitution2: "'sinf' Scientific Inferiors lookup 0 subtable" six.inferior
Substitution2: "'sups' Superscript lookup 0 subtable" six.superior
EndChar

StartChar: z
Encoding: 90 122 42
Width: 461
Flags: W
HStem: 0 101<188.169 415.017> 394 103<46 264.848>
AnchorPoint: "Anchor-2" 238 0 basechar 0
AnchorPoint: "Anchor-0" 231 496.019 basechar 0
LayerCount: 2
Fore
SplineSet
40 394 m 1
 46 497 l 1
 389.016601562 497 l 1
 411.016601562 422 l 1
 188.168945312 101 l 5
 421.016601562 104 l 1
 415.016601562 0 l 1
 51 0 l 1
 32 65 l 1
 264.84765625 397 l 1
 40 394 l 1
EndSplineSet
EndChar

StartChar: O
Encoding: 47 79 43
Width: 785
Flags: W
HStem: -10.0664 119.351<292.373 485.37> 619.583 119.351<292.373 485.37>
VStem: 40 123.487<244.288 481.399> 621.513 123.487<248.873 476.752>
AnchorPoint: "Anchor-3" 435 0 basechar 0
AnchorPoint: "Anchor-2" 377 0 basechar 0
AnchorPoint: "Anchor-2" 377 0 basechar 0
AnchorPoint: "Anchor-0" 377 731.008 basechar 0
AnchorPoint: "Anchor-0" 377 731.008 basechar 0
LayerCount: 2
Back
SplineSet
295.487304688 361.704101562 m 0
 295.487304688 247.780273438 320.957605563 175.284179688 376.697265625 175.284179688 c 0
 439.529183996 175.284179688 469.512695312 247.780273438 469.512695312 361.704101562 c 0
 469.512695312 478.963867188 439.529183996 553.583007812 376.697265625 553.583007812 c 0
 320.957605563 553.583007812 295.487304688 478.963867188 295.487304688 361.704101562 c 0
90 361.93359375 m 0
 90 592.322265625 195.499874605 738.93359375 377 738.93359375 c 0
 565.222610829 738.93359375 675 592.322265625 675 361.93359375 c 0
 675 134.599609375 565.222610829 -10.06640625 377 -10.06640625 c 0
 195.499874605 -10.06640625 90 134.599609375 90 361.93359375 c 0
EndSplineSet
Fore
SplineSet
163.487304688 361.704101562 m 0
 163.487304688 206.514801699 255.139965825 109.284179688 386.697265625 109.284179688 c 4
 525.477893292 109.284179688 621.512695312 206.514801699 621.512695312 361.704101562 c 0
 621.512695312 520.220487878 525.477893292 619.583007812 386.697265625 619.583007812 c 4
 255.139965825 619.583007812 163.487304688 520.220487878 163.487304688 361.704101562 c 0
40 361.93359375 m 0
 40 592.322641811 174.944297939 738.93359375 387 738.93359375 c 0
 605.77822947 738.93359375 745 592.322641811 745 361.93359375 c 0
 745 134.599173678 605.77822947 -10.06640625 387 -10.06640625 c 0
 174.944297939 -10.06640625 40 134.599173678 40 361.93359375 c 0
EndSplineSet
EndChar

StartChar: L
Encoding: 44 76 44
Width: 620
Flags: W
HStem: 0 111.293<279.064 596.539> 620.084 110.927<23.6201 148.151>
VStem: 143.43 135.635<111.293 620.084>
AnchorPoint: "Anchor-2" 377 0 basechar 0
AnchorPoint: "Anchor-2" 377 0 basechar 0
AnchorPoint: "Anchor-0" 206 731.008 basechar 0
LayerCount: 2
Fore
SplineSet
279.064453125 111.29296875 m 1
 600.159179688 112.930664062 l 1
 596.5390625 0 l 1
 143.4296875 0 l 1
 148.151367188 620.083984375 l 1
 20 618.080078125 l 5
 23.6201171875 731.010742188 l 5
 274.729492188 731.009765625 l 1
 279.064453125 111.29296875 l 1
EndSplineSet
EndChar

StartChar: K
Encoding: 43 75 45
Width: 757
Flags: W
HStem: 0 21G<143.83 280.159> 620.084 110.927<13.6201 148.151>
VStem: 143.83 136.329<0 620.084>
AnchorPoint: "Anchor-2" 426 0 basechar 0
AnchorPoint: "Anchor-2" 426 0 basechar 0
AnchorPoint: "Anchor-0" 416 731.008 basechar 0
LayerCount: 2
Fore
SplineSet
274.729492188 731.010742188 m 1
 280.159179688 0 l 1
 143.830078125 0 l 1
 148.151367188 620.083984375 l 1
 10 618.080078125 l 1
 13.6201171875 731.010742188 l 1
 13.6201171875 731.010742188 274.729492188 731.010742188 274.729492188 731.010742188 c 1
588 745.0078125 m 1
 692 661.0078125 l 1
 401 359 l 5
 717 68 l 1
 623 -27 l 1
 229 359 l 5
 588 745.0078125 l 1
EndSplineSet
EndChar

StartChar: J
Encoding: 42 74 46
Width: 370
Flags: W
HStem: 620.084 110.927<33.6201 168.151>
VStem: 163.83 136.329<60 620.084>
AnchorPoint: "Anchor-2" 100 -148 basechar 0
AnchorPoint: "Anchor-2" 100 -148 basechar 0
AnchorPoint: "Anchor-0" 186 731.008 basechar 0
LayerCount: 2
Fore
SplineSet
294.729492188 731.010742188 m 1
 300.159179688 30 l 1
 128 -187 l 5
 20 -110 l 1
 163.830078125 60 l 1
 168.151367188 620.083984375 l 1
 30 618.080078125 l 1
 33.6201171875 731.010742188 l 1
 294.729492188 731.010742188 l 1
EndSplineSet
Substitution2: "'ss12' Style Set 12 lookup 20-1" J.ss12
EndChar

StartChar: H
Encoding: 40 72 47
Width: 780
Flags: W
HStem: 0 21G<143.83 280.159 573.83 710.159> 285 112<364.727 604> 296 97<232 467.273> 620.084 110.927<33.6201 148.151 463.62 578.151>
VStem: 143.83 136.329<0 296 393 620.084> 228 52.1592<296 393> 573.83 136.329<0 285 397 620.084>
AnchorPoint: "Anchor-2" 432 0 basechar 0
AnchorPoint: "Anchor-2" 432 0 basechar 0
AnchorPoint: "Anchor-0" 386 731.008 basechar 0
LayerCount: 2
Back
SplineSet
252 393 m 1xb6
 608 397 l 1
 604 285 l 1xd6
 248 296 l 1
 252 393 l 1xb6
704.729492188 731.010742188 m 1
 710.159179688 0 l 1
 573.830078125 0 l 1
 578.151367188 620.083984375 l 1
 440 618.080078125 l 5
 443.620117188 731.010742188 l 5
 704.729492188 731.010742188 l 1
294.729492188 731.010742188 m 1
 300.159179688 0 l 1
 163.830078125 0 l 1x9a
 168.151367188 620.083984375 l 1
 30 618.080078125 l 5
 33.6201171875 731.010742188 l 5
 294.729492188 731.010742188 l 1
EndSplineSet
Fore
SplineSet
232 393 m 1xb6
 608 397 l 1
 604 285 l 1xd6
 228 296 l 1
 232 393 l 1xb6
704.729492188 731.010742188 m 1
 710.159179688 0 l 1
 573.830078125 0 l 1
 578.151367188 620.083984375 l 1
 460 618.080078125 l 5
 463.620117188 731.010742188 l 5
 704.729492188 731.010742188 l 1
274.729492188 731.010742188 m 1
 280.159179688 0 l 1
 143.830078125 0 l 1x9a
 148.151367188 620.083984375 l 1
 30 618.080078125 l 1
 33.6201171875 731.010742188 l 1
 274.729492188 731.010742188 l 1
EndSplineSet
EndChar

StartChar: backslash
Encoding: 60 92 48
Width: 497
Flags: W
LayerCount: 2
Back
SplineSet
506 -123.994140625 m 1
 317 -175.994140625 l 1
 178.016601562 331 l 1
 1 763.001953125 l 1
 190 815.001953125 l 1
 308.362304688 379 l 1
 506 -123.994140625 l 1
EndSplineSet
Fore
SplineSet
456 -133.994140625 m 5
 357 -165.994140625 l 1
 41 773.001953125 l 1
 140 805.001953125 l 5
 456 -133.994140625 l 5
EndSplineSet
EndChar

StartChar: F
Encoding: 38 70 49
Width: 620
Flags: W
HStem: 0 21G<143.83 280.159> 265 112<222.5 534> 273 103<182 489.5> 618.08 112.931<33.6201 148.151 276.104 578.729>
VStem: 178 102.159<273 376>
AnchorPoint: "Anchor-2" 367 0 basechar 0
AnchorPoint: "Anchor-2" 367 0 basechar 0
AnchorPoint: "Anchor-0" 327 731.008 basechar 0
LayerCount: 2
Fore
SplineSet
182 376 m 5xb8
 538 377 l 1
 534 265 l 1xd8
 178 273 l 5
 182 376 l 5xb8
578.729492188 731.010742188 m 1
 584.61328125 614 l 1
 276.103515625 618 l 5
 280.159179688 0 l 5
 143.830078125 0 l 5
 148.151367188 620.083984375 l 5
 30 618.080078125 l 1
 33.6201171875 731.010742188 l 1
 578.729492188 731.010742188 l 1
EndSplineSet
EndChar

StartChar: E
Encoding: 37 69 50
Width: 620
Flags: W
HStem: 0 111.48<279.018 586.539> 308 112<222.5 534> 316 103<182 489.5> 618.08 112.931<33.6201 148.151 276.104 578.729>
VStem: 178 101.018<316 419>
AnchorPoint: "Anchor-3" 535 0 basechar 0
AnchorPoint: "Anchor-2" 377 0 basechar 0
AnchorPoint: "Anchor-2" 377 0 basechar 0
AnchorPoint: "Anchor-0" 327 731.008 basechar 0
LayerCount: 2
Fore
SplineSet
182 419 m 5xb8
 538 420 l 1
 534 308 l 1xd8
 178 316 l 5
 182 419 l 5xb8
578.729492188 731.010742188 m 1
 584.61328125 614 l 1
 276.103515625 618 l 5
 279.017578125 111.48046875 l 5
 319.064453125 111.29296875 l 5
 590.159179688 112.930664062 l 1
 586.5390625 0 l 1
 143.4296875 0 l 5
 148.151367188 620.083984375 l 5
 30 618.080078125 l 1
 33.6201171875 731.010742188 l 1
 578.729492188 731.010742188 l 1
EndSplineSet
Substitution2: "'ss15' Style Set 15 lookup 23-1" E.ss15
EndChar

StartChar: N
Encoding: 46 78 51
Width: 790
Flags: W
HStem: -10 21G<591.498 720.539> 0 21G<155.21 281.539> 618.08 112.931<34.3799 159.531>
VStem: 155.21 126.329<0 501.793> 598.151 122.388<219.889 731.011>
AnchorPoint: "Anchor-2" 438 0 basechar 0
AnchorPoint: "Anchor-2" 438 0 basechar 0
AnchorPoint: "Anchor-0" 441 731.008 basechar 0
LayerCount: 2
Fore
SplineSet
715.109375 731.010742188 m 1x78
 720.5390625 0 l 1x78
 604.209960938 -10 l 1xb8
 278.92578125 501.79296875 l 5
 281.5390625 0 l 5
 155.209960938 0 l 5
 159.53125 624.083984375 l 5
 34.3798828125 618.080078125 l 1
 30 731.010742188 l 1
 296.109375 741.010742188 l 5
 598.151367188 219.888671875 l 1
 602 731.010742188 l 1
 715.109375 731.010742188 l 1x78
EndSplineSet
EndChar

StartChar: bar
Encoding: 92 124 52
Width: 246
Flags: W
VStem: 70 106.329<-170 788.992>
LayerCount: 2
Back
SplineSet
220.899414062 788.9921875 m 1
 193.418945312 334 l 1
 226.329101562 -170 l 1
 30 -170 l 1
 63.3330078125 338 l 1
 36.169921875 788.9921875 l 1
 220.899414062 788.9921875 l 1
EndSplineSet
Fore
SplineSet
170.899414062 788.9921875 m 1
 176.329101562 -170 l 1
 70 -170 l 1
 76.169921875 788.9921875 l 1
 170.899414062 788.9921875 l 1
EndSplineSet
EndChar

StartChar: U
Encoding: 53 85 53
Width: 767
Flags: W
HStem: -10 122<339.464 513.608> 620.084 110.927<33.6201 155.151 453.62 572.151>
VStem: 143.517 128.643<184.632 581.094> 580.83 126.812<181.616 570.93>
AnchorPoint: "Anchor-3" 500 0 basechar 0
AnchorPoint: "Anchor-2" 430 0 basechar 0
AnchorPoint: "Anchor-2" 430 0 basechar 0
AnchorPoint: "Anchor-0" 386 731.008 basechar 0
AnchorPoint: "Anchor-0" 386 731.008 basechar 0
LayerCount: 2
Fore
SplineSet
707.641601562 270.946289062 m 0
 707.641601562 85.0810974476 603.358527672 -10 428.830078125 -10 c 0
 242.884776865 -10 143.516601562 84.5172625506 143.516601562 290.099609375 c 0
 143.516601562 418.91335477 155.151367188 620.083984375 155.151367188 620.083984375 c 1
 30 618.080078125 l 1
 33.6201171875 731.010742188 l 1
 280.729492188 731.010742188 l 1
 280.729492188 731.010742188 272.159179688 403.488572129 272.159179688 289 c 0
 272.159179688 183.575505183 313.132399221 112 430 112 c 0
 535.164904523 112 580.830078125 176.352304313 580.830078125 289 c 0
 580.830078125 416.982996033 572.151367188 620.083984375 572.151367188 620.083984375 c 1
 450 618.080078125 l 5
 453.620117188 731.010742188 l 5
 694.729492188 731.010742188 l 1
 694.729492188 731.010742188 707.641601562 450.456085293 707.641601562 270.946289062 c 0
EndSplineSet
EndChar

StartChar: A
Encoding: 33 65 54
Width: 670
Flags: W
HStem: 168 115<192.5 504> 176 113<152 459.5> 599.069 121.931<65.8193 227.508> 711 20G<61.4395 410.638>
AnchorPoint: "Anchor-3" 547 0 basechar 0
AnchorPoint: "Anchor-2" 338 0 basechar 0
AnchorPoint: "Anchor-2" 338 0 basechar 0
AnchorPoint: "Anchor-0" 316 731.008 basechar 0
LayerCount: 2
Fore
SplineSet
152 289 m 1x40
 508 283 l 1
 504 168 l 1x80
 148 176 l 1
 152 289 l 1x40
227.5078125 604.112304688 m 1
 65.8193359375 599.069335938 l 1
 61.439453125 721 l 1x20
 403.548828125 731 l 1x10
 658.450195312 11.9111328125 l 1
 534.176757812 -15 l 1
 336.818359375 576.8671875 l 5
 132.819335938 -15 l 1
 10.2734375 16 l 1
 227.5078125 604.112304688 l 1
EndSplineSet
Substitution2: "'fina' Terminal Forms lookup 25-1" A.fina
Substitution2: "'init' Initial Forms lookup 24-1" A.init
Substitution2: "'ss14' Style Set 14 lookup 22-1" A.ss14
EndChar

StartChar: B
Encoding: 34 66 55
Width: 739
Flags: W
HStem: -10.0664 107<290.273 524.631> 319.992 97.9414<287.277 492.837> 630.992 108<190.386 489.95> 630.992 8.25781<194.902 285.67>
VStem: 158 129.714<107.246 314.434 425.877 639.25> 541.917 128<459.183 581.955> 583.917 126<146.748 271.097>
AnchorPoint: "Anchor-2" 427 0 basechar 0
AnchorPoint: "Anchor-2" 427 0 basechar 0
AnchorPoint: "Anchor-0" 386 731.008 basechar 0
LayerCount: 2
Fore
SplineSet
254.196289062 425.876953125 m 1xda
 254.196289062 425.876953125 292.372783225 417.93359375 387.916992188 417.93359375 c 0
 496.235839843 417.93359375 541.916992188 460.534924523 541.916992188 516.93359375 c 0
 541.916992188 591.357599437 490.386418268 630.9921875 380.916992188 630.9921875 c 0
 194.902307942 630.9921875 59.26953125 546.427734375 59.26953125 546.427734375 c 5
 18 664.840820312 l 1
 18 664.840820312 128.032864113 738.9921875 386.916992188 738.9921875 c 0
 559.861541435 738.9921875 669.916992188 654.581054688 669.916992188 521.93359375 c 0xec
 669.916992188 409.500053058 576.275390625 379.96875 576.275390625 379.96875 c 1
 576.275390625 379.96875 709.916992188 350.306637784 709.916992188 196.9921875 c 0
 709.916992188 70.4560546875 599.861541435 -10.06640625 426.916992188 -10.06640625 c 0
 238.207280651 -10.06640625 158 24.0849609375 158 24.0849609375 c 1
 163.940429688 639.25 l 1
 285.669921875 639.25 l 1
 287.713867188 107.24609375 l 1
 287.713867188 107.24609375 315.488704182 96.93359375 406.916992188 96.93359375 c 0
 525.811404789 96.93359375 583.916992188 137.855120285 583.916992188 209.9921875 c 0
 583.916992188 270.4921875 538.962536076 319.9921875 408 319.9921875 c 0
 296.059009719 319.9921875 254.2578125 314.43359375 254.2578125 314.43359375 c 1
 254.196289062 425.876953125 l 1xda
EndSplineSet
EndChar

StartChar: C
Encoding: 35 67 56
Width: 651
Flags: W
HStem: -10.0664 120<300.8 538.822> 625.992 113<309.124 528.446>
VStem: 40 131<241.934 482.741>
AnchorPoint: "Anchor-0" 387 731.008 basechar 0
AnchorPoint: "Anchor-2" 378 0 basechar 0
AnchorPoint: "Anchor-2" 378 0 basechar 0
LayerCount: 2
Fore
SplineSet
40 361.93359375 m 0
 40 592.358449127 178.833182606 738.9921875 397 738.9921875 c 0
 571.675165443 738.9921875 645.916992188 662.840820312 645.916992188 662.840820312 c 1
 594.647460938 570.427734375 l 1
 594.647460938 570.427734375 524.333915661 625.9921875 415 625.9921875 c 0
 265.887975935 625.9921875 171 523.304211293 171 361.93359375 c 0
 171 207.933046873 251.184228515 109.93359375 408 109.93359375 c 4
 544.83872083 109.93359375 614.1484375 170.364257812 614.1484375 170.364257812 c 1
 661.146484375 62.31640625 l 1
 661.146484375 62.31640625 594.321700857 -10.06640625 387 -10.06640625 c 0
 174.944297939 -10.06640625 40 134.599173678 40 361.93359375 c 0
EndSplineSet
EndChar

StartChar: D
Encoding: 36 68 57
Width: 783
Flags: W
HStem: -10.0664 120<289.079 495.057> 614.992 124<286.087 494.633> 614.992 24.2578<184.77 285.67>
VStem: 163.94 121.729<118.847 639.25> 626.917 127<241.934 482.995>
AnchorPoint: "Anchor-2" 399 0 basechar 0
AnchorPoint: "Anchor-2" 399 0 basechar 0
AnchorPoint: "Anchor-0" 386 731.008 basechar 0
LayerCount: 2
Fore
SplineSet
753.916992188 361.93359375 m 4xd8
 753.916992188 134.599609375 615.083984375 -10.06640625 396.916992188 -10.06640625 c 0
 216.064168007 -10.06640625 157.770507812 37.31640625 157.770507812 37.31640625 c 1
 163.940429688 639.25 l 1
 285.669921875 639.25 l 1xb8
 289.002929688 118.846679688 l 1
 289.002929688 118.846679688 331.522608633 109.93359375 386.916992188 109.93359375 c 0
 545.717921775 109.93359375 626.916992188 207.93234375 626.916992188 361.93359375 c 4
 626.916992188 516.581745842 545.83210819 614.9921875 379.916992188 614.9921875 c 0
 184.770422903 614.9921875 59.26953125 546.427734375 59.26953125 546.427734375 c 1
 18 664.840820312 l 1
 18 664.840820312 128.032864113 738.9921875 386.916992188 738.9921875 c 0
 611.1953125 738.9921875 753.916992188 592.358398438 753.916992188 361.93359375 c 4xd8
EndSplineSet
EndChar

StartChar: P
Encoding: 48 80 58
Width: 721
Flags: W
HStem: 0 21G<157.771 289.003> 199.934 115<289.178 499.697> 617.992 121<185.246 486.447> 617.992 21.2578<206.109 285.67>
VStem: 157.771 131.232<0 244.434 345.877 639.25> 566.917 125<378.343 546.978>
AnchorPoint: "Anchor-2" 377 0 basechar 0
AnchorPoint: "Anchor-2" 377 0 basechar 0
AnchorPoint: "Anchor-0" 386 731.008 basechar 0
LayerCount: 2
Fore
SplineSet
289.002929688 0 m 1xdc
 157.770507812 0 l 1
 163.940429688 639.25 l 1
 285.669921875 639.25 l 1
 289.002929688 0 l 1xdc
264.196289062 345.876953125 m 1
 264.196289062 345.876953125 303.977517505 314.93359375 406.916992188 314.93359375 c 0
 511.785801149 314.93359375 566.916992188 369.997257315 566.916992188 458.93359375 c 0
 566.916992188 565.437256985 505.521849593 617.9921875 369.916992188 617.9921875 c 0
 206.109284872 617.9921875 60.26953125 546.427734375 60.26953125 546.427734375 c 5
 19 664.840820312 l 5
 19 664.840820312 128.734604975 738.9921875 386.916992188 738.9921875 c 0xec
 575.080698164 738.9921875 691.916992188 635.221386984 691.916992188 453.93359375 c 0
 691.916992188 299.886149088 590.627894175 199.93359375 426.916992188 199.93359375 c 0
 307.286877799 199.93359375 235.2578125 244.43359375 235.2578125 244.43359375 c 1
 264.196289062 345.876953125 l 1
EndSplineSet
EndChar

StartChar: M
Encoding: 45 77 59
Width: 877
VWidth: 1111
Flags: W
HStem: 619.08 111.931<33 168.817>
VStem: 701 132<4.25758 91.1356>
AnchorPoint: "Anchor-2" 483 0 basechar 0
AnchorPoint: "Anchor-2" 483 0 basechar 0
AnchorPoint: "Anchor-0" 494 731.008 basechar 0
LayerCount: 2
Back
SplineSet
198.817382812 545.212890625 m 1
 93 539.080078125 l 1
 88.6201171875 731.010742188 l 1
 430.729492188 741.010742188 l 1
 483 547 l 1
 552 740 l 1
 766 731 l 1
 825 5 l 1
 613 -9 l 1
 584 361 l 5
 486 160 l 5
 390 352 l 5
 356 -6 l 1
 155 9 l 1
 198.817382812 545.212890625 l 1
EndSplineSet
Fore
SplineSet
168.817382812 625.212890625 m 1
 33 619.080078125 l 1
 28.6201171875 731.010742188 l 1
 330.729492188 741.010742188 l 1
 477 417 l 1
 640 740 l 1
 774 731 l 1
 833 5 l 1
 701 -9 l 1
 672 541 l 1
 470 150 l 5
 280 532 l 1
 236 -6 l 1
 115 9 l 1
 168.817382812 625.212890625 l 1
EndSplineSet
Substitution2: "'fina' Terminal Forms lookup 25-1" M.fina
Substitution2: "'init' Initial Forms lookup 24-1" M.init
EndChar

StartChar: G
Encoding: 39 71 60
Width: 794
Flags: W
HStem: -10.0664 123<295.667 514.341> 286.319 112.931<661.565 760.097> 620.992 118<307.717 533.472>
VStem: 40 131<243.434 482.404> 533.558 132.329<-87.7607 92.3164 176.364 288.323>
AnchorPoint: "Anchor-2" 388 0 basechar 0
AnchorPoint: "Anchor-2" 388 0 basechar 0
AnchorPoint: "Anchor-0" 387 731.008 basechar 0
LayerCount: 2
Fore
SplineSet
538.987304688 399.25 m 1
 760.096679688 399.25 l 1
 763.716796875 286.319335938 l 1
 661.565429688 288.323242188 l 1
 665.88671875 -87.7607421875 l 1
 533.557617188 -87.7607421875 l 1
 538.987304688 399.25 l 1
40 361.93359375 m 0
 40 592.358449127 178.833182606 738.9921875 397 738.9921875 c 0
 571.675165443 738.9921875 645.916992188 662.840820312 645.916992188 662.840820312 c 5
 604.647460938 565.427734375 l 5
 604.647460938 565.427734375 528.462954984 620.9921875 410 620.9921875 c 0
 263.943550198 620.9921875 171 521.415277659 171 364.93359375 c 0
 171 210.933046873 249.492578125 112.93359375 403 112.93359375 c 0
 523.24403759 112.93359375 584.1484375 176.364257812 584.1484375 176.364257812 c 1
 631.146484375 92.31640625 l 1
 631.146484375 92.31640625 569.196815974 -10.06640625 377 -10.06640625 c 0
 171.055413272 -10.06640625 40 134.599173678 40 361.93359375 c 0
EndSplineSet
Substitution2: "'ss11' Style Set 11 lookup 19-1" G.ss11
EndChar

StartChar: T
Encoding: 52 84 61
Width: 590
Flags: W
HStem: 0 21G<221.83 358.159> 618 30<226.151 354.104> 618.08 112.931<23.6201 226.151 354.104 558.729>
VStem: 221.83 136.329<0 648>
AnchorPoint: "Anchor-2" 288 0 basechar 0
AnchorPoint: "Anchor-2" 288 0 basechar 0
AnchorPoint: "Anchor-0" 289 731.008 basechar 0
LayerCount: 2
Fore
SplineSet
354.103515625 648 m 1xd0
 358.159179688 0 l 1
 221.830078125 0 l 1
 226.151367188 650.083984375 l 1
 354.103515625 648 l 1xd0
292.103515625 618 m 1
 20 618.080078125 l 5
 23.6201171875 731.010742188 l 5
 558.729492188 731.010742188 l 1xb0
 564.61328125 614 l 1
 292.103515625 618 l 1
EndSplineSet
EndChar

StartChar: V
Encoding: 54 86 62
Width: 774
Flags: W
HStem: 0 21G<338.295 501.019>
AnchorPoint: "Anchor-2" 416 0 basechar 0
AnchorPoint: "Anchor-2" 416 0 basechar 0
AnchorPoint: "Anchor-0" 415 731.008 basechar 0
LayerCount: 2
Fore
SplineSet
493.607421875 0 m 5
 344.174804688 0 l 5
 160.151367188 626 l 5
 37.0458984375 618 l 5
 30 732 l 5
 258.546875 746 l 5
 428.905273438 144.1328125 l 5
 624.904296875 746 l 5
 757.450195312 712 l 5
 493.607421875 0 l 5
EndSplineSet
Substitution2: "'fina' Terminal Forms lookup 25-1" V.fina
Substitution2: "'init' Initial Forms lookup 24-1" V.init
EndChar

StartChar: W
Encoding: 55 87 63
Width: 1134
Flags: W
HStem: 0 21G<338.295 500.941 708.839 871.839> 716 20G<979.619 1063.87>
AnchorPoint: "Anchor-2" 609 0 basechar 0
AnchorPoint: "Anchor-2" 609 0 basechar 0
AnchorPoint: "Anchor-0" 655 731.008 basechar 0
LayerCount: 2
Fore
SplineSet
493.607421875 0 m 1
 344.174804688 0 l 1
 160.151367188 626 l 1
 37.0458984375 618 l 1
 30 732 l 1
 258.546875 746 l 1
 428.905273438 144.1328125 l 1
 613.904296875 759 l 1
 759.450195312 725 l 1
 493.607421875 0 l 1
864.607421875 0 m 1
 715.174804688 0 l 1
 578 433 l 1
 656.395507812 623 l 1
 799.905273438 144.1328125 l 1
 985.904296875 736 l 5
 1118.45019531 702 l 5
 864.607421875 0 l 1
EndSplineSet
Substitution2: "'fina' Terminal Forms lookup 25-1" W.fina
Substitution2: "'init' Initial Forms lookup 24-1" W.init
EndChar

StartChar: Q
Encoding: 49 81 64
Width: 785
Flags: W
HStem: -10.0664 119.351<292.373 485.37> 619.583 119.351<292.373 485.37>
VStem: 40 123.487<244.288 481.399> 621.513 123.487<248.873 476.752>
AnchorPoint: "Anchor-0" 377 731.008 basechar 0
LayerCount: 2
Fore
SplineSet
109 124 m 5
 803 -24 l 5
 770 -154 l 5
 84 39 l 5
 109 124 l 5
EndSplineSet
Refer: 43 79 N 1 0 0 1 0 0 2
Substitution2: "'ss10' Style Set 10 lookup 18-1" Q.ss10
EndChar

StartChar: underscore
Encoding: 63 95 65
Width: 580
Flags: W
HStem: -97 97<33 547>
LayerCount: 2
Fore
SplineSet
33 0 m 1
 549 4 l 1
 547 -102 l 5
 31 -97 l 5
 33 0 l 1
EndSplineSet
EndChar

StartChar: R
Encoding: 50 82 66
Width: 729
Flags: W
HStem: 0 21G<147.771 279.003> 617.992 121<281.742 474.909> 617.992 51.2578<219.214 275.67>
VStem: 147.771 131.232<0 285.434 355.877 669.25> 551.917 127<404.511 550.276>
AnchorPoint: "Anchor-2" 417 0 basechar 0
AnchorPoint: "Anchor-2" 417 0 basechar 0
AnchorPoint: "Anchor-0" 386 731.008 basechar 0
LayerCount: 2
Back
SplineSet
289.002929688 0 m 5xb8
 157.770507812 0 l 5
 163.940429688 669.25 l 1
 285.669921875 669.25 l 1
 289.002929688 0 l 5xb8
274.196289062 355.876953125 m 1
 274.196289062 355.876953125 298.311785784 334.93359375 373.916992188 334.93359375 c 0
 487.119605202 334.93359375 551.916992188 395.921142577 551.916992188 475.93359375 c 0
 551.916992188 563.722489841 489.063645233 617.9921875 353 617.9921875 c 0
 219.214256452 617.9921875 49.26953125 556.427734375 49.26953125 556.427734375 c 1
 18 674.840820312 l 1
 18 674.840820312 122.067681352 738.9921875 366.916992188 738.9921875 c 0xd8
 557.583984375 738.9921875 678.916992188 638.247073955 678.916992188 479.93359375 c 0
 678.916992188 277.943443494 474.740234375 245.040039062 474.740234375 245.040039062 c 1
 701.770507812 69 l 1
 625.770507812 -37 l 1
 235.2578125 285.43359375 l 1
 274.196289062 355.876953125 l 1
EndSplineSet
Fore
SplineSet
279.002929688 0 m 1xb8
 147.770507812 0 l 1
 153.940429688 669.25 l 1
 275.669921875 669.25 l 1
 279.002929688 0 l 1xb8
264.196289062 355.876953125 m 1
 264.196289062 355.876953125 290.730089704 334.93359375 373.916992188 334.93359375 c 0
 487.119605201 334.93359375 551.916992188 395.921142577 551.916992188 475.93359375 c 0
 551.916992188 563.72248984 489.063645233 617.9921875 353 617.9921875 c 0
 219.214256452 617.9921875 49.26953125 556.427734375 49.26953125 556.427734375 c 5
 18 674.840820312 l 5
 18 674.840820312 122.067681352 738.9921875 366.916992188 738.9921875 c 0xd8
 557.583984375 738.9921875 678.916992188 638.247073955 678.916992188 479.93359375 c 0
 678.916992188 277.467704653 464.740234375 245.040039062 464.740234375 245.040039062 c 1
 701.770507812 69 l 1
 625.770507812 -37 l 1
 225.2578125 285.43359375 l 1
 264.196289062 355.876953125 l 1
EndSplineSet
EndChar

StartChar: five
Encoding: 21 53 67
Width: 581
Flags: W
HStem: -10.0664 108<122.633 355.252> 368.992 103.008<187.758 362.685> 619 112.008<189 499.017>
VStem: 420.917 119<157.193 312.291>
LayerCount: 2
Back
SplineSet
529.016601562 549.0078125 m 5
 239 550 l 29
 224 471 l 21
 224 471 248.642857143 479 316 479 c 4
 492.46964774 479 559.916992188 386.635747331 559.916992188 246.9921875 c 4
 559.916992188 68.1744133844 445.97265625 -10.06640625 266.916992188 -10.06640625 c 4
 85.2246769868 -10.06640625 8 44.0849609375 8 44.0849609375 c 5
 50 207 l 5
 50 207 126.85984585 163.93359375 233.916992188 163.93359375 c 4
 305.791015625 163.93359375 340.916992188 195.456256431 340.916992188 244.9921875 c 4
 340.916992188 289.603298611 303.700683594 317.9921875 230.916992188 317.9921875 c 4
 164.966339317 317.9921875 125.2578125 288.43359375 125.2578125 288.43359375 c 5
 19 392 l 5
 80 731.0078125 l 5
 365 731.0078125 l 5
 362 798.0078125 l 5
 515.016601562 800.0078125 l 5
 529.016601562 549.0078125 l 5
EndSplineSet
Fore
SplineSet
499.016601562 618.0078125 m 1
 189 619 l 1
 159 433 l 5
 159 433 198.107142858 472 305 472 c 4
 464.958306257 472 539.916992188 378.441422213 539.916992188 236.9921875 c 4
 539.916992188 65.1307174514 433.750426621 -10.06640625 266.916992188 -10.06640625 c 0
 99.2594696565 -10.06640625 28 44.0849609375 28 44.0849609375 c 1
 62 145 l 1
 62 145 142.620991595 97.93359375 254.916992188 97.93359375 c 0
 366.422486492 97.93359375 420.916992188 151.233948696 420.916992188 234.9921875 c 4
 420.916992188 316.881076389 372.197460937 368.9921875 276.916992188 368.9921875 c 4
 188.495755025 368.9921875 135.2578125 308.43359375 135.2578125 308.43359375 c 5
 39 372 l 5
 100 731.0078125 l 1
 499.016601562 731.0078125 l 1
 499.016601562 618.0078125 l 1
EndSplineSet
Substitution2: "'onum' Oldstyle Figures lookup 27-1" five.osf
Substitution2: "'ss02' Style Set 2 lookup 10-1" five.ss02
Substitution2: "'frac' Diagonal Fractions in Latin lookup 26 subtable" five.numr
Substitution2: "'dnom' Denominators lookup 0 subtable" five.dnom
Substitution2: "'numr' Numerators lookup 0 subtable" five.numr
Substitution2: "'sinf' Scientific Inferiors lookup 0 subtable" five.inferior
Substitution2: "'sups' Superscript lookup 0 subtable" five.superior
EndChar

StartChar: Z
Encoding: 58 90 68
Width: 601
Flags: W
HStem: 0 124<208.169 553.017> 0 117<208.169 553.017> 608.008 123<48 399.848> 615.008 116<48 399.848>
AnchorPoint: "Anchor-2" 315 0 basechar 0
AnchorPoint: "Anchor-2" 315 0 basechar 0
AnchorPoint: "Anchor-0" 294 731.008 basechar 0
LayerCount: 2
Fore
SplineSet
42 608.0078125 m 5x20
 48 731.0078125 l 5x20
 549.016601562 731.0078125 l 1
 569.016601562 649.0078125 l 1
 208.168945312 117 l 1x50
 559.016601562 124 l 1
 553.016601562 0 l 1x80
 52 0 l 1
 32 82 l 1
 399.84765625 615.0078125 l 1x50
 42 608.0078125 l 5x20
EndSplineSet
EndChar

StartChar: Y
Encoding: 57 89 69
Width: 744
Flags: W
HStem: 0 21G<341.83 484.159>
VStem: 345.623 135.111<0 270.155>
AnchorPoint: "Anchor-2" 413 0 basechar 0
AnchorPoint: "Anchor-2" 413 0 basechar 0
AnchorPoint: "Anchor-0" 411 731.008 basechar 0
AnchorPoint: "Anchor-0" 411 731.008 basechar 0
LayerCount: 2
Fore
SplineSet
345.623046875 270.155273438 m 1
 162.151367188 627 l 5
 47.0458984375 609 l 5
 30 722 l 1
 244.546875 746 l 1
 419.905273438 394.1328125 l 1
 610.904296875 746 l 1
 727.450195312 688 l 1
 480.734375 276.650390625 l 1
 484.159179688 0 l 1
 341.830078125 0 l 1
 345.623046875 270.155273438 l 1
EndSplineSet
Substitution2: "'ss13' Style Set 13 lookup 21-1" Y.ss13
EndChar

StartChar: X
Encoding: 56 88 70
Width: 776
Flags: W
AnchorPoint: "Anchor-2" 425 0 basechar 0
AnchorPoint: "Anchor-2" 425 0 basechar 0
AnchorPoint: "Anchor-0" 422 731.008 basechar 0
LayerCount: 2
Fore
SplineSet
247 745.0078125 m 1
 491 364 l 1
 202 -27 l 1
 88 58 l 1
 339 364 l 1
 175 607.0078125 l 5
 51 576.93359375 l 1
 18 691 l 1
 247 745.0078125 l 1
622 745.0078125 m 1
 746 661.0078125 l 1
 510 364 l 1
 761 58 l 1
 647 -27 l 1
 358 364 l 1
 622 745.0078125 l 1
EndSplineSet
EndChar

StartChar: comma
Encoding: 12 44 71
Width: 270
Flags: W
HStem: -111 281
VStem: 14 215
LayerCount: 2
Fore
SplineSet
128 170 m 25
 229 112 l 29
 81 -111 l 25
 14 -71 l 25
 128 170 l 25
EndSplineSet
EndChar

StartChar: nine
Encoding: 25 57 73
Width: 619
Flags: W
HStem: -20 112.459<129.154 244.8> 245.266 98.7178<223.539 384.593> 630.134 108.858<222.285 383.683>
VStem: 40 119.691<407.119 568.196> 446.941 131.375<409.244 564.916>
LayerCount: 2
Fore
SplineSet
130.005859375 -20 m 1
 116.31640625 92.458984375 l 1
 436.145793612 110.378452058 447.858398438 312.059570312 447.858398438 312.059570312 c 1
 447.858398438 312.059570312 400.952399405 245.265625 273.715820312 245.265625 c 0
 138.752676021 245.265625 40 340.173034702 40 483.743164062 c 0
 40 618.193352346 113.221046158 738.9921875 303.005859375 738.9921875 c 0
 467.876247547 738.9921875 578.31640625 636.598632812 578.31640625 422.643554688 c 0
 578.31640625 209.85546875 470.92653871 0.528320312477 130.005859375 -20 c 1
446.94140625 486.133789062 m 0
 446.94140625 574.134676847 391.077742633 630.133789062 303.291015625 630.133789062 c 0
 215.535326019 630.133789062 159.69140625 574.134676847 159.69140625 486.133789062 c 0
 159.69140625 399.264105903 215.535326019 343.983398438 303.291015625 343.983398438 c 0
 391.077742633 343.983398438 446.94140625 399.264105903 446.94140625 486.133789062 c 0
EndSplineSet
Substitution2: "'onum' Oldstyle Figures lookup 27-1" nine.osf
Substitution2: "'frac' Diagonal Fractions in Latin lookup 26 subtable" nine.numr
Substitution2: "'dnom' Denominators lookup 0 subtable" nine.dnom
Substitution2: "'numr' Numerators lookup 0 subtable" nine.numr
Substitution2: "'sinf' Scientific Inferiors lookup 0 subtable" nine.inferior
Substitution2: "'sups' Superscript lookup 0 subtable" nine.superior
EndChar

StartChar: at
Encoding: 32 64 74
Width: 925
Flags: W
HStem: -159.727 90.877<337.943 667.601> 48.4209 96.6357<373.929 519.781 687.818 779.438> 398.86 94.6455<373.929 519.781> 619.433 88.2939<331.39 605.307>
VStem: 30 98<139.463 404.132> 217.529 107.595<195.552 348.704> 568.856 106.911<194.886 333.378> 576.985 64.3086<127.216 383.729> 804.404 90.8828<171.055 419.542>
LayerCount: 2
Back
SplineSet
365.124023438 363.1875 m 4
 365.124023438 312.997070312 392.912109375 281.056640625 436.578125 281.056640625 c 4
 480.749023438 281.056640625 508.856445312 312.997070312 508.856445312 363.1875 c 4
 508.856445312 411.876953125 480.749023438 442.860351562 436.578125 442.860351562 c 4
 392.912109375 442.860351562 365.124023438 411.876953125 365.124023438 363.1875 c 4
207.529296875 362.254882812 m 4
 207.529296875 497.463867188 289.260742188 583.505859375 417.694335938 583.505859375 c 4
 542.1171875 583.505859375 621.293945312 489.212890625 621.293945312 341.037109375 c 4
 621.293945312 217.215820312 542.1171875 138.420898438 417.694335938 138.420898438 c 4
 289.260742188 138.420898438 207.529296875 225.466796875 207.529296875 362.254882812 c 4
482.713867188 -69.7265625 m 4
 196.205078125 -69.7265625 20 94.120869497 20 358.08984375 c 4
 20 614.04161915 179.602962903 797.7265625 458.420898438 797.7265625 c 4
 719.309753403 797.7265625 905.287109375 654.481445312 905.287109375 383.712890625 c 4
 905.287109375 234.838867187 845.620117188 138.420898438 718.064453125 138.420898438 c 4
 609.642578125 138.420898438 536.985351562 205.224609375 536.985351562 370.025390625 c 4xbec0
 536.985351562 473.729492188 566.369140625 581.030273438 566.369140625 581.030273438 c 5
 721.677734375 569.944335938 l 5
 721.677734375 569.944335938 689.767578125 428.384765625 689.767578125 333.604492188 c 4
 689.767578125 282.138671875 704.185546875 254.978515625 740.811523438 254.978515625 c 4xbf40
 782.825195312 254.978515625 804.404296875 305.185546875 804.404296875 383.712890625 c 4
 804.404296875 614.064453125 662.40625 699.432617188 459.420898438 699.432617188 c 4
 248.553710938 699.432617188 128 560.595703125 128 361.93359375 c 4
 128 157.513671875 252.708984375 31.150390625 483.713867188 31.150390625 c 4
 665.813476562 31.150390625 793 94 793 94 c 5
 818.250976562 5.7744140625 l 5
 818.250976562 5.7744140625 708.095703125 -69.7265625 482.713867188 -69.7265625 c 4
EndSplineSet
Fore
SplineSet
325.124023438 273.1875 m 0xfe80
 325.124023438 194.886323837 372.356819566 145.056640625 446.578125 145.056640625 c 0
 521.305141959 145.056640625 568.856445312 194.886323837 568.856445312 273.1875 c 0
 568.856445312 349.988346151 521.305141959 398.860351562 446.578125 398.860351562 c 0
 372.356819566 398.860351562 325.124023438 349.988346151 325.124023438 273.1875 c 0xfe80
217.529296875 272.254882812 m 0
 217.529296875 407.463867188 301.20520083 493.505859375 432.694335938 493.505859375 c 0
 560.172764373 493.505859375 641.293945312 399.212890625 641.293945312 251.037109375 c 0xfd80
 641.293945312 127.215820312 560.172764373 48.4208984375 432.694335938 48.4208984375 c 0
 301.20520083 48.4208984375 217.529296875 135.466796875 217.529296875 272.254882812 c 0
482.713867188 -159.7265625 m 0
 202.396999513 -159.7265625 30 4.12109375 30 268.08984375 c 0
 30 524.041992188 185.962143733 707.7265625 458.420898438 707.7265625 c 0
 713.471387306 707.7265625 895.287109375 564.481445312 895.287109375 293.712890625 c 0
 895.287109375 144.838867188 838.807070807 48.4208984375 718.064453125 48.4208984375 c 0
 633.592746657 48.4208984375 576.985351562 115.224609375 576.985351562 280.025390625 c 0xfd80
 576.985351562 383.729492188 601.369140625 491.030273438 601.369140625 491.030273438 c 1
 702.677734375 481.944335938 l 1
 702.677734375 481.944335938 675.767578125 333.378206925 675.767578125 234.604492188 c 0xfe80
 675.767578125 172.797158206 694.185546875 138.978515625 730.811523438 138.978515625 c 4
 779.431869247 138.978515625 804.404296875 191.525576005 804.404296875 273.712890625 c 0
 804.404296875 525.952685926 662.40625 619.432617188 459.420898438 619.432617188 c 0
 248.553710938 619.432617188 128 476.482004879 128 271.93359375 c 0
 128 61.3337957524 252.708984375 -68.849609375 483.713867188 -68.849609375 c 0
 665.813476562 -68.849609375 793 -6 793 -6 c 1
 818.250976562 -84.2255859375 l 1
 818.250976562 -84.2255859375 708.095703125 -159.7265625 482.713867188 -159.7265625 c 0
EndSplineSet
EndChar

StartChar: percent
Encoding: 5 37 75
Width: 889
Flags: W
HStem: -10 99.5576<616.118 732.193> 271.225 99.6543<616.118 734.536> 358.113 99.5576<156.118 272.193> 639.338 99.6543<156.118 274.536>
VStem: 24.5205 103.304<486.217 611.742> 300.784 103.336<486.994 610.98> 484.521 103.304<118.104 243.629> 760.784 103.336<118.881 242.867>
LayerCount: 2
Fore
SplineSet
587.82421875 181.256835938 m 0xdf
 587.82421875 125.218555399 621.342462455 89.5576171875 674.015625 89.5576171875 c 0
 727.040923253 89.5576171875 760.784179688 125.218555399 760.784179688 181.256835938 c 0
 760.784179688 236.237406767 727.040923253 271.224609375 674.015625 271.224609375 c 0
 621.342462455 271.224609375 587.82421875 236.237406767 587.82421875 181.256835938 c 0xdf
484.520507812 181.399414062 m 0
 484.520507812 297.192737064 558.206676998 370.87890625 674 370.87890625 c 0
 790.184715955 370.87890625 864.120117188 297.192737064 864.120117188 181.399414062 c 0
 864.120117188 64.4329057751 790.184715955 -10 674 -10 c 0
 558.206676998 -10 484.520507812 64.4329057751 484.520507812 181.399414062 c 0
127.82421875 549.370117188 m 0
 127.82421875 493.331836649 161.342462455 457.670898438 214.015625 457.670898438 c 0xbf
 267.040923253 457.670898438 300.784179688 493.331836649 300.784179688 549.370117188 c 0
 300.784179688 604.350688017 267.040923253 639.337890625 214.015625 639.337890625 c 0
 161.342462455 639.337890625 127.82421875 604.350688017 127.82421875 549.370117188 c 0
24.5205078125 549.512695312 m 0
 24.5205078125 665.306018314 98.2066769982 738.9921875 214 738.9921875 c 0
 330.184715955 738.9921875 404.120117188 665.306018314 404.120117188 549.512695312 c 0
 404.120117188 432.546187025 330.184715955 358.11328125 214 358.11328125 c 0
 98.2066769982 358.11328125 24.5205078125 432.546187025 24.5205078125 549.512695312 c 0
EndSplineSet
Refer: 168 8260 N 1 0 0 1 304 0 2
EndChar

StartChar: ampersand
Encoding: 6 38 76
Width: 715
Flags: W
HStem: -9.99805 109.998<219.33 441.178> 289 108<504 674> 313 105<253.453 355> 637 108<276.82 375.648>
VStem: 40 133<141.416 265.171> 58 126<470.106 574.314> 443 130<121 289 397 552> 447 119<121 552>
LayerCount: 2
Fore
SplineSet
675 397 m 1xd0
 674 285 l 1
 499 289 l 1
 504 397 l 1
 675 397 l 1xd0
375 745 m 1
 385 637 l 1
 302.109589041 628.518654289 184 602.789040056 184 524.93359375 c 0xb4
 184 468.958937524 234.225317972 427.087042404 357 418 c 1
 355 313 l 5
 238.333333333 305.183098592 173 284.85915493 173 202 c 0
 173 140.131147541 218 100 323 100 c 0
 407.943820225 100 443 121 443 121 c 1xba
 447 555 l 1
 566 552 l 1xb1
 573 43 l 1
 573 43 481.974153162 -9.998046875 320 -9.998046875 c 0
 156.745762712 -9.998046875 40 48.9660983365 40 201 c 0xba
 40 344.633280924 188 372 188 372 c 1
 188 372 58 405.790745622 58 530 c 0xb4
 58 638.533653846 141.370030581 728.461538462 375 745 c 1
EndSplineSet
Substitution2: "'ss18' Style Set 18 lookup 30-1" ampersand.ss18
Substitution2: "'ss09' Style Set 9 lookup 17-1" ampersand.ss09
EndChar

StartChar: two
Encoding: 18 50 77
Width: 595
Flags: W
HStem: 0 116<272.152 551> 621 118<160.611 353.037>
VStem: 409.364 125.6<393.782 564.894>
LayerCount: 2
Fore
SplineSet
272.15234375 116 m 1
 555 122 l 1
 551 0 l 1
 49.9833984375 0 l 1
 39.9833984375 80 l 1
 39.9833984375 80 409.364257812 276.372895598 409.364257812 479 c 4
 409.364257812 574.569393382 355.209738533 621 263.955078125 621 c 0
 152.849619557 621 86.4638671875 552 86.4638671875 552 c 1
 36.5634765625 663 l 1
 36.5634765625 663 128.228685015 739 282.03125 739 c 0
 445.503132853 739 534.963867188 646.292324216 534.963867188 498.93359375 c 4
 534.963867188 257.225044808 272.15234375 116 272.15234375 116 c 1
EndSplineSet
Substitution2: "'onum' Oldstyle Figures lookup 27-1" two.osf
Substitution2: "'frac' Diagonal Fractions in Latin lookup 26 subtable" two.numr
Substitution2: "'dnom' Denominators lookup 0 subtable" two.dnom
Substitution2: "'numr' Numerators lookup 0 subtable" two.numr
Substitution2: "'sinf' Scientific Inferiors lookup 0 subtable" two.inferior
Substitution2: "'sups' Superscript lookup 0 subtable" two.superior
EndChar

StartChar: three.ss01
Encoding: 736 -1 78
Width: 579
Flags: W
HStem: -10.0664 174<98.0262 316.557> 297.992 149.941<145.272 303.429> 521.428 21G<57.5099 62.2695> 565.992 173<109.638 300.544>
VStem: 317.917 223<465.034 548.471> 340.917 219<188.942 278.44>
LayerCount: 2
Fore
SplineSet
50 204 m 1xf4
 50 204 126.85984585 163.93359375 233.916992188 163.93359375 c 0
 305.791015625 163.93359375 340.916992188 191.567382812 340.916992188 234.9921875 c 0xf4
 340.916992188 273.4921875 308.850585938 297.9921875 236.916992188 297.9921875 c 0
 164.724609375 297.9921875 145.2578125 291.43359375 145.2578125 291.43359375 c 1
 145.196289062 451.876953125 l 1
 145.196289062 451.876953125 163.407226562 447.93359375 222.916992188 447.93359375 c 0
 290.407226562 447.93359375 317.916992188 470.322265625 317.916992188 503.93359375 c 0
 317.916992188 542.469726562 288.416992188 565.9921875 221.916992188 565.9921875 c 0
 125.625976562 565.9921875 62.26953125 521.427734375 62.26953125 521.427734375 c 1
 21 694.840820312 l 1
 21 694.840820312 92.2587890625 738.9921875 259.916992188 738.9921875 c 0
 434.083984375 738.9921875 540.916992188 663.358398438 540.916992188 542.93359375 c 0xf8
 540.916992188 418.620117188 426.275390625 384.96875 426.275390625 384.96875 c 1
 426.275390625 384.96875 559.916992188 354.49609375 559.916992188 196.9921875 c 0
 559.916992188 70.4560546875 445.97265625 -10.06640625 266.916992188 -10.06640625 c 0
 85.2246769868 -10.06640625 8 34.0849609375 8 34.0849609375 c 1
 50 204 l 1xf4
EndSplineSet
Validated: 1
Substitution2: "'subs' Subscript lookup 0 subtable" three.ss01.subscript
Substitution2: "'sinf' Scientific Inferiors lookup 0 subtable" three.ss01.inferior
Substitution2: "'sups' Superscript lookup 0 subtable" three.ss01.superior
EndChar

StartChar: four
Encoding: 20 52 79
Width: 679
Flags: W
HStem: 0 21G<396 516.329> 192.12 102.96<184.72 633.76>
LayerCount: 2
Fore
SplineSet
510.899414062 629.93359375 m 5
 516.329101562 0 l 5
 396 0 l 5
 402.169921875 629.93359375 l 5
 510.899414062 629.93359375 l 5
368.559570312 752.280273438 m 5
 462.759765625 697.400390625 l 5
 184.719726562 295.080078125 l 1
 635.639648438 294.959960938 l 1
 633.759765625 189.6796875 l 1
 54.759765625 192.120117188 l 1
 33.5595703125 250.360351562 l 1
 368.559570312 752.280273438 l 5
EndSplineSet
Substitution2: "'onum' Oldstyle Figures lookup 27-1" four.osf
Substitution2: "'frac' Diagonal Fractions in Latin lookup 26 subtable" four.numr
Substitution2: "'dnom' Denominators lookup 0 subtable" four.dnom
Substitution2: "'numr' Numerators lookup 0 subtable" four.numr
Substitution2: "'sinf' Scientific Inferiors lookup 0 subtable" four.inferior
Substitution2: "'sups' Superscript lookup 0 subtable" four.superior
EndChar

StartChar: seven
Encoding: 23 55 80
Width: 568
Flags: W
HStem: 611.713 119.295<163 413.848>
LayerCount: 2
Fore
SplineSet
27 449.0078125 m 1
 52 731.0078125 l 1
 517.016601562 731.0078125 l 1
 557.016601562 663.0078125 l 1
 296 -16 l 1
 176 24 l 5
 413.84765625 613.0078125 l 5
 163 611.712890625 l 1
 146 441 l 1
 27 449.0078125 l 1
EndSplineSet
Substitution2: "'onum' Oldstyle Figures lookup 27-1" seven.osf
Substitution2: "'frac' Diagonal Fractions in Latin lookup 26 subtable" seven.numr
Substitution2: "'dnom' Denominators lookup 0 subtable" seven.dnom
Substitution2: "'numr' Numerators lookup 0 subtable" seven.numr
Substitution2: "'sinf' Scientific Inferiors lookup 0 subtable" seven.inferior
Substitution2: "'sups' Superscript lookup 0 subtable" seven.superior
EndChar

StartChar: dollar
Encoding: 4 36 81
Width: 408
Flags: W
HStem: 0 21G<168 265> 719 20G<133 230>
VStem: 40 114.432<447.726 510.104> 142 81<574 702.333> 175 81<36.6667 165> 252.438 115.852<239.014 312.051>
LayerCount: 2
Fore
SplineSet
265 0 m 1xc8
 168 0 l 1
 175 165 l 1
 256 165 l 1
 265 0 l 1xc8
133 739 m 1
 230 739 l 1
 223 574 l 1
 142 574 l 1xd0
 133 739 l 1
287.302734375 645.848632812 m 1
 301.232421875 553.830078125 l 1
 301.232421875 553.830078125 154.431640625 535.103975514 154.431640625 477.092773438 c 0
 154.431640625 449.863718616 191.345786891 438.528198451 277.732421875 399.959960938 c 0
 342.200329869 371.177573616 368.2890625 339.268966603 368.2890625 285.793945312 c 0
 368.2890625 106.058561546 93.0390625 87.0791015625 93.0390625 87.0791015625 c 1
 81.5693359375 196.671875 l 1
 81.5693359375 196.671875 252.4375 204.779730617 252.4375 277.923828125 c 0
 252.4375 309.531296541 217.397435896 325.320245551 142.036132812 351.897460938 c 0
 65.007673595 379.062622204 40 414.674128878 40 466.14453125 c 0xe4
 40 630.435803231 287.302734375 645.848632812 287.302734375 645.848632812 c 1
EndSplineSet
EndChar

StartChar: quotesingle
Encoding: 7 39 82
Width: 256
Flags: W
HStem: 465 300<87 163>
VStem: 87 76<465 537.414>
LayerCount: 2
Fore
SplineSet
64 765 m 25
 192 765 l 25
 163 465 l 25
 87 465 l 25
 64 765 l 25
EndSplineSet
EndChar

StartChar: quotedbl
Encoding: 2 34 83
Width: 462
VWidth: 1111
Flags: W
HStem: 455 311
VStem: 91 75<460 495.654> 274 82<458 490.082>
LayerCount: 2
Fore
SplineSet
39 757 m 1
 171 766 l 1
 166 460 l 1
 91 455 l 1
 39 757 l 1
281 765 m 1
 417 753 l 1
 356 456 l 1
 274 458 l 1
 281 765 l 1
EndSplineSet
EndChar

StartChar: plus
Encoding: 11 43 84
Width: 450
Flags: W
HStem: 323 94<21 275>
VStem: 183.5 87<291 569.5>
LayerCount: 2
Fore
SplineSet
277.5 569.5 m 1
 270.5 391.5 l 1
 276.5 158.5 l 1
 167.5 160.5 l 1
 183.5 392.5 l 1
 176.5 572.5 l 1
 277.5 569.5 l 1
21 417 m 1
 223 414 l 1
 432 420 l 1
 431 311 l 1
 223 327 l 1
 19 323 l 1
 21 417 l 1
EndSplineSet
EndChar

StartChar: minus
Encoding: 719 8722 85
Width: 450
Flags: W
HStem: 275 112<90.5 402> 283 103<48 357.5>
LayerCount: 2
Fore
SplineSet
48 386 m 5x40
 404 387 l 5
 402 275 l 5x80
 46 283 l 5
 48 386 l 5x40
EndSplineSet
EndChar

StartChar: question
Encoding: 31 63 86
Width: 437
Flags: W
HStem: -10 148<90.8537 201.146> 215.635 185.839<97.0129 193.881> 640 105.384<59.1292 150.483>
VStem: 72 148<8.85374 119.146> 97 100.327<215.635 306> 278 119<439.143 564.185>
LayerCount: 2
Fore
SplineSet
40 640 m 1xec
 60.490234375 745.383789062 l 1
 291.260692181 712.414266652 397 638.8046875 397 497.010742188 c 0
 397 383.030283096 311.071421156 329.616903059 232 311 c 0
 212.431023801 306.392599152 197.327148438 306 197.327148438 306 c 1
 194 210 l 1
 194 210 180.136986301 215.634765625 148 215.634765625 c 0
 114.653846154 215.634765625 97 208 97 208 c 1
 92.9052734375 402 l 1
 92.9052734375 402 112.659978428 401.473632812 152 401.473632812 c 0
 225.384615385 401.473632812 278 429.740896111 278 505 c 0
 278 582.263706751 194.565349041 621.174305995 40 640 c 1xec
72 64 m 0xf4
 72 109.222514205 100.777485795 138 146 138 c 0
 191.222514205 138 220 109.222514205 220 64 c 4
 220 18.7774857955 191.222514205 -10 146 -10 c 0
 100.777485795 -10 72 18.7774857955 72 64 c 0xf4
EndSplineSet
EndChar

StartChar: parenleft
Encoding: 8 40 87
Width: 361
Flags: W
VStem: 40 111.137<117.144 477.727>
LayerCount: 2
Fore
SplineSet
151.13671875 300.836914062 m 0
 151.13671875 7.97921376286 300 -148.994140625 300 -148.994140625 c 5
 220 -198.994140625 l 1
 220 -198.994140625 40 -37 40 301.005859375 c 0
 40 613 220 791.001953125 220 791.001953125 c 1
 300 741.001953125 l 1
 300 741.001953125 151.13671875 590.145457631 151.13671875 300.836914062 c 0
EndSplineSet
EndChar

StartChar: parenright
Encoding: 9 41 88
Width: 361
Flags: W
VStem: 209.863 111.137<114.281 474.864>
LayerCount: 2
Fore
SplineSet
209.86328125 291.170898438 m 0
 209.86328125 584.028598737 61 741.001953125 61 741.001953125 c 1
 141 791.001953125 l 1
 141 791.001953125 321 629.0078125 321 291.001953125 c 0
 321 -20.9921875 141 -198.994140625 141 -198.994140625 c 1
 61 -148.994140625 l 5
 61 -148.994140625 209.86328125 1.86235486947 209.86328125 291.170898438 c 0
EndSplineSet
EndChar

StartChar: bracketleft
Encoding: 59 91 89
Width: 394
Flags: W
HStem: -190 86<163.747 361.824> 697 94.0107<160.672 352.395>
VStem: 50 113.747<-104 697>
LayerCount: 2
Fore
SplineSet
352.39453125 791.010742188 m 1
 358.665039062 696 l 1
 160.671875 697 l 1
 163.747070312 -104 l 5
 364.806640625 -102 l 5
 361.82421875 -190 l 1
 50 -190 l 1
 52.69140625 791.010742188 l 1
 352.39453125 791.010742188 l 1
EndSplineSet
EndChar

StartChar: bracketright
Encoding: 61 93 90
Width: 394
Flags: W
HStem: -190 88<32.9824 231.06> 696 95.0107<42.4121 234.135>
VStem: 231.06 113.747<-106 699>
LayerCount: 2
Fore
SplineSet
42.412109375 791.010742188 m 1
 342.115234375 791.010742188 l 1
 344.806640625 -190 l 1
 32.982421875 -190 l 1
 30 -102 l 1
 231.059570312 -106 l 1
 234.134765625 699 l 1
 36.1416015625 696 l 1
 42.412109375 791.010742188 l 1
EndSplineSet
EndChar

StartChar: less
Encoding: 28 60 91
Width: 450
Flags: W
LayerCount: 2
Fore
SplineSet
199.37109375 341.5 m 1
 415.349609375 221 l 5
 365.349609375 122 l 5
 34.650390625 332 l 1
 365.349609375 561 l 5
 415.349609375 462 l 5
 199.37109375 341.5 l 1
EndSplineSet
EndChar

StartChar: greater
Encoding: 30 62 92
Width: 450
Flags: W
LayerCount: 2
Fore
SplineSet
250.62890625 345.5 m 1
 34.650390625 462 l 1
 84.650390625 561 l 5
 415.349609375 351 l 1
 84.650390625 122 l 5
 34.650390625 221 l 1
 250.62890625 345.5 l 1
EndSplineSet
EndChar

StartChar: asciicircum
Encoding: 62 94 93
Width: 392
Flags: W
HStem: 416 332
LayerCount: 2
Fore
SplineSet
194 748 m 25
 387 472 l 29
 309 416 l 25
 195 600 l 25
 89 422 l 25
 5 466 l 25
 194 748 l 25
EndSplineSet
EndChar

StartChar: asterisk
Encoding: 10 42 94
Width: 401
Flags: W
LayerCount: 2
Fore
SplineSet
150.857421875 765 m 1
 248.857421875 765 l 1
 240.416992188 649.537109375 l 1
 346.330078125 687.889648438 l 1
 370.1640625 596.8046875 l 1
 255.74609375 570.580078125 l 1
 335.087890625 469.75 l 1
 260.510742188 420.079101562 l 1
 201.842773438 515.431640625 l 1
 142.2734375 420.079101562 l 1
 68.6962890625 469.75 l 1
 148.038085938 570.580078125 l 1
 31 605.254882812 l 1
 60.8681640625 687.889648438 l 1
 163.368164062 649.537109375 l 1
 150.857421875 765 l 1
EndSplineSet
EndChar

StartChar: sterling
Encoding: 97 163 95
Width: 576
Flags: W
HStem: 0 111.293<189.064 536.539> 275 112<164 416> 286 97<24 272>
VStem: 53.4297 135.635<111.293 227.921>
LayerCount: 2
Fore
SplineSet
24 383 m 1xb0
 420 387 l 1
 416 275 l 1xd0
 20 286 l 1
 24 383 l 1xb0
189.064453125 111.29296875 m 1
 540.159179688 112.930664062 l 1
 536.5390625 0 l 1
 53.4296875 0 l 1
 74.4187518606 452.125433501 165.496678415 643.005046291 451.930664062 747.6640625 c 1
 488.798828125 639.354492188 l 5
 299.067835543 570.708196146 200.944357369 416.352364698 189.064453125 111.29296875 c 1
EndSplineSet
EndChar

StartChar: braceleft
Encoding: 91 123 96
Width: 474
Flags: W
HStem: -199.681 102.12<239.515 426.084> 250.602 100.4<30.0291 154.724> 698.927 102.12<239.438 426.081>
VStem: 93.3398 120.227<-71.889 61.6681 534.953 672.137> 162.296 110.451<116.578 241.618 357.326 462.424>
LayerCount: 2
Fore
SplineSet
296.986328125 801.046875 m 0xf0
 388.712128346 801.046875 442.4609375 773.2265625 442.4609375 773.2265625 c 1
 423.530273438 681.016601562 l 1
 423.530273438 681.016601562 381.040975284 698.926757812 320.157226562 698.926757812 c 0
 249.876691637 698.926757812 213.56640625 674.155008406 213.56640625 612 c 0xf0
 213.56640625 529.126226914 275.350585938 516.16242805 275.350585938 389.743164062 c 0
 275.350585938 320.680364452 209.905273438 296.681640625 209.905273438 296.681640625 c 1
 209.905273438 296.681640625 272.747070312 266.810162193 272.747070312 204.143554688 c 0xe8
 272.747070312 115.240148896 213.56640625 85.049227421 213.56640625 -9 c 0
 213.56640625 -73.0260605574 250.301665717 -97.560546875 320.157226562 -97.560546875 c 0
 390.174018954 -97.560546875 423.530273438 -79.650390625 423.530273438 -79.650390625 c 1
 442.4609375 -171.860351562 l 1
 442.4609375 -171.860351562 388.712128346 -199.680664062 296.986328125 -199.680664062 c 0
 166.317302245 -199.680664062 93.33984375 -145.895507812 93.33984375 -39 c 0xf0
 93.33984375 68.4997648532 162.295898438 118.28413915 162.295898438 198.765625 c 0
 162.295898438 235.359328498 139.971931434 250.6015625 103.743164062 250.6015625 c 4
 66.4091796877 250.6015625 30 248.721679688 30 248.721679688 c 1
 30 355 l 1
 30 355 69.9648437499 351.001953125 108.982421875 351.001953125 c 4
 140.293871998 351.001953125 162.295898438 362.186768395 162.295898438 393.12109375 c 0xe8
 162.295898438 463.240850967 93.33984375 493.804591507 93.33984375 622 c 0
 93.33984375 733.947265625 166.317302245 801.046875 296.986328125 801.046875 c 0xf0
EndSplineSet
EndChar

StartChar: braceright
Encoding: 93 125 97
Width: 474
Flags: W
HStem: -199.681 102.12<47.9193 236.133> 250.364 102.4<315.717 443.967> 698.927 102.12<47.916 236.062>
VStem: 198.649 113.055<146.976 246.762 357.926 479.665> 260.434 120.227<-74.5172 67.1506 536.512 674.72>
LayerCount: 2
Fore
SplineSet
177.013671875 -199.680664062 m 0xe8
 85.2878716539 -199.680664062 31.5390625 -171.860351562 31.5390625 -171.860351562 c 1
 50.4697265625 -79.650390625 l 1
 50.4697265625 -79.650390625 92.9590247154 -97.560546875 153.842773438 -97.560546875 c 0
 224.123308363 -97.560546875 260.43359375 -75.638524069 260.43359375 -20.6337890625 c 0xe8
 260.43359375 65.9687230179 198.649414062 109.515801979 198.649414062 211.623046875 c 0xf0
 198.649414062 280.685846486 264.094726562 304.684570312 264.094726562 304.684570312 c 1
 264.094726562 304.684570312 201.252929688 334.556048745 201.252929688 397.22265625 c 0
 201.252929688 490.297119708 260.43359375 521.904500691 260.43359375 620.366210938 c 0
 260.43359375 677.162634505 223.698334283 698.926757812 153.842773438 698.926757812 c 0
 83.825981045 698.926757812 50.4697265625 681.016601562 50.4697265625 681.016601562 c 1
 31.5390625 773.2265625 l 1
 31.5390625 773.2265625 85.2878716539 801.046875 177.013671875 801.046875 c 0
 307.682697755 801.046875 380.66015625 747.26171875 380.66015625 640.366210938 c 0xe8
 380.66015625 529.249446701 311.704101562 477.789998497 311.704101562 394.600585938 c 4
 311.704101562 365.06640625 330.215442692 352.764648438 360.256835938 352.764648438 c 4
 402.653524747 352.764648438 444 354.64453125 444 354.64453125 c 5
 444 246.366210938 l 1
 444 246.366210938 398.975189387 250.364257812 355.017578125 250.364257812 c 0
 329.579211534 250.364257812 311.704101562 241.834960938 311.704101562 218.245117188 c 0xf0
 311.704101562 145.061741817 380.66015625 113.162633984 380.66015625 -20.6337890625 c 0
 380.66015625 -132.581054688 307.682697755 -199.680664062 177.013671875 -199.680664062 c 0xe8
EndSplineSet
EndChar

StartChar: cent
Encoding: 96 162 98
Width: 391
Flags: W
HStem: 0 21G<198 295> 158.934 55.0664<205 286> 524 52.9336<203 284> 719 20G<194 291>
VStem: 40 109<291.542 442.474> 198 97<0 91.7143 610 739> 205 81<95.1111 214 524 660.818>
LayerCount: 2
Fore
SplineSet
295 0 m 1xfc
 198 0 l 1xfc
 205 214 l 1
 286 214 l 1xfa
 295 0 l 1xfc
194 739 m 1
 291 739 l 1
 284 524 l 1
 203 524 l 1
 194 739 l 1
40 369.93359375 m 0
 40 496.433681147 116.611027936 576.93359375 237 576.93359375 c 0
 341.501103034 576.93359375 385.916992188 534.782226562 385.916992188 534.782226562 c 1
 355.647460938 458.369140625 l 1
 355.647460938 458.369140625 315.47151381 481.93359375 253 481.93359375 c 0
 189.444055316 481.93359375 149 438.378664627 149 369.93359375 c 0
 149 296.599999999 185.548614644 249.93359375 265 249.93359375 c 0
 338.345425499 249.93359375 379.1484375 275.364257812 379.1484375 275.364257812 c 1
 401.146484375 191.31640625 l 1
 401.146484375 191.31640625 343.572391561 158.93359375 247 158.93359375 c 0
 120.499912603 158.93359375 40 240.988532903 40 369.93359375 c 0
EndSplineSet
EndChar

StartChar: asciitilde
Encoding: 94 126 99
Width: 524
Flags: W
HStem: 236.96 225.04
LayerCount: 2
Fore
SplineSet
356.321289062 344.168945312 m 5
 475.98046875 427.280273438 l 1
 523.66015625 349 l 1
 350.280273438 236.959960938 l 1
 178.33984375 349.791015625 l 1
 59.6806640625 256.6796875 l 1
 1 329.959960938 l 1
 176.380859375 462 l 1
 356.321289062 344.168945312 l 5
EndSplineSet
EndChar

StartChar: numbersign
Encoding: 3 35 100
Width: 704
Flags: W
HStem: 194 100<248.364 648> 205 85<24 419.636> 446 100<288 680> 457 85<68 456> 718.008 20G<239.088 337 499.088 597>
LayerCount: 2
Fore
SplineSet
24 290 m 1x48
 652 294 l 1
 648 194 l 5x88
 20 205 l 5
 24 290 l 1x48
68 542 m 1x18
 684 546 l 1
 680 446 l 5x28
 64 457 l 5
 68 542 l 1x18
360 7 m 1
 503 738.0078125 l 1
 597 724.0078125 l 1
 464 -7 l 1
 360 7 l 1
100 7 m 1
 243 738.0078125 l 1
 337 724.0078125 l 1
 204 -7 l 1
 100 7 l 1
EndSplineSet
EndChar

StartChar: five.ss02
Encoding: 737 -1 101
Width: 581
Flags: W
HStem: -10.0664 174<103.48 311.019> 317.992 161.008<224.416 410.617> 550 181.008<239 365>
VStem: 340.917 219<190.952 292.134>
LayerCount: 2
Fore
SplineSet
529.016601562 549.0078125 m 1
 239 550 l 25
 224 461 l 21
 224 461 251.321428572 479 326 479 c 0
 495.23482387 479 559.916992188 386.635747331 559.916992188 246.9921875 c 0
 559.916992188 68.1744133844 445.97265625 -10.06640625 266.916992188 -10.06640625 c 0
 85.2246769868 -10.06640625 8 44.0849609375 8 44.0849609375 c 1
 50 207 l 1
 50 207 126.85984585 163.93359375 233.916992188 163.93359375 c 0
 305.791015625 163.93359375 340.916992188 195.456256431 340.916992188 244.9921875 c 0
 340.916992188 289.603298611 303.700683594 317.9921875 230.916992188 317.9921875 c 0
 164.966339317 317.9921875 125.2578125 288.43359375 125.2578125 288.43359375 c 1
 19 382 l 1
 80 731.0078125 l 1
 365 731.0078125 l 1
 362 798.0078125 l 1
 515.016601562 800.0078125 l 1
 529.016601562 549.0078125 l 1
EndSplineSet
Substitution2: "'subs' Subscript lookup 0 subtable" five.ss02.subscript
Substitution2: "'sinf' Scientific Inferiors lookup 0 subtable" five.ss02.inferior
Substitution2: "'sups' Superscript lookup 0 subtable" five.ss02.superior
EndChar

StartChar: yen
Encoding: 99 165 102
Width: 744
Flags: W
HStem: 0 21G<341.83 484.159> 117.712 90<183 448.283> 255.712 99<436.125 646> 263 83.7119<185 611.835> 263.712 90<185 406>
VStem: 345.623 135.111<0 270.155>
LayerCount: 2
Fore
SplineSet
183 207.711914062 m 5xc4
 404 206.711914062 l 5
 645 208.711914062 l 5
 644 109.711914062 l 5
 395 123 l 5
 182 117.711914062 l 5
 183 207.711914062 l 5xc4
185 353.711914062 m 1xcc
 406 346.711914062 l 1xd4
 647 354.711914062 l 1
 646 255.711914062 l 1xe4
 397 263 l 1xd4
 184 263.711914062 l 1
 185 353.711914062 l 1xcc
EndSplineSet
Refer: 69 89 N 1 0 0 1 0 0 2
EndChar

StartChar: brokenbar
Encoding: 100 166 103
Width: 246
Flags: W
VStem: 72.3164 101.975<-170 239.44 355.92 788.992>
LayerCount: 2
Back
SplineSet
188.022460938 355.919921875 m 5
 58.7568359375 355.919921875 l 5
 31.169921875 788.9921875 l 5
 215.899414062 788.9921875 l 5
 188.022460938 355.919921875 l 5
189.291015625 239.440429688 m 5
 221.329101562 -170 l 5
 25 -170 l 5
 57.31640625 239.440429688 l 5
 189.291015625 239.440429688 l 5
EndSplineSet
Fore
SplineSet
173.022460938 355.919921875 m 1
 73.7568359375 355.919921875 l 5
 76.169921875 788.9921875 l 5
 170.899414062 788.9921875 l 1
 173.022460938 355.919921875 l 1
174.291015625 239.440429688 m 1
 176.329101562 -170 l 1
 70 -170 l 5
 72.31640625 239.440429688 l 5
 174.291015625 239.440429688 l 1
EndSplineSet
EndChar

StartChar: section
Encoding: 101 167 104
Width: 609
Flags: W
LayerCount: 2
Fore
SplineSet
69.890625 438.674804688 m 1
 119.677734375 358.076217315 202.94182757 329.322431183 326.131835938 288.893554688 c 4
 451.97265625 247.594726562 504.102539062 185.8046875 504.102539062 102.5 c 0
 504.102539062 -108.239257812 175.088867188 -114.163085938 175.088867188 -114.163085938 c 1
 156.552734375 41.9765625 l 1
 156.552734375 41.9765625 280.00390625 42.232421875 280.00390625 94.279296875 c 0
 280.00390625 114.564453125 268.068149111 132.684818932 198.58984375 165.873046875 c 0
 98.647460938 213.61328125 20 266 20 337.936523438 c 0
 20 393.939898947 69.890625 438.674804688 69.890625 438.674804688 c 1
539.46484375 232.325195312 m 1
 489.677734375 312.923782685 406.277861999 341.289296501 283.223632812 382.106445312 c 0
 157.215258678 423.903485466 105.252929688 485.1953125 105.252929688 568.5 c 0
 105.252929688 779.239257812 434.266601562 785.163085938 434.266601562 785.163085938 c 1
 452.802734375 629.0234375 l 1
 452.802734375 629.0234375 329.3515625 628.767578125 329.3515625 576.720703125 c 0
 329.3515625 556.435546875 341.287319639 538.315181068 410.765625 505.126953125 c 0
 510.708007812 457.38671875 589.35546875 405 589.35546875 333.063476562 c 0
 589.35546875 277.060101053 539.46484375 232.325195312 539.46484375 232.325195312 c 1
EndSplineSet
Validated: 1
EndChar

StartChar: currency
Encoding: 98 164 105
Width: 465
Flags: W
HStem: 153.532 98.9658<186.395 288.925> 461.688 98.9668<186.395 288.925>
VStem: 35.2803 95.9893<288.285 423.687> 333.991 95.9883<288.285 423.687>
LayerCount: 2
Fore
SplineSet
291.239257812 213.436523438 m 1
 359.889648438 246.325195312 l 1
 454.259765625 114.765625 l 1
 355.580078125 66.1455078125 l 1
 291.239257812 213.436523438 l 1
184.020507812 213.436523438 m 1
 119.6796875 66.1455078125 l 1
 11 114.765625 l 1
 105.370117188 246.325195312 l 1
 184.020507812 213.436523438 l 1
291.239257812 497.74609375 m 1
 355.580078125 645.036132812 l 1
 454.259765625 596.416015625 l 1
 359.889648438 464.856445312 l 1
 291.239257812 497.74609375 l 1
184.020507812 497.74609375 m 1
 105.370117188 464.856445312 l 1
 11 596.416015625 l 1
 119.6796875 645.036132812 l 1
 184.020507812 497.74609375 l 1
131.26953125 355.671875 m 0
 131.26953125 289.207770202 174.934834452 252.498046875 232.629882812 252.498046875 c 4
 290.329408297 252.498046875 333.991210938 289.207770202 333.991210938 355.671875 c 0
 333.991210938 422.702859512 290.329408297 461.688476562 232.629882812 461.688476562 c 0
 174.934834452 461.688476562 131.26953125 422.702859512 131.26953125 355.671875 c 0
35.2802734375 355.590820312 m 0
 35.2802734375 485.24609375 120.424854489 560.655273438 232.629882812 560.655273438 c 0
 344.834911135 560.655273438 429.979492188 485.24609375 429.979492188 355.590820312 c 0
 429.979492188 225.424804688 344.834911135 153.532226562 232.629882812 153.532226562 c 0
 120.424854489 153.532226562 35.2802734375 225.424804688 35.2802734375 355.590820312 c 0
EndSplineSet
EndChar

StartChar: dieresis
Encoding: 102 168 106
Width: 450
Flags: W
HStem: 599.008 140<66.7426 173.257 276.743 383.257>
VStem: 50 140<615.75 722.265> 260 140<615.75 722.265>
LayerCount: 2
Fore
SplineSet
260 669.0078125 m 0
 260 711.785866478 287.221946022 739.0078125 330 739.0078125 c 0
 372.778053978 739.0078125 400 711.785866478 400 669.0078125 c 4
 400 626.229758522 372.778053978 599.0078125 330 599.0078125 c 0
 287.221946022 599.0078125 260 626.229758522 260 669.0078125 c 0
50 669.0078125 m 0
 50 711.785866478 77.2219460228 739.0078125 120 739.0078125 c 0
 162.778053978 739.0078125 190 711.785866478 190 669.0078125 c 4
 190 626.229758522 162.778053978 599.0078125 120 599.0078125 c 0
 77.2219460228 599.0078125 50 626.229758522 50 669.0078125 c 0
EndSplineSet
EndChar

StartChar: guillemotleft
Encoding: 105 171 107
Width: 632
Flags: W
HStem: 491 20G<231.568 278.666>
LayerCount: 2
Fore
SplineSet
515.720703125 269.5 m 1
 631.69921875 159 l 5
 531.69921875 50 l 5
 311 260 l 1
 531.69921875 479 l 5
 631.69921875 390 l 5
 515.720703125 269.5 l 1
215.720703125 261.5 m 1
 371.69921875 111 l 5
 251.69921875 2 l 5
 -9 252 l 1
 251.69921875 511 l 5
 371.69921875 422 l 5
 215.720703125 261.5 l 1
EndSplineSet
EndChar

StartChar: guillemotright
Encoding: 121 187 108
Width: 632
Flags: W
HStem: 491 20G<357.982 400.856>
LayerCount: 2
Fore
SplineSet
115.978515625 243.5 m 5
 0 354 l 1
 100 463 l 1
 320.69921875 253 l 5
 100 34 l 1
 0 123 l 1
 115.978515625 243.5 l 5
415.978515625 251.5 m 5
 260 402 l 1
 380 511 l 1
 640.69921875 261 l 5
 380 2 l 1
 260 91 l 1
 415.978515625 251.5 l 5
EndSplineSet
EndChar

StartChar: logicalnot
Encoding: 106 172 109
Width: 497
Flags: W
HStem: 289 91<48 355>
VStem: 351 102<158.824 283.966>
LayerCount: 2
Fore
SplineSet
48 380 m 1
 451 381 l 1
 453 156 l 1
 351 158.82421875 l 1
 355 283.965820312 l 1
 46 289 l 1
 48 380 l 1
EndSplineSet
EndChar

StartChar: macron
Encoding: 109 175 111
Width: 330
Flags: W
HStem: 629.008 102<124 306> 640.008 87<24 202>
VStem: 20 290
LayerCount: 2
Fore
SplineSet
24 727.0078125 m 1x60
 310 731.0078125 l 5
 306 629.0078125 l 5xa0
 20 640.0078125 l 1
 24 727.0078125 l 1x60
EndSplineSet
EndChar

StartChar: mu
Encoding: 115 181 112
Width: 633
Flags: W
HStem: -9.93164 98<204.082 340.443> 0 90.9268<507.849 619.38> 489.002 8G<62.8408 177.17 397.81 505.302>
VStem: 45 112<-32.5315 492.864> 398 107.17<213.068 497.002>
LayerCount: 2
Fore
SplineSet
157 235.068359375 m 0x38
 157 4.92836574607 186 -167 186 -167 c 1
 72 -187 l 1
 72 -187 45 -6.66644428042 45 208.068359375 c 0
 45 356.067568079 62.8408203125 509.001953125 62.8408203125 509.001953125 c 1
 177.169921875 500.001953125 l 1
 177.169921875 500.001953125 157 354.588751756 157 235.068359375 c 0x38
266 -9.931640625 m 0xb8
 144.803102948 -9.931640625 92.0882352939 92.4189146581 77 163.068359375 c 1
 145 290.068359375 l 1
 148 153 192.18771463 88.068359375 266 88.068359375 c 0
 340.792625344 88.068359375 394.307692308 127.176673738 405 290.068359375 c 1
 445 213.068359375 l 1
 417.981132075 90 395.505375248 -9.931640625 266 -9.931640625 c 0xb8
393.270507812 0 m 1x78
 398 497.001953125 l 1
 505.169921875 497.001953125 l 1
 507.848632812 90.9267578125 l 1
 623 92.9306640625 l 1
 619.379882812 0 l 1
 393.270507812 0 l 1x78
EndSplineSet
EndChar

StartChar: acute
Encoding: 114 180 113
Width: 230
Flags: W
HStem: 526.72 213.784
VStem: 11 208.518
LayerCount: 2
Fore
SplineSet
153.840820312 740.50390625 m 5
 219.517578125 674.18359375 l 5
 54.4375 526.719726562 l 1
 11 572.465820312 l 1
 153.840820312 740.50390625 l 5
EndSplineSet
EndChar

StartChar: plusminus
Encoding: 111 177 114
Width: 450
Flags: W
HStem: 114 96<223 430> 126 81<21 258.333> 170.5 32.5<167.5 276.5> 363 94<21 275>
VStem: 184.5 85<324.618 587.25>
LayerCount: 2
Fore
SplineSet
21 457 m 1x18
 223 454 l 1
 432 460 l 1
 431 351 l 1
 223 367 l 1
 19 363 l 1
 21 457 l 1x18
277.5 609.5 m 1
 269.5 431.5 l 1
 276.5 168.5 l 1
 167.5 170.5 l 1x38
 184.5 432.5 l 1
 176.5 612.5 l 1
 277.5 609.5 l 1
21 207 m 1x58
 223 203 l 1x38
 432 210 l 1
 430 114 l 1x98
 18 126 l 1
 21 207 l 1x58
EndSplineSet
EndChar

StartChar: copyright
Encoding: 103 169 116
Width: 795
Flags: W
HStem: -10.0664 100.877<283.004 518.138> 139.745 122.4<364.592 524.457> 467.381 121.8<368.805 508.585> 640.64 98.2939<286.076 514.996>
VStem: 20 108<243.344 482.978> 188.229 142.2<295.883 429.804> 674.117 100.883<243.344 482.978>
AnchorPoint: "Anchor-0" 387 731.008 basechar 0
AnchorPoint: "Anchor-2" 378 0 basechar 0
AnchorPoint: "Anchor-2" 378 0 basechar 0
LayerCount: 2
Fore
SplineSet
188.229492188 362.9453125 m 4
 188.229492188 501.200345084 276.196139306 589.180664062 414.4296875 589.180664062 c 4
 519.234375589 589.180664062 563.779296875 543.489257812 563.779296875 543.489257812 c 5
 527.017578125 432.2421875 l 5
 527.017578125 432.2421875 491.874756663 467.380859375 437.229492188 467.380859375 c 4
 371.962545275 467.380859375 330.4296875 426.767619713 330.4296875 362.9453125 c 4
 330.4296875 301.345213108 365.142221355 262.145507812 433.029296875 262.145507812 c 4
 507.16734071 262.145507812 544.71875 297.204101562 544.71875 297.204101562 c 5
 572.916992188 177.174804688 l 5
 572.916992188 177.174804688 532.822264902 139.745117188 408.4296875 139.745117188 c 4
 273.862808506 139.745117188 188.229492188 226.544541099 188.229492188 362.9453125 c 4
20 361.93359375 m 0
 20 592.322641811 166.610951939 738.93359375 397 738.93359375 c 0
 628.000476926 738.93359375 775 592.322641811 775 361.93359375 c 0
 775 134.599173678 628.000476926 -10.06640625 397 -10.06640625 c 0
 166.610951939 -10.06640625 20 134.599173678 20 361.93359375 c 0
128 361.93359375 m 0
 128 196.246930926 232.9990625 90.810546875 398 90.810546875 c 0
 566.738726451 90.810546875 674.1171875 196.246930926 674.1171875 361.93359375 c 0
 674.1171875 532.255308483 566.738726451 640.639648438 398 640.639648438 c 0
 232.9990625 640.639648438 128 532.255308483 128 361.93359375 c 0
EndSplineSet
Validated: 1
EndChar

StartChar: registered
Encoding: 108 174 117
Width: 795
Flags: W
HStem: -10.0664 100.877<283.004 518.138> 469.193 114.601<385.535 468.391> 469.193 30.7549<324.154 383.956> 640.64 98.2939<286.076 514.996>
VStem: 20 108<243.344 482.978> 262.918 121.038<140.398 293.059 377.925 499.948> 479.505 128.4<376.289 458.624> 674.117 100.883<243.344 482.978>
LayerCount: 2
Fore
SplineSet
359.072265625 377.924804688 m 1xdf
 359.072265625 377.924804688 373.976952828 365.358398438 420.705078125 365.358398438 c 0
 458.099974391 365.358398438 479.504882812 387.417724609 479.504882812 416.358398438 c 0
 479.504882812 449.009171427 458.286852348 469.193359375 412.354492188 469.193359375 c 0
 324.154492188 469.193359375 212.116210938 423.254882812 212.116210938 423.254882812 c 1
 187.354492188 539.302734375 l 1
 187.354492188 539.302734375 256.95343682 583.793945312 420.705078125 583.793945312 c 0
 535.105392795 583.793945312 607.905273438 523.346725276 607.905273438 428.358398438 c 0
 607.905273438 323.540672269 515.3984375 297.022460938 515.3984375 297.022460938 c 1
 611.6171875 231.3984375 l 5
 536.016601562 128.198242188 l 5
 329.708984375 293.05859375 l 1
 359.072265625 377.924804688 l 1xdf
385.956054688 140.3984375 m 1
 259.216796875 140.3984375 l 1
 262.91796875 499.948242188 l 1
 383.956054688 499.948242188 l 1xbf
 385.956054688 140.3984375 l 1
20 361.93359375 m 0
 20 592.322641811 166.610951939 738.93359375 397 738.93359375 c 0
 628.000476926 738.93359375 775 592.322641811 775 361.93359375 c 0
 775 134.599173678 628.000476926 -10.06640625 397 -10.06640625 c 0
 166.610951939 -10.06640625 20 134.599173678 20 361.93359375 c 0
128 361.93359375 m 0
 128 196.246930926 232.9990625 90.810546875 398 90.810546875 c 0
 566.738726451 90.810546875 674.1171875 196.246930926 674.1171875 361.93359375 c 0
 674.1171875 532.255308483 566.738726451 640.639648438 398 640.639648438 c 0
 232.9990625 640.639648438 128 532.255308483 128 361.93359375 c 0
EndSplineSet
Validated: 5
EndChar

StartChar: degree
Encoding: 110 176 118
Width: 429
Flags: W
HStem: 366.113 91.3027<153.839 275.429> 647.593 91.3994<153.839 275.429>
VStem: 26 98.3838<487.885 618.08> 305.184 98.416<487.885 618.08>
LayerCount: 2
Fore
SplineSet
124.383789062 553.416015625 m 0
 124.383789062 494.750279018 159.419584112 457.416015625 214.479492188 457.416015625 c 4
 269.909877513 457.416015625 305.18359375 494.750279018 305.18359375 553.416015625 c 0
 305.18359375 610.969138902 269.909877513 647.592773438 214.479492188 647.592773438 c 0
 159.419584112 647.592773438 124.383789062 610.969138902 124.383789062 553.416015625 c 0
26 553.512695312 m 0
 26 666.861220763 99.2975277155 738.9921875 214.479492188 738.9921875 c 0
 330.05305489 738.9921875 403.599609375 666.861220763 403.599609375 553.512695312 c 0
 403.599609375 438.990353087 330.05305489 366.11328125 214.479492188 366.11328125 c 0
 99.2975277153 366.11328125 26 438.990353087 26 553.512695312 c 0
EndSplineSet
EndChar

StartChar: AE
Encoding: 132 198 119
Width: 960
Flags: W
HStem: 0 171.293<679.064 946.539> 149 157<262 444.545> 278 172<667.455 894> 553.08 177.928<169 467.98 676.104 938.729>
VStem: 542 134.104<310 446>
AnchorPoint: "Anchor-2" 538 0 basechar 0
AnchorPoint: "Anchor-2" 538 0 basechar 0
AnchorPoint: "Anchor-0" 536 731.008 basechar 0
LayerCount: 2
Fore
SplineSet
262 306 m 1x58
 578 310 l 1
 574 138 l 1
 218 149 l 1
 262 306 l 1x58
938.729492188 731.010742188 m 25
 944.61328125 554 l 1
 676.103515625 558 l 1
 679.017578125 171.48046875 l 1
 679.064453125 171.29296875 l 1
 950.159179688 172.930664062 l 1
 946.5390625 0 l 1
 463.4296875 0 l 1x98
 468.151367188 560.083984375 l 1
 160 553.080078125 l 1
 169 731.0078125 l 25
 938.729492188 731.010742188 l 25
542 446 m 1
 898 450 l 1
 894 278 l 1x38
 538 289 l 1
 542 446 l 1
542 595 m 1
 177.819335938 -15 l 1
 -9.7265625 99 l 5
 403 663 l 1
 542 595 l 1
EndSplineSet
Validated: 5
EndChar

StartChar: ae
Encoding: 164 230 120
Width: 880
Flags: W
HStem: -23.9004 94.8008<620.907 781.819> -10.0664 126<207.475 314.484> 198 86<477 753> 226.934 110<206.108 316.697> 408.934 98<548.068 704.22> 501 20G<169.641 173>
VStem: 20 174<129.43 214.484> 329 133<129.231 189.267> 753 113.619<288 361.044>
AnchorPoint: "Anchor-0" 439 496.019 basechar 0
AnchorPoint: "Anchor-2" 440 0 basechar 0
LayerCount: 2
Fore
SplineSet
329 173.93359375 m 0x5380
 329 204.600585938 302.944335938 226.93359375 262 226.93359375 c 0
 220.444335938 226.93359375 194 204.600585938 194 173.93359375 c 0
 194 138.989257812 220.444335938 115.93359375 262 115.93359375 c 0
 302.944335938 115.93359375 329 138.989257812 329 173.93359375 c 0x5380
462 133.93359375 m 0
 462 86.7197265625 400.506009616 -10.06640625 238 -10.06640625 c 0
 104.777550331 -10.06640625 20 61.8776979608 20 174.93359375 c 4
 20 273.934317556 96.9992000499 336.93359375 218 336.93359375 c 0
 387.111528051 336.93359375 462 216.989257812 462 133.93359375 c 0
473.848632812 150.926757812 m 1
 332.270507812 151 l 1
 332.270507812 151 337 244.29296875 337 311 c 0
 337 376.921875 151 390 151 390 c 1
 173 521 l 1x0780
 173 521 471.169921875 513.875646888 471.169921875 297.001953125 c 0
 471.169921875 241.854141501 473.848632812 150.926757812 473.848632812 150.926757812 c 1
EndSplineSet
Refer: 9 101 N 1 0 0 1 350 0 2
EndChar

StartChar: cedilla
Encoding: 118 184 121
Width: 227
Flags: W
HStem: -248 71<12 100.883> -99 119<37 90.9649>
VStem: 113 84<-164.351 -108.04>
LayerCount: 2
Fore
SplineSet
37 20 m 1
 110 17 l 1
 91 -47 l 5
 91 -47 197 -53.2707866846 197 -136 c 0
 197 -216.730463477 134.081218274 -242 12 -248 c 1
 6 -177 l 1
 81.8727272727 -176.386363637 113 -164.196095276 113 -132 c 0
 113 -109.772727273 89.3194948878 -100.313660655 19 -99 c 1
 13 -62 l 1
 37 20 l 1
EndSplineSet
EndChar

StartChar: paragraph
Encoding: 116 182 124
Width: 823
Flags: W
HStem: 610.992 128<422.6 520 644.261 679.138>
VStem: 40 382.6<375.734 596.107> 287 135.6<-173.994 68.0812> 299 123.6<-1.08317 243.185> 520 134<-173.994 387.019> 520 124.261<45.5431 606.557>
LayerCount: 2
Fore
SplineSet
783 714.984375 m 1xc0
 772 597.984375 l 1
 772 597.984375 691.739419415 605.9921875 644.260742188 606.556640625 c 1xc4
 654 -173.994140625 l 5
 520 -173.994140625 l 1x88
 520 610.9921875 l 1
 422.599609375 610.9921875 l 1x94
 422.599609375 -173.994140625 l 1
 287 -173.994140625 l 1xa0
 299 240.9921875 l 1x90
 147.281312655 253.871308694 40 324.077035731 40 485.9921875 c 0
 40 667.805875713 159.999936311 738.9921875 388 738.9921875 c 0
 637.701797877 738.9921875 783 714.984375 783 714.984375 c 1xc0
EndSplineSet
EndChar

StartChar: Eth
Encoding: 142 208 125
Width: 783
Flags: W
HStem: -10.0664 120<289.079 495.057> 295 112<186.909 458> 306 97<34 303.091> 614.992 24.2578<184.77 285.67> 614.992 124<286.087 494.633>
VStem: 163.94 121.729<118.847 639.25> 626.917 127<241.934 482.995>
AnchorPoint: "Anchor-0" 386 731.008 basechar 0
AnchorPoint: "Anchor-2" 399 0 basechar 0
AnchorPoint: "Anchor-2" 399 0 basechar 0
LayerCount: 2
Fore
SplineSet
34 403 m 1xa6
 460 407 l 5
 458 295 l 5xc6
 32 306 l 1
 34 403 l 1xa6
EndSplineSet
Refer: 57 68 N 1 0 0 1 0 0 2
EndChar

StartChar: eth
Encoding: 174 240 126
Width: 585
Flags: W
HStem: -10.0664 104.925<209.768 366.136> 398.009 108.925<206.032 369.694> 516.966 21G<180.923 227.455>
VStem: 30 112.375<165.262 333.421> 432.625 122.375<162.968 331.054>
AnchorPoint: "Anchor-0" 240 755.01 basechar 0
AnchorPoint: "Anchor-2" 287 0 basechar 0
LayerCount: 2
Fore
SplineSet
143.401367188 616.420898438 m 1
 306.440429688 684.025390625 l 1
 460.33984375 774.794921875 l 1
 513.955078125 661.89453125 l 1
 344.1171875 599.879882812 l 1
 190.368164062 516.965820312 l 1
 143.401367188 616.420898438 l 1
142.375 252.858398438 m 0
 142.375 156.302662417 198.62754988 94.8583984375 287.025390625 94.8583984375 c 0
 376.003307645 94.8583984375 432.625 156.302662417 432.625 252.858398438 c 4
 432.625 341.561927673 376.003307645 398.008789062 287.025390625 398.008789062 c 0
 198.62754988 398.008789062 142.375 341.561927673 142.375 252.858398438 c 0
30 249.93359375 m 0
 30 406.989257812 124.111008938 506.93359375 272 506.93359375 c 0
 378.789586976 506.93359375 409.90234375 467.057617188 409.90234375 467.057617188 c 1
 366.754641409 637.715281556 202.021484375 708.267578125 202.021484375 708.267578125 c 1
 311.770507812 782.510742188 l 1
 311.770507812 782.510742188 555 639.959487241 555 312 c 0
 555 76.5609773511 450.778115916 -10.06640625 287 -10.06640625 c 0
 129.944335938 -10.06640625 30 91.0439453125 30 249.93359375 c 0
EndSplineSet
EndChar

StartChar: multiply
Encoding: 149 215 127
Width: 450
Flags: W
LayerCount: 2
Fore
SplineSet
313.034179688 568.0859375 m 1
 429 456.36328125 l 1
 287.42578125 335.126953125 l 1
 144.036132812 158.670898438 l 1
 23.12109375 276.7578125 l 1
 186.318359375 427.094726562 l 1
 313.034179688 568.0859375 l 1
139.086914062 568.0859375 m 1
 265.802734375 427.094726562 l 1
 429 276.7578125 l 1
 308.084960938 158.670898438 l 1
 164.6953125 335.126953125 l 1
 23.12109375 456.36328125 l 1
 139.086914062 568.0859375 l 1
EndSplineSet
Validated: 5
EndChar

StartChar: divide
Encoding: 181 247 128
Width: 450
Flags: W
HStem: 153 140<171.743 278.257> 324 94<40 411> 446 140<171.743 278.257>
VStem: 155 140<169.743 276.257 462.743 569.257>
LayerCount: 2
Fore
SplineSet
155 516 m 0
 155 558.778320312 182.222222222 586 225 586 c 0
 267.777777778 586 295 558.778320312 295 516 c 0
 295 473.221679688 267.777777778 446 225 446 c 0
 182.222222222 446 155 473.221679688 155 516 c 0
39 418 m 1
 415 422 l 1
 411 320 l 1
 40 324 l 1
 39 418 l 1
155 223 m 0
 155 265.778320312 182.222222222 293 225 293 c 0
 267.777777778 293 295 265.778320312 295 223 c 0
 295 180.221679688 267.777777778 153 225 153 c 0
 182.222222222 153 155 180.221679688 155 223 c 0
EndSplineSet
EndChar

StartChar: Oslash
Encoding: 150 216 129
Width: 785
Flags: W
HStem: -10.0664 119.351<292.373 485.37> 619.583 119.351<292.373 485.37>
VStem: 40 123.487<244.288 481.399> 621.513 123.487<248.873 476.752>
AnchorPoint: "Anchor-0" 377 731.008 basechar 0
AnchorPoint: "Anchor-0" 377 731.008 basechar 0
AnchorPoint: "Anchor-2" 377 0 basechar 0
AnchorPoint: "Anchor-2" 377 0 basechar 0
LayerCount: 2
Fore
SplineSet
715.94921875 726.93359375 m 5
 437.330078125 349.799804688 l 5
 190.37890625 -81 l 5
 79.05078125 -17 l 5
 361.529296875 378.200195312 l 5
 611.220703125 793.93359375 l 5
 715.94921875 726.93359375 l 5
EndSplineSet
Refer: 43 79 N 1 0 0 1 0 0 2
EndChar

StartChar: oslash
Encoding: 182 248 130
Width: 565
Flags: W
HStem: -10.0664 101.925<206.049 358.109> 405.009 101.925<206.049 358.109>
VStem: 30 109.375<160.605 337.866> 424.625 110.375<160.605 337.866>
AnchorPoint: "Anchor-0" 277 496.019 basechar 0
AnchorPoint: "Anchor-2" 278 0 basechar 0
LayerCount: 2
Fore
SplineSet
508.0390625 498.638671875 m 5
 315.294921875 234.815429688 l 5
 142.185546875 -52.2802734375 l 5
 56.9609375 3.599609375 l 5
 252.09765625 268.624023438 l 5
 426.90625 556.37890625 l 5
 508.0390625 498.638671875 l 5
EndSplineSet
Refer: 3 111 N 1 0 0 1 0 0 2
EndChar

StartChar: Thorn
Encoding: 156 222 131
Width: 714
Flags: W
HStem: 0 21G<143.958 280.287> 124.934 109<301.68 503.31> 499.992 110<298.671 502.814> 620.084 110.927<33.748 148.279>
VStem: 143.958 136.329<0 179.434 274.877 458.428 555.841 620.084> 558.917 123<286.714 445.23>
LayerCount: 2
Fore
SplineSet
264.196289062 274.876953125 m 5
 264.196289062 274.876953125 305.649926381 233.93359375 412.916992188 233.93359375 c 4
 508.609780365 233.93359375 558.916992188 282.114299369 558.916992188 359.93359375 c 0
 558.916992188 453.715092443 511.234470273 499.9921875 405.916992188 499.9921875 c 0
 321.558413476 499.9921875 259.26953125 458.427734375 259.26953125 458.427734375 c 1
 228 555.840820312 l 1
 228 555.840820312 300.746451066 609.9921875 416.916992188 609.9921875 c 0
 580.403490822 609.9921875 681.916992188 517.142383873 681.916992188 354.93359375 c 0
 681.916992188 215.441813151 584.450124288 124.93359375 426.916992188 124.93359375 c 4
 307.286877798 124.93359375 235.2578125 179.43359375 235.2578125 179.43359375 c 5
 264.196289062 274.876953125 l 5
274.857421875 731.010742188 m 1
 280.287109375 0 l 1
 143.958007812 0 l 1
 148.279296875 620.083984375 l 1
 30.1279296875 618.080078125 l 1
 33.748046875 731.010742188 l 1
 274.857421875 731.010742188 l 1
EndSplineSet
EndChar

StartChar: thorn
Encoding: 188 254 132
Width: 662
Flags: W
HStem: -10.0664 100<290.932 452.633> 406.934 100<291.519 452.633> 674.084 90.9268<13.6201 108.151>
VStem: 108.151 106.578<-174 674.084> 157 63.1592<96.6305 393.812> 521 111<160.078 338.427>
LayerCount: 2
Fore
SplineSet
224 249.93359375 m 0xe4
 224 152.15546875 281.555001795 89.93359375 372 89.93359375 c 0
 463.056474165 89.93359375 521 152.15546875 521 249.93359375 c 0
 521 345.878916317 463.056474165 406.93359375 372 406.93359375 c 0
 281.555001795 406.93359375 224 345.878916317 224 249.93359375 c 0xe4
157 262.93359375 m 4xec
 157 393.81162619 239.166144686 506.93359375 394 506.93359375 c 0
 539.445124041 506.93359375 632 406.989257812 632 249.93359375 c 0
 632 91.0439453125 539.445124041 -10.06640625 394 -10.06640625 c 0
 249.166213519 -10.06640625 157 96.630460435 157 262.93359375 c 4xec
214.729492188 765.010742188 m 1xf4
 220.159179688 -174 l 1xec
 103.830078125 -174 l 1
 108.151367188 674.083984375 l 1
 10 672.080078125 l 1
 13.6201171875 765.010742188 l 1
 13.6201171875 765.010742188 214.729492188 765.010742188 214.729492188 765.010742188 c 1xf4
EndSplineSet
EndChar

StartChar: kgreenlandic
Encoding: 246 312 133
Width: 608
Flags: W
HStem: 0 21G<133.83 250.159> 406.084 90.9268<13.6201 138.151> 494 20G<459.76 502.739>
VStem: 133.83 116.329<0 406.084>
AnchorPoint: "Anchor-2" 368 0 basechar 0
AnchorPoint: "Anchor-0" 354 497.019 basechar 0
LayerCount: 2
Fore
SplineSet
481 514 m 1xb0
 556 445 l 1
 346 255 l 1
 578 67 l 1
 501 -17 l 5
 207 256 l 1
 481 514 l 1xb0
244.729492188 497.010742188 m 1xd0
 250.159179688 0 l 1
 133.830078125 0 l 1
 138.151367188 406.083984375 l 1
 10 404.080078125 l 1
 13.6201171875 497.010742188 l 1
 244.729492188 497.010742188 l 1xd0
EndSplineSet
EndChar

StartChar: Eng
Encoding: 264 330 134
Width: 836
Flags: W
HStem: 0 21G<128.958 345.287> 553.992 185<418.788 612.392> 558.08 172.931<18.748 133.279>
VStem: 128.958 216.329<0 445.992> 572 219<65.869 507.346>
LayerCount: 2
Back
SplineSet
248 445.9921875 m 1xb8
 274.962117347 629.036889359 359.999489795 738.9921875 536 738.9921875 c 0
 694.014291159 738.9921875 791 652.707577112 791 430.9921875 c 0
 791 211.65312995 773.159179688 -15 773.159179688 -15 c 1
 551.830078125 0 l 1
 551.830078125 0 572 216.249153184 572 393.9921875 c 0
 572 495.551053779 543.585272304 553.9921875 463 553.9921875 c 0
 381.019552796 553.9921875 331.949808208 510.404214874 306 398.9921875 c 1
 248 445.9921875 l 1xb8
339.857421875 731.010742188 m 1
 345.287109375 0 l 1
 128.958007812 0 l 1
 133.279296875 560.083984375 l 1
 15.1279296875 558.080078125 l 1
 18.748046875 731.010742188 l 1
 339.857421875 731.010742188 l 1
EndSplineSet
Fore
SplineSet
248 445.9921875 m 1xd8
 274.962117347 629.036889359 359.999489795 738.9921875 536 738.9921875 c 4
 694.014291159 738.9921875 791 652.707577112 791 430.9921875 c 4
 791 274.593306842 776.4296875 29.9814453125 776.4296875 29.9814453125 c 5
 631.270507812 -197.018554688 l 1
 433.270507812 -100.018554688 l 1
 557.100585938 69.9814453125 l 1
 557.100585938 69.9814453125 572 267.627807655 572 393.9921875 c 0
 572 495.551053779 543.585272304 553.9921875 463 553.9921875 c 0
 381.019552796 553.9921875 331.949808208 510.404214874 306 398.9921875 c 1
 248 445.9921875 l 1xd8
339.857421875 731.010742188 m 1xb8
 345.287109375 0 l 1
 128.958007812 0 l 1
 133.279296875 560.083984375 l 1
 15.1279296875 558.080078125 l 1
 18.748046875 731.010742188 l 1
 339.857421875 731.010742188 l 1xb8
EndSplineSet
Validated: 5
EndChar

StartChar: eng
Encoding: 265 331 135
Width: 653
Flags: W
HStem: 0 21G<103.83 300.159> 346.075 150.927<13.6201 108.151> 347.934 159<318.746 487.736>
VStem: 103.83 196.329<0 253.934> 436 192<16.0035 327.76>
LayerCount: 2
Back
SplineSet
188 253.93359375 m 5xb8
 210.000338808 411.989257812 279.388472577 506.93359375 423 506.93359375 c 4
 558.0703125 506.93359375 628 429.158131451 628 278.93359375 c 4
 628 134.376986611 610.159179688 -15 610.159179688 -15 c 5
 415.830078125 0 l 5
 415.830078125 0 436 138.277935542 436 251.93359375 c 4
 436 312.868913517 418.012695312 347.93359375 367 347.93359375 c 4
 307.390237894 347.93359375 282.693825662 311.094726562 266 216.93359375 c 5
 188 253.93359375 l 5xb8
EndSplineSet
Fore
SplineSet
436 251.93359375 m 0xb8
 436 312.868913517 418.012695312 347.93359375 367 347.93359375 c 4
 307.390237894 347.93359375 282.693825662 311.094726562 266 216.93359375 c 1
 188 253.93359375 l 1
 210.000338808 411.989257812 279.388472577 506.93359375 423 506.93359375 c 0
 558.0703125 506.93359375 628 429.158131451 628 278.93359375 c 0
 628 170.142989767 612.159179688 0 612.159179688 0 c 1
 495 -204 l 1
 313 -118 l 1
 417.830078125 18 l 1
 417.830078125 18 436 160.698425479 436 251.93359375 c 0xb8
294.729492188 497.001953125 m 1xd8
 300.159179688 0 l 1
 103.830078125 0 l 1
 108.151367188 346.075195312 l 1
 10 344.071289062 l 1
 13.6201171875 497.001953125 l 1
 294.729492188 497.001953125 l 1xd8
EndSplineSet
EndChar

StartChar: OE
Encoding: 272 338 136
Width: 1095
Flags: W
HStem: -10.0664 119.351<292.373 485.37> 0 171.293<814.064 1081.54> 278 172<802.455 1029> 289 157<677 899.545> 558 173.011<811.104 1073.73> 619.583 119.351<292.373 485.37>
VStem: 40 123.487<244.288 481.399> 621.513 123.487<248.873 476.752> 673 141.018<289 446>
LayerCount: 2
Fore
SplineSet
677 446 m 5x1280
 1033 450 l 5
 1029 278 l 5x2280
 673 289 l 5
 677 446 l 5x1280
1073.72949219 731.010742188 m 5x4a80
 1079.61328125 554 l 5
 811.103515625 558 l 5
 814.017578125 171.48046875 l 5
 814.064453125 171.29296875 l 5
 1085.15917969 172.930664062 l 5
 1081.5390625 0 l 5
 598.4296875 0 l 5
 603.151367188 731.010742188 l 5
 1073.72949219 731.010742188 l 5x4a80
EndSplineSet
Refer: 43 79 N 1 0 0 1 0 0 2
EndChar

StartChar: longs
Encoding: 317 383 138
Width: 401
Flags: W
HStem: 0 21G<133.335 248.637> 401 96<30 187> 696.374 101.47<296.766 343.31>
VStem: 114.869 113.533<391.252 637.735> 135.984 108.653<0 563.944> 135.994 51.0059<406 493>
AnchorPoint: "Anchor-2" 208 0 basechar 0
AnchorPoint: "Anchor-0" 254 765.01 basechar 0
LayerCount: 2
Fore
SplineSet
135.984375 412.096679688 m 2xe8
 135.99091194 413.106858318 135.994140625 414.107770821 135.994140625 415.099609375 c 0xe4
 135.994140625 495.588735002 114.869140625 516.320449633 114.869140625 580 c 0
 114.869140625 711.412976765 197.189297229 767.86158329 342.01953125 797.84375 c 5
 360.7265625 696.374023438 l 1
 264.448095983 674.387342781 228.40234375 636.752655962 228.40234375 566 c 0xf0
 228.40234375 522.090982389 243.871883933 481.46665868 244.637695312 399.96484375 c 2
 248.63671875 0 l 1
 133.334960938 0 l 1
 135.984375 412.096679688 l 2xe8
187 406 m 1
 27 401 l 1
 30 497 l 1
 190 493 l 1
 187 406 l 1
EndSplineSet
EndChar

StartChar: uni018F
Encoding: 318 399 139
Width: 761
Flags: W
HStem: -9.99805 195<305.198 446.679> 283.566 162.587<255.162 612.81> 545.63 209.048<189.663 360.414>
VStem: 20 720.81<200.958 398.734>
LayerCount: 2
Back
SplineSet
20 361.93359375 m 0
 20 592.358449127 162.722067273 738.9921875 387 738.9921875 c 0
 692.703602516 738.9921875 740.809570312 528.036293548 740.809570312 395.250976562 c 0
 740.809570312 330.260178936 729.916992188 282.840820312 729.916992188 282.840820312 c 5
 148 284 l 5
 137 441 l 1
 505.647460938 445.427734375 l 1
 505.647460938 445.427734375 494.816386769 543.9921875 381 543.9921875 c 0
 300.33283944 543.9921875 249 476.30370791 249 369.93359375 c 0
 249 231.45533579 353.417075805 194.391339376 594.1484375 183.364257812 c 1
 571.146484375 -25.68359375 l 1
 248.292348682 -22.428262906 20 98.1280331654 20 361.93359375 c 0
EndSplineSet
Fore
SplineSet
740.809570312 367.060546875 m 0
 740.809570312 136.635691498 598.08750304 -9.998046875 373.809570312 -9.998046875 c 0
 68.1059677965 -9.998046875 20 200.957847077 20 333.743164062 c 0
 20 398.73396169 30.892578125 446.153320312 30.892578125 446.153320312 c 1
 612.809570312 444.994140625 l 1
 623.809570312 287.994140625 l 1
 255.162109375 283.56640625 l 1
 255.162109375 283.56640625 255.656114898 279.070879446 257.54177324 272.000000455 c 4
 264.485548995 245.962092629 290.300383395 185.001953125 379.809570312 185.001953125 c 0
 460.476730872 185.001953125 511.809570312 252.690432715 511.809570312 359.060546875 c 0
 511.809570312 497.538804835 407.392494508 534.602801249 166.661132812 545.629882812 c 1
 189.663085938 754.677734375 l 1
 512.51722163 751.422403531 740.809570312 630.86610746 740.809570312 367.060546875 c 0
EndSplineSet
EndChar

StartChar: ordfeminine
Encoding: 104 170 140
Width: 488
Flags: W
HStem: 262 104<50 451> 402 120<159.497 257.7> 410 113<418 479> 628 120<162.157 257.609>
VStem: 13 137<532.058 616.922> 276 140<599 741> 276 66<493 690>
LayerCount: 2
Fore
SplineSet
49 366 m 5x98
 455 370 l 5
 451 258 l 5
 50 262 l 5
 49 366 l 5x98
268 574 m 4
 268 607 246 628 210 628 c 4
 174 628 150 607 150 574 c 4
 150 542 174 522 210 522 c 4xd8
 246 522 268 542 268 574 c 4
342 599 m 4xda
 342 493 285 402 178 402 c 4
 77 402 13 469 13 574 c 4
 13 680 77 748 178 748 c 4
 278 748 342 690 342 599 c 4xda
273 410 m 5xbc
 276 741 l 5
 416 741 l 5
 418 523 l 5
 481 525 l 5
 479 410 l 5
 273 410 l 5xbc
EndSplineSet
Validated: 5
EndChar

StartChar: ordmasculine
Encoding: 120 186 141
Width: 399
Flags: W
HStem: 262 104<20 375> 403 124<152.771 245.904> 624 124<152.771 245.904>
VStem: 13 131<537.48 614.845> 255 131<537.155 615.167>
LayerCount: 2
Fore
SplineSet
19 366 m 5
 379 370 l 5
 375 258 l 5
 20 262 l 5
 19 366 l 5
144 576 m 0
 144 546 166 527 200 527 c 0
 234 527 255 546 255 576 c 0
 255 605 234 624 200 624 c 0
 166 624 144 605 144 576 c 0
13 577 m 0
 13 682 85 748 199 748 c 0
 313 748 386 682 386 577 c 0
 386 471 313 403 199 403 c 0
 85 403 13 471 13 577 c 0
EndSplineSet
Validated: 1
EndChar

StartChar: germandbls
Encoding: 157 223 142
Width: 688
Flags: W
HStem: 0 21G<133.335 248.637> 401 96<30 189> 674.374 100.47<273.456 456.397>
VStem: 114.869 113.533<391.648 632.235> 133.335 115.302<0 563.944> 136.002 52.998<406 493> 340 112.432<324.716 393.429> 509.509 107.491<506.474 626.32> 534.438 113.852<117.655 192.042>
LayerCount: 2
Fore
SplineSet
190 493 m 1xe6
 189 406 l 1
 27 401 l 1
 30 497 l 1
 190 493 l 1xe6
135.984375 412.096679688 m 2
 135.995907697 413.890505028 136.001953125 415.655786034 136.001953125 417.393554688 c 0xe6
 136.001953125 496.02844417 114.869140625 516.944537403 114.869140625 580 c 0
 114.869140625 697.538360368 204.393268411 774.84375 362.01953125 774.84375 c 0
 515.310916931 774.84375 617 704.456715858 617 546.93359375 c 0xf3
 617 478.752165039 594.232421875 426.700195312 594.232421875 426.700195312 c 1
 594.232421875 426.700195312 452.431640625 419.786962826 452.431640625 360 c 0
 452.431640625 336.639380714 468.649993362 320.761538978 532.298828125 295.861328125 c 0
 615.885651892 263.161129542 648.2890625 222.041769864 648.2890625 157 c 0
 648.2890625 -20.2066687279 373.0390625 -23.900390625 373.0390625 -23.900390625 c 1
 360.569335938 76.900390625 l 1
 360.569335938 76.900390625 534.4375 84.5944547358 534.4375 154 c 0xe280
 534.4375 185.490800689 508.18189043 201.724807362 442.036132812 227.700195312 c 0
 364.169513384 258.278356647 340 296.00064625 340 352 c 0
 340 438.17681093 406.25563426 483.854798124 504.392578125 508.052734375 c 1
 504.392578125 508.052734375 509.508789062 527.136867431 509.508789062 558.416015625 c 0
 509.508789062 623.921496483 467.056327162 674.374023438 364 674.374023438 c 4
 264.598894803 674.374023438 228.40234375 624.798351413 228.40234375 566 c 0xf3
 228.40234375 522.090982388 243.822800071 481.467103747 244.637695312 399.96484375 c 2
 248.63671875 0 l 1
 133.334960938 0 l 1xea
 135.984375 412.096679688 l 2
EndSplineSet
EndChar

StartChar: florin
Encoding: 319 402 144
Width: 423
Flags: W
HStem: 346 151<12 222.333> 480 20G<190 402.518>
VStem: 83.8691 181.533<495.527 597.221> 95.9844 188.653<20 476>
LayerCount: 2
Fore
SplineSet
12 497 m 5x80
 190 493 l 5
 403 500 l 5x40
 399 334 l 5
 187 351 l 5
 7 346 l 5
 12 497 l 5x80
288.63671875 0 m 5
 171.477539062 -204 l 5
 -10.5224609375 -118 l 5
 92.3076171875 20 l 5
 95.984375 412.096679688 l 6x10
 96.7805472928 497.002057846 83.869140625 518 83.869140625 584 c 4
 83.869140625 713 181.047851562 768.412109375 352.01953125 797.84375 c 5
 377.7265625 628.374023438 l 5
 296 616 265.40234375 594.819335938 265.40234375 555 c 4x20
 265.40234375 514 284 476 284.637695312 399.96484375 c 6x10
 288.63671875 0 l 5
EndSplineSet
Validated: 37
EndChar

StartChar: circumflex
Encoding: 427 710 145
Width: 332
Flags: W
HStem: 516 232
LayerCount: 2
Fore
SplineSet
164 748 m 25
 337 612 l 25
 249 516 l 25
 165 610 l 29
 79 522 l 25
 -5 606 l 25
 164 748 l 25
EndSplineSet
Validated: 1
EndChar

StartChar: caron
Encoding: 428 711 146
Width: 332
Flags: W
HStem: 516 232
LayerCount: 2
Fore
SplineSet
168 516 m 25
 -5 652 l 25
 83 748 l 25
 167 654 l 29
 253 742 l 25
 337 658 l 25
 168 516 l 25
EndSplineSet
Validated: 1
EndChar

StartChar: tilde
Encoding: 434 732 147
Width: 384
Flags: W
HStem: 523.187 224.475 713.706 20G<282.718 320.166>
LayerCount: 2
Fore
SplineSet
245.321289062 670.379882812 m 1x80
 299.98046875 733.706054688 l 1x40
 383.66015625 650.795898438 l 1
 246.280273438 523.186523438 l 5
 145.33984375 600.467773438 l 1
 84.6806640625 537.140625 l 1
 1 620.051757812 l 1
 143.380859375 747.661132812 l 1
 245.321289062 670.379882812 l 1x80
EndSplineSet
Validated: 1
EndChar

StartChar: zero.superior
Encoding: 660 8304 148
Width: 450
HStem: 342 132<178.506 271.637> 711 132<178.506 271.637>
VStem: 13 137<504.763 679.114> 300 137<504.763 679.114>
LayerCount: 2
Fore
SplineSet
150 591 m 0
 150 520 179 474 225 474 c 0
 271 474 300 520 300 591 c 4
 300 665 271 711 225 711 c 0
 179 711 150 665 150 591 c 0
13 591 m 0
 13 745 96 843 225 843 c 0
 355 843 437 745 437 591 c 4
 437 439 355 342 225 342 c 0
 96 342 13 439 13 591 c 0
EndSplineSet
EndChar

StartChar: one.superior
Encoding: 119 185 149
Width: 247
HStem: 722 115<10 86>
VStem: 83 144<350 723>
LayerCount: 2
Fore
SplineSet
224 837 m 1
 227 350 l 1
 83 350 l 1
 86 723 l 5
 7 722 l 5
 10 837 l 5
 224 837 l 1
EndSplineSet
EndChar

StartChar: two.superior
Encoding: 112 178 150
Width: 396
HStem: 350 124<228 377> 718 125<79.9609 204.484>
VStem: 220 150<593.405 702.119>
LayerCount: 2
Fore
SplineSet
228 474 m 1
 383 478 l 1
 377 350 l 1
 20 350 l 1
 13 450 l 1
 13 450 220 543 220 650 c 4
 220 696 194 718 150 718 c 4
 93 718 58 678 58 678 c 1
 11 793 l 1
 11 793 74 843 181 843 c 4
 303 843 370 781 370 683 c 4
 370 540 228 474 228 474 c 1
EndSplineSet
EndChar

StartChar: three.superior
Encoding: 113 179 151
Width: 387
HStem: 343 116<33.9047 216.359> 704 133<20 183>
VStem: 224 149<469.681 539.579>
LayerCount: 2
Fore
SplineSet
265 630 m 1
 265 630 373 617 373 494 c 0
 373 395 297 343 178 343 c 0
 57 343 5 372 5 372 c 1
 34 486 l 5
 34 486 85 459 156 459 c 0
 204 459 224 476 224 505 c 0
 224 531 203 548 161 548 c 0
 124 548 104 542 104 542 c 1
 87 617 l 1
 183 708 l 1
 13 704 l 1
 20 837 l 1
 353 837 l 1
 359 731 l 1
 265 630 l 1
EndSplineSet
EndChar

StartChar: four.superior
Encoding: 661 8308 152
Width: 472
HStem: 462 114<168 453> 717 20G<251.793 383.207>
LayerCount: 2
Fore
SplineSet
383 737 m 1
 387 350 l 1
 248 350 l 1
 252 737 l 1
 383 737 l 1
199 854 m 1
 314 782 l 1
 168 576 l 1
 457 579 l 1
 453 457 l 1
 34 462 l 1
 9 546 l 1
 199 854 l 1
EndSplineSet
EndChar

StartChar: five.superior
Encoding: 662 8309 153
Width: 387
Flags: W
HStem: 343 116<48.7181 215.906> 562 107<149.471 273.827> 716 121<159 346>
VStem: 227 146<471.792 549.201>
LayerCount: 2
Fore
SplineSet
346 715 m 5
 159 716 l 1
 149 657 l 1
 149 657 167 669 217 669 c 0
 330 669 373 607 373 514 c 0
 373 395 297 343 178 343 c 0
 57 343 5 379 5 379 c 1
 33 488 l 1
 33 488 85 459 156 459 c 0
 204 459 227 480 227 513 c 0
 227 543 203 562 154 562 c 0
 110 562 84 542 84 542 c 1
 13 605 l 1
 53 837 l 1
 346 837 l 1
 346 715 l 5
EndSplineSet
EndChar

StartChar: six.superior
Encoding: 663 8310 154
Width: 411
HStem: 342 116<166.406 253.396> 573 101<167.272 254.236> 727 122<232.212 331.918>
VStem: 13 142<470.366 561.183> 265 133<468.956 562.303>
LayerCount: 2
Fore
SplineSet
331 849 m 5
 347 727 l 5
 173 712 167 659 167 659 c 5
 167 659 189 674 249 674 c 4
 342 674 398 613 398 520 c 4
 398 419 346 342 210 342 c 4
 92 342 13 403 13 553 c 4
 13 695 89 835 331 849 c 5
155 516 m 4
 155 480 177 458 210 458 c 4
 244 458 265 480 265 516 c 4
 265 551 244 573 210 573 c 4
 177 573 155 551 155 516 c 4
EndSplineSet
EndChar

StartChar: seven.superior
Encoding: 664 8311 155
Width: 378
HStem: 713 124<135 229>
LayerCount: 2
Fore
SplineSet
5 636 m 1
 25 837 l 1
 351 837 l 1
 385 752 l 1
 231 339 l 1
 87 382 l 1
 229 714 l 5
 135 713 l 5
 124 624 l 1
 5 636 l 1
EndSplineSet
EndChar

StartChar: eight.superior
Encoding: 665 8312 156
Width: 405
HStem: 342 114<152.151 242.807> 731 112<165.236 246.111>
VStem: 13 132<464.451 545.625> 30 131<666.259 726.979> 249 143<462.545 529.769> 250 123<649.182 725.446>
LayerCount: 2
Fore
SplineSet
199 456 m 0xe8
 230 456 249 471 249 496 c 0xe8
 249 521 231 533 176 553 c 0
 79 588 30 634 30 708 c 0
 30 791 98 843 205 843 c 0
 308 843 373 797 373 713 c 0
 373 624 276 591 276 591 c 1
 196 628 l 1
 196 628 250 655 250 691 c 4
 250 716 233 731 205 731 c 4
 178 731 161 717 161 695 c 4xd4
 161 675 176 665 222 653 c 4
 347 620 392 576 392 493 c 0
 392 399 322 342 204 342 c 0
 90 342 13 397 13 481 c 0
 13 573 105 603 105 603 c 1
 188 562 l 1
 188 562 145 542 145 499 c 0
 145 473 166 456 199 456 c 0xe8
EndSplineSet
EndChar

StartChar: nine.superior
Encoding: 666 8313 157
Width: 411
HStem: 336 122<79.1393 179.788> 511 101<157.445 244.839> 727 116<157.785 244.775>
VStem: 13 133<623.075 715.663> 256 142<623.44 715.015>
LayerCount: 2
Fore
SplineSet
80 336 m 5
 65 458 l 5
 239 473 245 526 245 526 c 5
 245 526 223 511 163 511 c 4
 70 511 13 572 13 665 c 4
 13 766 65 843 201 843 c 4
 319 843 398 782 398 632 c 4
 398 490 322 350 80 336 c 5
256 669 m 4
 256 705 235 727 202 727 c 4
 168 727 146 705 146 669 c 4
 146 634 168 612 202 612 c 4
 235 612 256 634 256 669 c 4
EndSplineSet
EndChar

StartChar: zero.inferior
Encoding: 667 8320 158
Width: 450
HStem: -358 132<178.506 271.637> 11 132<178.506 271.637>
VStem: 13 137<-195.237 -20.8859> 300 137<-195.237 -20.8859>
LayerCount: 2
Fore
SplineSet
150 -109 m 0
 150 -180 179 -226 225 -226 c 0
 271 -226 300 -180 300 -109 c 4
 300 -35 271 11 225 11 c 0
 179 11 150 -35 150 -109 c 0
13 -109 m 0
 13 45 96 143 225 143 c 0
 355 143 437 45 437 -109 c 4
 437 -261 355 -358 225 -358 c 0
 96 -358 13 -261 13 -109 c 0
EndSplineSet
EndChar

StartChar: one.inferior
Encoding: 668 8321 159
Width: 247
HStem: 22 115<10 86>
VStem: 83 144<-350 23>
LayerCount: 2
Fore
SplineSet
224 137 m 1
 227 -350 l 1
 83 -350 l 1
 86 23 l 5
 7 22 l 5
 10 137 l 5
 224 137 l 1
EndSplineSet
EndChar

StartChar: two.inferior
Encoding: 669 8322 160
Width: 396
HStem: -350 124<228 377> 18 125<79.9609 204.484>
VStem: 220 150<-106.595 2.11942>
LayerCount: 2
Fore
SplineSet
228 -226 m 1
 383 -222 l 1
 377 -350 l 1
 20 -350 l 1
 13 -250 l 1
 13 -250 220 -157 220 -50 c 4
 220 -4 194 18 150 18 c 4
 93 18 58 -21 58 -21 c 1
 11 92 l 1
 11 92 74 143 181 143 c 4
 303 143 370 81 370 -17 c 4
 370 -160 228 -226 228 -226 c 1
EndSplineSet
EndChar

StartChar: three.inferior
Encoding: 670 8323 161
Width: 387
HStem: -357 116<32.7373 216.359> 4 133<20 183>
VStem: 224 149<-230.319 -160.421>
LayerCount: 2
Fore
SplineSet
265 -70 m 1
 265 -70 373 -83 373 -206 c 0
 373 -305 297 -357 178 -357 c 0
 57 -357 5 -328 5 -328 c 1
 34 -215 l 5
 34 -215 85 -241 156 -241 c 0
 204 -241 224 -224 224 -195 c 0
 224 -169 203 -152 161 -152 c 0
 124 -152 104 -158 104 -158 c 1
 87 -83 l 1
 183 8 l 1
 13 4 l 1
 20 137 l 1
 353 137 l 1
 359 31 l 1
 265 -70 l 1
EndSplineSet
EndChar

StartChar: four.inferior
Encoding: 671 8324 162
Width: 472
HStem: -238 114<168 453>
LayerCount: 2
Fore
SplineSet
383 38 m 1
 387 -350 l 1
 248 -350 l 1
 252 38 l 1
 383 38 l 1
199 155 m 1
 314 83 l 1
 168 -124 l 1
 457 -121 l 1
 453 -243 l 1
 34 -238 l 1
 9 -154 l 1
 199 155 l 1
EndSplineSet
EndChar

StartChar: five.inferior
Encoding: 672 8325 163
Width: 387
HStem: -357 116<48.7181 215.906> -138 107<149.471 273.827> 16 121<159 346>
VStem: 227 146<-228.208 -150.799>
LayerCount: 2
Fore
SplineSet
346 15 m 5
 159 16 l 25
 149 -43 l 17
 149 -43 167 -31 217 -31 c 0
 330 -31 373 -93 373 -186 c 0
 373 -305 297 -357 178 -357 c 0
 57 -357 5 -321 5 -321 c 1
 33 -212 l 1
 33 -212 85 -241 156 -241 c 0
 204 -241 227 -220 227 -187 c 0
 227 -157 203 -138 154 -138 c 0
 110 -138 84 -158 84 -158 c 1
 13 -95 l 1
 53 137 l 1
 346 137 l 1
 346 15 l 5
EndSplineSet
EndChar

StartChar: six.inferior
Encoding: 673 8326 164
Width: 411
HStem: -358 116<166.406 253.396> -127 101<167.272 254.236> 27 122<232.212 331.918>
VStem: 13 142<-229.634 -138.817> 265 133<-231.044 -137.697>
LayerCount: 2
Fore
SplineSet
331 149 m 5
 347 27 l 5
 173 12 167 -41 167 -41 c 5
 167 -41 189 -26 249 -26 c 4
 342 -26 398 -87 398 -180 c 4
 398 -281 346 -358 210 -358 c 4
 92 -358 13 -297 13 -147 c 4
 13 -5 89 135 331 149 c 5
155 -184 m 4
 155 -220 177 -242 210 -242 c 4
 244 -242 265 -220 265 -184 c 4
 265 -149 244 -127 210 -127 c 4
 177 -127 155 -149 155 -184 c 4
EndSplineSet
EndChar

StartChar: seven.inferior
Encoding: 674 8327 165
Width: 378
HStem: 13 124<135 229>
LayerCount: 2
Fore
SplineSet
5 -64 m 1
 25 137 l 1
 351 137 l 1
 385 52 l 1
 231 -361 l 1
 87 -318 l 1
 229 14 l 5
 135 13 l 5
 124 -76 l 1
 5 -64 l 1
EndSplineSet
EndChar

StartChar: eight.inferior
Encoding: 675 8328 166
Width: 405
HStem: -358 114<152.151 242.807> 31 112<165.236 246.111>
VStem: 13 132<-235.467 -154.375> 30 131<-33.7407 26.9785> 249 143<-237.455 -170.231> 250 123<-51.6227 24.9496>
LayerCount: 2
Fore
SplineSet
199 -244 m 0xe8
 230 -244 249 -229 249 -204 c 0xe8
 249 -179 231 -167 176 -147 c 0
 79 -112 30 -66 30 8 c 0
 30 91 98 143 205 143 c 0
 308 143 373 96 373 12 c 0
 373 -77 276 -109 276 -109 c 1
 196 -73 l 1
 196 -73 250 -46 250 -9 c 4
 250 16 233 31 205 31 c 4
 178 31 161 17 161 -5 c 4xd4
 161 -25 176 -35 222 -47 c 4
 347 -80 392 -124 392 -207 c 0
 392 -301 322 -358 204 -358 c 0
 90 -358 13 -302 13 -219 c 0
 13 -127 105 -97 105 -97 c 1
 188 -138 l 1
 188 -138 145 -158 145 -201 c 0
 145 -227 166 -244 199 -244 c 0xe8
EndSplineSet
EndChar

StartChar: nine.inferior
Encoding: 676 8329 167
Width: 411
HStem: -364 122<79.1393 179.788> -189 101<157.445 244.839> 27 116<157.785 244.775>
VStem: 13 133<-76.9251 15.6629> 256 142<-76.56 15.0153>
LayerCount: 2
Fore
SplineSet
80 -364 m 5
 65 -242 l 5
 239 -227 245 -174 245 -174 c 5
 245 -174 223 -189 163 -189 c 4
 70 -189 13 -128 13 -35 c 4
 13 66 65 143 201 143 c 4
 319 143 398 82 398 -68 c 4
 398 -210 322 -350 80 -364 c 5
256 -31 m 4
 256 5 235 27 202 27 c 4
 168 27 146 5 146 -31 c 4
 146 -66 168 -88 202 -88 c 4
 235 -88 256 -66 256 -31 c 4
EndSplineSet
EndChar

StartChar: fraction
Encoding: 655 8260 168
Width: 238
Flags: W
LayerCount: 2
Fore
SplineSet
411.329101562 682.93359375 m 1
 169.708984375 343.799804688 l 1
 -34.2412109375 -15 l 1
 -135.5703125 47 l 1
 109.908203125 384.200195312 l 1
 316.599609375 743.93359375 l 5
 411.329101562 682.93359375 l 1
EndSplineSet
EndChar

StartChar: perthousand
Encoding: 646 8240 169
Width: 1159
Flags: W
HStem: -10 128.558<626.449 711.656 906.674 994.272> 242.225 128.654<623.649 712.053 906.281 994.669> 358.113 128.558<170.95 257.364> 610.338 128.654<170.557 257.761>
VStem: 19.5205 139.304<497.566 597.934> 269.784 139.336<497.982 597.529> 479.521 133.304<129.452 229.82> 779.521 59.5996<64.4329 297.192> 1005.78 133.336<129.869 229.415>
LayerCount: 2
Fore
SplineSet
158.82421875 549.370117188 m 0xbf80
 158.82421875 511.054017468 180.287135827 486.670898438 214.015625 486.670898438 c 0
 248.096453661 486.670898438 269.784179688 511.054017468 269.784179688 549.370117188 c 0
 269.784179688 586.628380427 248.096453661 610.337890625 214.015625 610.337890625 c 0
 180.287135827 610.337890625 158.82421875 586.628380427 158.82421875 549.370117188 c 0xbf80
19.5205078125 549.512695312 m 0
 19.5205078125 665.306018314 95.1511135263 738.9921875 214 738.9921875 c 0
 333.240276768 738.9921875 409.120117188 665.306018314 409.120117188 549.512695312 c 0
 409.120117188 432.546187025 333.240276768 358.11328125 214 358.11328125 c 0
 95.1511135263 358.11328125 19.5205078125 432.546187025 19.5205078125 549.512695312 c 0
894.82421875 181.256835938 m 4
 894.82421875 142.94125414 916.286671796 118.557617188 950.015625 118.557617188 c 4
 984.096470543 118.557617188 1005.78417969 142.94125414 1005.78417969 181.256835938 c 4
 1005.78417969 218.515347083 984.096470543 242.224609375 950.015625 242.224609375 c 4xdf80
 916.286671796 242.224609375 894.82421875 218.515347083 894.82421875 181.256835938 c 4
779.520507812 181.399414062 m 0
 779.520507812 297.192382812 847.373594989 370.87890625 954 370.87890625 c 0
 1067.12911492 370.87890625 1139.12011719 297.192382812 1139.12011719 181.399414062 c 0
 1139.12011719 64.4326171875 1067.12911492 -10 954 -10 c 0
 847.373594989 -10 779.520507812 64.4326171875 779.520507812 181.399414062 c 0
612.82421875 181.256835938 m 0
 612.82421875 142.940736218 634.287135827 118.557617188 668.015625 118.557617188 c 0
 702.096453661 118.557617188 723.784179688 142.940736218 723.784179688 181.256835938 c 0
 723.784179688 218.515099177 702.096453661 242.224609375 668.015625 242.224609375 c 0
 634.287135827 242.224609375 612.82421875 218.515099177 612.82421875 181.256835938 c 0
479.520507812 181.399414062 m 0
 479.520507812 297.192737064 551.26224047 370.87890625 664 370.87890625 c 0
 771.018033517 370.87890625 839.120117188 297.192737064 839.120117188 181.399414062 c 0
 839.120117188 64.4329057751 771.018033517 -10 664 -10 c 0
 551.26224047 -10 479.520507812 64.4329057749 479.520507812 181.399414062 c 0
EndSplineSet
Refer: 168 8260 N 1 0 0 1 304 0 2
EndChar

StartChar: uni2031
Encoding: 647 8241 170
Width: 1439
Flags: W
HStem: -10 128.558<626.949 712.156 900.888 987.434 1176.84 1261.43> 242.225 128.654<626.556 712.553 900.496 987.83 1176.45 1261.82> 358.113 128.558<170.95 257.364> 610.338 128.654<170.557 257.761>
VStem: 19.5205 139.304<497.566 597.934> 269.784 139.336<497.982 597.529> 479.521 134.304<129.452 229.82> 769.521 69.5996<64.4329 297.192> 1059.52 59.5996<64.4326 297.192> 1274.78 144.336<129.869 229.415>
LayerCount: 2
Fore
SplineSet
158.82421875 549.370117188 m 0xbfc0
 158.82421875 511.054017468 180.287135827 486.670898438 214.015625 486.670898438 c 0
 248.096453661 486.670898438 269.784179688 511.054017468 269.784179688 549.370117188 c 0
 269.784179688 586.628380427 248.096453661 610.337890625 214.015625 610.337890625 c 0
 180.287135827 610.337890625 158.82421875 586.628380427 158.82421875 549.370117188 c 0xbfc0
19.5205078125 549.512695312 m 0
 19.5205078125 665.306018314 95.1511135263 738.9921875 214 738.9921875 c 0
 333.240276768 738.9921875 409.120117188 665.306018314 409.120117188 549.512695312 c 0
 409.120117188 432.546187025 333.240276768 358.11328125 214 358.11328125 c 0
 95.1511135263 358.11328125 19.5205078125 432.546187025 19.5205078125 549.512695312 c 0
1163.82421875 181.256835938 m 4
 1163.82421875 142.94125414 1185.2866718 118.557617188 1219.015625 118.557617188 c 4
 1253.09647055 118.557617188 1274.78417969 142.94125414 1274.78417969 181.256835938 c 4
 1274.78417969 218.515347083 1253.09647055 242.224609375 1219.015625 242.224609375 c 4xdfc0
 1185.2866718 242.224609375 1163.82421875 218.515347083 1163.82421875 181.256835938 c 4
1059.52050781 181.399414062 m 0
 1059.52050781 297.192382812 1127.37359499 370.87890625 1234 370.87890625 c 0
 1347.12911492 370.87890625 1419.12011719 297.192382812 1419.12011719 181.399414062 c 0
 1419.12011719 64.4326171875 1347.12911492 -10 1234 -10 c 0
 1127.37359499 -10 1059.52050781 64.4326171875 1059.52050781 181.399414062 c 0
888.82421875 181.256835938 m 0
 888.82421875 142.94125414 910.286671796 118.557617188 944.015625 118.557617188 c 0
 978.096470543 118.557617188 999.784179688 142.94125414 999.784179688 181.256835938 c 0
 999.784179688 218.515347083 978.096470543 242.224609375 944.015625 242.224609375 c 0
 910.286671796 242.224609375 888.82421875 218.515347083 888.82421875 181.256835938 c 0
769.520507812 181.399414062 m 0
 769.520507812 297.192382812 837.373594989 370.87890625 944 370.87890625 c 0
 1051.01799547 370.87890625 1119.12011719 297.192382812 1119.12011719 181.399414062 c 0
 1119.12011719 64.4326171875 1051.01799547 -10 944 -10 c 0
 837.373594989 -10 769.520507812 64.4326171875 769.520507812 181.399414062 c 0
613.82421875 181.256835938 m 0
 613.82421875 142.940736218 635.287135827 118.557617188 669.015625 118.557617188 c 0
 703.096453661 118.557617188 724.784179688 142.940736218 724.784179688 181.256835938 c 0
 724.784179688 218.515099177 703.096453661 242.224609375 669.015625 242.224609375 c 0
 635.287135827 242.224609375 613.82421875 218.515099177 613.82421875 181.256835938 c 0
479.520507812 181.399414062 m 0
 479.520507812 297.192737064 551.26224047 370.87890625 664 370.87890625 c 0
 771.018033517 370.87890625 839.120117188 297.192737064 839.120117188 181.399414062 c 0
 839.120117188 64.4329057751 771.018033517 -10 664 -10 c 0
 551.26224047 -10 479.520507812 64.4329057749 479.520507812 181.399414062 c 0
EndSplineSet
Refer: 168 8260 N 1 0 0 1 304 0 2
EndChar

StartChar: Lslash
Encoding: 255 321 171
Width: 620
Flags: W
HStem: 0 111.293<279.064 596.539> 495 20G<405.247 448.714> 620.084 110.927<23.6201 148.151>
VStem: 143.43 135.635<111.293 620.084>
LayerCount: 2
Fore
SplineSet
443 515 m 13
 477 396 l 21
 259 320.293945312 l 1
 49 207 l 9
 11 329 l 17
 233 403.75 l 1
 443 515 l 13
EndSplineSet
Refer: 44 76 N 1 0 0 1 0 0 2
EndChar

StartChar: lslash
Encoding: 256 322 172
Width: 387
Flags: W
HStem: 0 91.3975<259.129 373.539> 664.075 90.9268<33.6201 148.151>
VStem: 143.83 115.299<91.3975 664.075>
LayerCount: 2
Fore
SplineSet
363 555 m 13
 397 436 l 21
 219 360.293945312 l 1
 49 257 l 9
 11 379 l 17
 193 443.75 l 1
 363 555 l 13
EndSplineSet
Refer: 8 108 N 1 0 0 1 0 0 2
EndChar

StartChar: quoteright
Encoding: 635 8217 173
Width: 229
Flags: W
HStem: 445 320
VStem: 21 177
LayerCount: 2
Fore
SplineSet
21 723 m 9
 129 765 l 1
 198 626 l 1
 100 445 l 1
 22 487 l 21
 89 606 l 1
 21 723 l 9
EndSplineSet
EndChar

StartChar: uni2120
Encoding: 702 8480 179
Width: 540
Flags: W
HStem: 518 21G<364.292 388.599>
VStem: 8.00098 96.9072<651.153 689.211> 90.0488 96.8857<546.92 591.269>
LayerCount: 2
Fore
SplineSet
150.276367188 765.357421875 m 1xc0
 150.276367188 765.357421875 8.0009765625 762.795898438 8.0009765625 671.666015625 c 0xc0
 8.0009765625 635.641601562 23 614 69.361328125 591.0625 c 4
 85.667126102 582.995124534 90.048828125 576.771484375 90.048828125 568.400390625 c 0
 90.048828125 539.849609375 18.888671875 536.673828125 18.888671875 536.673828125 c 1
 29.77734375 462.049804688 l 1
 29.77734375 462.049804688 186.934570312 464.396484375 186.934570312 570.418945312 c 0xa0
 186.934570312 604.958007812 174.68359375 627.94140625 140.114257812 644.260742188 c 0
 110.004882812 658.475585938 104.908203125 664.848632812 104.908203125 672.774414062 c 0
 104.908203125 693.403320312 162.6171875 697.837890625 162.6171875 697.837890625 c 1
 150.276367188 765.357421875 l 1xc0
237.327148438 688.084960938 m 1
 191 685.631835938 l 1
 189.248046875 762.404296875 l 1
 334.091796875 766.404296875 l 1
 379 664.799804688 l 1
 434.599609375 766 l 1
 520.200195312 762.400390625 l 1
 543.799804688 472 l 1
 455 466.400390625 l 1
 443.400390625 626.400390625 l 1
 376.200195312 518 l 1
 313.799804688 622.799804688 l 1
 300.200195312 467.599609375 l 1
 219.799804688 473.599609375 l 1
 237.327148438 688.084960938 l 1
EndSplineSet
Validated: 9
EndChar

StartChar: trademark
Encoding: 703 8482 180
Width: 608
Flags: W
HStem: 518 21G<431.492 455.799> 693.2 12.833<74.4609 157.642> 693.232 69.1719<5.44824 74.4609 157.642 227.492>
VStem: 72.7324 86.5312<470 705.2>
LayerCount: 2
Fore
SplineSet
157.641601562 705.200195312 m 1xd0
 159.263671875 470 l 1
 72.732421875 470 l 1
 74.4609375 706.033203125 l 1
 157.641601562 705.200195312 l 1xd0
116.841796875 693.200195312 m 1
 4 693.232421875 l 1
 5.4482421875 762.404296875 l 1
 227.4921875 762.404296875 l 1xb0
 229.845703125 691.599609375 l 1
 116.841796875 693.200195312 l 1
304.52734375 688.084960938 m 5
 258.200195312 685.631835938 l 5
 256.448242188 762.404296875 l 5
 401.291992188 766.404296875 l 5
 446.200195312 664.799804688 l 5
 501.799804688 766 l 5
 587.400390625 762.400390625 l 5
 611 472 l 5
 522.200195312 466.400390625 l 5
 510.599609375 626.400390625 l 5
 443.400390625 518 l 5
 381 622.799804688 l 5
 367.400390625 467.599609375 l 5
 287 473.599609375 l 5
 304.52734375 688.084960938 l 5
EndSplineSet
Validated: 5
EndChar

StartChar: uni2117
Encoding: 701 8471 181
Width: 795
Flags: W
HStem: -10.0664 100.877<283.004 518.138> 248.358 105<391.657 478.964> 466.193 117.6<391.098 479.182> 466.193 33.7549<311.555 389.957> 640.64 98.2939<286.076 514.996>
VStem: 20 108<243.344 482.978> 268.919 121.038<140.398 275.059 371.924 499.948> 490.305 125.4<364.278 453.008> 674.117 100.883<243.344 482.978>
LayerCount: 2
Fore
SplineSet
391.956054688 140.3984375 m 5xdf80
 265.216796875 140.3984375 l 5
 268.918945312 499.948242188 l 5
 389.95703125 499.948242188 l 5
 391.956054688 140.3984375 l 5xdf80
365.072265625 371.923828125 m 5
 365.072265625 371.923828125 382.251953125 353.358398438 426.705078125 353.358398438 c 4
 468.390625 353.358398438 490.3046875 374.924804688 490.3046875 409.7578125 c 4
 490.3046875 447.546875 467.3046875 466.193359375 416.504882812 466.193359375 c 4
 311.5546875 466.193359375 218.116210938 423.254882812 218.116210938 423.254882812 c 5
 193.354492188 539.302734375 l 5
 193.354492188 539.302734375 262.953125 583.79296875 426.705078125 583.79296875 c 4xef80
 543.3046875 583.79296875 615.705078125 519.346679688 615.705078125 406.7578125 c 4
 615.705078125 310.690429688 552.637695312 248.358398438 450.705078125 248.358398438 c 4
 386.416992188 248.358398438 347.708984375 275.05859375 347.708984375 275.05859375 c 5
 365.072265625 371.923828125 l 5
20 361.93359375 m 0
 20 592.322641811 166.610951939 738.93359375 397 738.93359375 c 0
 628.000476926 738.93359375 775 592.322641811 775 361.93359375 c 0
 775 134.599173678 628.000476926 -10.06640625 397 -10.06640625 c 0
 166.610951939 -10.06640625 20 134.599173678 20 361.93359375 c 0
128 361.93359375 m 0
 128 196.246930926 232.9990625 90.810546875 398 90.810546875 c 0
 566.738726451 90.810546875 674.1171875 196.246930926 674.1171875 361.93359375 c 0
 674.1171875 532.255308483 566.738726451 640.639648438 398 640.639648438 c 0
 232.9990625 640.639648438 128 532.255308483 128 361.93359375 c 0
EndSplineSet
Validated: 5
EndChar

StartChar: lira
Encoding: 679 8356 182
Width: 576
Flags: W
HStem: 0 171.293<259.064 556.539> 218 109<254.044 428> 226 100<14 351.33> 358 109<269.935 438> 366 100<24 374.22>
LayerCount: 2
Back
SplineSet
14 326 m 1
 430 327 l 1
 428 218 l 1
 12 226 l 1
 14 326 l 1
24 466 m 1
 440 467 l 1
 438 358 l 1
 22 366 l 1
 24 466 l 1
EndSplineSet
Fore
SplineSet
14 326 m 1xa0
 208 320.466796875 l 1
 430 327 l 1
 428 218 l 1xc0
 190 227.577148438 l 1
 12 226 l 1
 14 326 l 1xa0
24 466 m 5x88
 225 461 l 5
 440 467 l 5
 438 358 l 5x90
 215 367.288085938 l 5
 22 366 l 5
 24 466 l 5x88
259.064453125 171.29296875 m 1
 560.159179688 172.930664062 l 1
 556.5390625 0 l 1
 23.4296875 0 l 1
 44.9454523104 452.125433501 138.308892123 623.005046291 431.930664062 747.6640625 c 1
 528.798828125 596.354492188 l 1
 358.057748787 525.209540867 278.173342051 399.323518271 259.064453125 171.29296875 c 1
EndSplineSet
Validated: 5
EndChar

StartChar: Euro
Encoding: 684 8364 183
Width: 541
Flags: W
HStem: 246 100<12 252.122> 378 109<369.91 462.978>
LayerCount: 2
Fore
SplineSet
12 346 m 1
 238 339.5078125 l 1
 456.83984375 347 l 1
 436.7734375 238 l 1
 232 252.213867188 l 5
 10 246 l 1
 12 346 l 1
15 486 m 1
 248 472.45703125 l 1
 483.043945312 487 l 1
 462.977539062 378 l 1
 240 387.963867188 l 1
 13 386 l 1
 15 486 l 1
488 -33.06640625 m 1
 220.944259941 -11.8298471102 51 120.543550932 51 361.93359375 c 0
 51 598.46956446 224.833144608 728.46176596 498 748.9921875 c 1
 522 553.9921875 l 1
 372.276861082 531.667398071 277 479.303808586 277 361.93359375 c 0
 277 240.322050781 357.522558594 186.909497364 515 162.93359375 c 1
 488 -33.06640625 l 1
EndSplineSet
Validated: 5
EndChar

StartChar: uni20B5
Encoding: 691 8373 184
Width: 461
Flags: W
HStem: 0 21G<225.82 362.82> 91.9014 123.099<242.82 343.82> 524 95.457<240.82 341.82> 719 20G<221.82 358.82>
VStem: 20 203.22<291.265 424.607>
LayerCount: 2
Fore
SplineSet
362.8203125 0 m 1
 225.8203125 0 l 1
 242.8203125 215 l 1
 343.8203125 215 l 1
 362.8203125 0 l 1
221.8203125 739 m 1
 358.8203125 739 l 1
 341.8203125 524 l 1
 240.8203125 524 l 1
 221.8203125 739 l 1
20 357.576171875 m 0
 20 517.614257812 126.452148438 619.45703125 293.735351562 619.45703125 c 0
 406.329101562 619.45703125 454.184570312 569.0703125 454.184570312 569.0703125 c 1
 405.112304688 429.358398438 l 1
 405.112304688 429.358398438 371.970703125 458.0390625 320.436523438 458.0390625 c 0
 261.025390625 458.0390625 223.219726562 421.354492188 223.219726562 363.708007812 c 0
 223.219726562 297.145507812 257.775390625 254.787109375 325.35546875 254.787109375 c 0
 400.325195312 254.787109375 438.297851562 286.900390625 438.297851562 286.900390625 c 1
 471.774414062 132.869140625 l 1
 471.774414062 132.869140625 428.375976562 91.9013671875 293.735351562 91.9013671875 c 0
 126.452148438 91.9013671875 20 195.21875 20 357.576171875 c 0
EndSplineSet
Validated: 5
EndChar

StartChar: uni20B2
Encoding: 688 8370 185
Width: 512
Flags: W
HStem: 0 21G<195.82 332.82> 91.9014 123.099<212.82 313.82> 248.989 122.445<439.916 500.564> 524 95.457<210.82 311.82> 719 20G<191.82 328.82>
VStem: -10 203.22<284.251 424.608> 298.557 203.564<256.849 371.435> 313.82 126.096<135.789 215>
LayerCount: 2
Fore
SplineSet
191.8203125 739 m 1xfc
 328.8203125 739 l 1
 311.8203125 524 l 5
 210.8203125 524 l 5
 191.8203125 739 l 1xfc
332.8203125 0 m 1
 195.8203125 0 l 1
 212.8203125 215 l 5
 313.8203125 215 l 5xfd
 332.8203125 0 l 1
-10 357.576171875 m 4
 -10 517.614257812 96.4521484375 619.45703125 263.735351562 619.45703125 c 4
 376.329101562 619.45703125 424.184570312 569.0703125 424.184570312 569.0703125 c 5
 375.112304688 429.358398438 l 5
 375.112304688 429.358398438 341.970737145 458.0390625 290.436523438 458.0390625 c 4
 231.025663441 458.0390625 193.219726562 421.354817413 193.219726562 363.708007812 c 4
 193.219726562 297.145460845 221.008644775 254.787109375 275.35546875 254.787109375 c 4
 291 254.787109375 298.556640625 256.848632812 298.556640625 256.848632812 c 5
 299.6875 371.434570312 l 5
 500.564453125 371.434570312 l 5
 502.12109375 248.02734375 l 5xfe
 439.916015625 248.989257812 l 5
 441.774414062 132.869140625 l 5
 441.774414062 132.869140625 398.375976562 91.9013671875 263.735351562 91.9013671875 c 4
 96.4521484375 91.9013671875 -10 195.21875 -10 357.576171875 c 4
EndSplineSet
Validated: 5
EndChar

StartChar: uni20AD
Encoding: 685 8365 186
Width: 707
Flags: W
HStem: 0 21G<123.83 340.159> 302 124<24 233.668> 312.186 104.282<118.332 460.102> 560.084 170.927<13.6201 128.151>
VStem: 123.83 216.329<0 312.186 416.467 560.084>
LayerCount: 2
Fore
SplineSet
24 426 m 5xd8
 326 416.46749226 l 5
 670 427 l 5
 668 294 l 5
 330 312.185758514 l 5xb8
 22 302 l 5
 24 426 l 5xd8
334.729492188 731.010742188 m 1
 340.159179688 0 l 1
 123.830078125 0 l 1
 128.151367188 560.083984375 l 1
 10 558.080078125 l 1
 13.6201171875 731.010742188 l 1
 334.729492188 731.010742188 l 1
478 745.0078125 m 1
 672 641.0078125 l 1
 466 364 l 1
 697 88 l 1
 493 -27 l 1
 264 364 l 1
 478 745.0078125 l 1
EndSplineSet
Validated: 5
EndChar

StartChar: uni20AE
Encoding: 686 8366 187
Width: 550
Flags: W
HStem: 0 21G<161.83 378.159> 482.5 20G<410.224 469.302> 558 30<166.151 374.104> 558.08 172.931<13.6201 166.151 374.104 528.729>
VStem: 161.83 216.329<0 262.835 334.912 588>
LayerCount: 2
Fore
SplineSet
53.3798828125 202.71484375 m 5xc8
 268.721679688 262.834960938 l 5
 477.76953125 341.35546875 l 5
 512.74609375 221.365234375 l 5
 292.53515625 173.768554688 l 5
 83.9306640625 97.056640625 l 5
 53.3798828125 202.71484375 l 5xc8
39.08203125 363.859375 m 5
 254.423828125 423.98046875 l 5
 463.471679688 502.5 l 5
 498.448242188 382.509765625 l 5
 278.237304688 334.912109375 l 5
 69.6328125 258.200195312 l 5
 39.08203125 363.859375 l 5
374.103515625 588 m 1xe8
 378.159179688 0 l 1
 161.830078125 0 l 1
 166.151367188 590.083984375 l 1
 374.103515625 588 l 1xe8
272.103515625 558 m 1
 10 558.080078125 l 1
 13.6201171875 731.010742188 l 1xd8
 528.729492188 731.010742188 l 1
 534.61328125 554 l 1
 272.103515625 558 l 1
EndSplineSet
Validated: 5
EndChar

StartChar: uni20B1
Encoding: 687 8369 188
Width: 722
Flags: W
HStem: 0 21G<87.7705 299.003> 169.934 175<300.341 403.666> 286 100<12 214.906> 296 94.4668<464 653.712> 380.467 36.8213<178 243> 390.467 36.8213<575 676.743> 426 100<474 671.389> 511 31.9922<107.075 266> 542.992 196<8.50073 394.495> 542.992 56.2578<118.508 295.67>
VStem: 87.7705 211.232<0 194.434 287.577 365.877 380.467 417.288 511 599.25> 472 162.917<426 526>
LayerCount: 2
Fore
SplineSet
464 396 m 1x9030
 568 390.466796875 l 1
 705 397 l 1
 703 288 l 1
 550 297.577148438 l 1
 462 296 l 1
 464 396 l 1x9030
474 526 m 1x8230
 585 521 l 1
 712 527 l 1
 710 418 l 1
 575 427.288085938 l 1x8430
 472 426 l 1
 474 526 l 1x8230
12 386 m 5xa030
 178 380.466796875 l 1x8830
 243 387 l 1
 241 278 l 1
 160 287.577148438 l 1
 10 286 l 5
 12 386 l 5xa030
14 516 m 5
 195 511 l 1x8930
 266 517 l 1
 264 408 l 1
 185 417.288085938 l 1
 12 416 l 5
 14 516 l 5
299.002929688 0 m 1
 87.7705078125 0 l 1
 93.9404296875 599.25 l 1
 295.669921875 599.25 l 1x8070
 299.002929688 0 l 1
214.196289062 365.876953125 m 1
 214.196289062 365.876953125 249.885742188 344.93359375 330.916992188 344.93359375 c 0
 400.392578125 344.93359375 435.916992188 381.877929688 435.916992188 439.93359375 c 0
 435.916992188 502.9140625 392.583984375 542.9921875 303.916992188 542.9921875 c 0
 118.5078125 542.9921875 9.26953125 531.427734375 9.26953125 531.427734375 c 1
 -2 724.840820312 l 1
 -2 724.840820312 86.1025390625 738.9921875 316.916992188 738.9921875 c 0
 511.25 738.9921875 634.916992188 619.581054688 634.916992188 431.93359375 c 0
 634.916992188 271.821289062 526.805664062 169.93359375 356.916992188 169.93359375 c 0xc0b0
 249.770507812 169.93359375 185.2578125 194.43359375 185.2578125 194.43359375 c 1
 214.196289062 365.876953125 l 1
EndSplineSet
Validated: 5
EndChar

StartChar: uni20B3
Encoding: 689 8371 189
Width: 768
Flags: W
HStem: 110.712 109<103.25 756> 118.712 100<12 662.75> 250.712 109<133.25 716> 258.712 100<52 632.75> 529.069 191.931<83.8193 215.508> 711 20G<79.4395 488.11>
LayerCount: 2
Fore
SplineSet
215.5078125 534.112304688 m 1x04
 83.8193359375 529.069335938 l 1
 79.439453125 721 l 1x08
 481.548828125 731 l 1
 716.450195312 14.9111328125 l 1
 505.176757812 -15 l 1
 374.818359375 476.8671875 l 1
 237.819335938 -15 l 1
 28.2734375 19 l 1
 215.5078125 534.112304688 l 1x04
52 358.711914062 m 1x10
 718 359.711914062 l 1
 716 250.711914062 l 1x20
 50 258.711914062 l 1
 52 358.711914062 l 1x10
12 218.711914062 m 1x40
 758 219.711914062 l 1
 756 110.711914062 l 1x80
 10 118.711914062 l 1
 12 218.711914062 l 1x40
EndSplineSet
Validated: 5
EndChar

StartChar: uni20B4
Encoding: 690 8372 190
Width: 598
Flags: W
HStem: 228 109<330.881 556> 236 100<12 456.78> 368 109<350.106 586> 376 100<22 185.052 273 496.479> 718.393 20G<155.99 159.646>
VStem: 68 237.215<212.673 302.159>
LayerCount: 2
Fore
SplineSet
159.645507812 738.392578125 m 5x0c
 159.645507812 738.392578125 515.3359375 731.98828125 515.3359375 504.162109375 c 4
 515.3359375 414.102539062 486.291015625 366.442382812 356.934570312 302.655273438 c 4
 316.143554688 282.541015625 305.21484375 266.92578125 305.21484375 246 c 4
 305.21484375 174.623046875 488.115234375 166.682617188 488.115234375 166.682617188 c 5
 460.893554688 -19.8779296875 l 5
 460.893554688 -19.8779296875 68 -14.009765625 68 251.044921875 c 4
 68 337.392578125 98.6279296875 394.850585938 185.051757812 435.650390625 c 4
 260.326171875 471.186523438 273.067382812 487.119140625 273.067382812 506.93359375 c 4
 273.067382812 558.505859375 128.794921875 569.592773438 128.794921875 569.592773438 c 5
 159.645507812 738.392578125 l 5x0c
12 336 m 1x4c
 266 330.466796875 l 1
 558 337 l 1
 556 228 l 1x8c
 248 237.577148438 l 1
 10 236 l 1
 12 336 l 1x4c
22 476 m 1x1c
 283 471 l 1
 588 477 l 1
 586 368 l 1x2c
 273 377.288085938 l 1
 20 376 l 1
 22 476 l 1x1c
EndSplineSet
Validated: 5
EndChar

StartChar: uni20B8
Encoding: 692 8376 191
Width: 590
Flags: W
HStem: 0 21G<181.83 398.159> 378 30<186.151 394.104> 378.08 142.931<13.6201 186.151 394.104 568.729> 578.08 152.931<23.6201 558.729>
VStem: 181.83 216.329<0 408>
LayerCount: 2
Fore
SplineSet
292.103515625 378 m 5xd8
 10 378.080078125 l 5
 13.6201171875 521.010742188 l 1
 568.729492188 521.010742188 l 1xb8
 574.61328125 374 l 5
 292.103515625 378 l 5xd8
394.103515625 408 m 5xd8
 398.159179688 0 l 1
 181.830078125 0 l 1
 186.151367188 410.083984375 l 5
 394.103515625 408 l 5xd8
20 578.080078125 m 1
 23.6201171875 731.010742188 l 1
 558.729492188 731.010742188 l 1
 564.61328125 574 l 1
 20 578.080078125 l 1
EndSplineSet
Validated: 5
EndChar

StartChar: uni20B9
Encoding: 693 8377 192
Width: 646
Flags: W
HStem: 411.934 109<465.935 634> 419.934 100<110 570.22> 562.992 176<31.6968 297.21>
VStem: 339.917 209<357.297 587.47>
LayerCount: 2
Fore
SplineSet
110 519.93359375 m 5x70
 421 514.93359375 l 5
 636 520.93359375 l 5
 634 411.93359375 l 5xb0
 411 421.221679688 l 5
 108 419.93359375 l 5
 110 519.93359375 l 5x70
124.196289062 386.876953125 m 5
 124.196289062 386.876953125 156.828125 374.93359375 230.916992188 374.93359375 c 4
 303.038085938 374.93359375 339.916992188 409.155273438 339.916992188 462.93359375 c 4
 339.916992188 524.081054688 295.270507812 562.9921875 203.916992188 562.9921875 c 4
 85.4541015625 562.9921875 19.26953125 537.427734375 19.26953125 537.427734375 c 1
 -2 710.840820312 l 1
 -2 710.840820312 52.2421875 738.9921875 226.916992188 738.9921875 c 4
 423.6953125 738.9921875 548.916992188 650.858398438 548.916992188 480.93359375 c 4
 548.916992188 305.439453125 384.740234375 241.040039062 384.740234375 241.040039062 c 5
 549.770507812 138 l 5
 425.770507812 -37 l 5
 83.2578125 228.43359375 l 5
 124.196289062 386.876953125 l 5
EndSplineSet
Validated: 5
EndChar

StartChar: uni20BA
Encoding: 694 8378 193
Width: 643
Flags: W
HStem: -9.99805 200.877<240.95 409.979> 711.01 20G<110.621 316.809>
VStem: 105.348 215.635<293.769 382.835 454.912 731.01>
LayerCount: 2
Fore
SplineSet
15.2978515625 322.71484375 m 1
 230.639648438 382.834960938 l 1
 439.6875 461.35546875 l 1
 474.6640625 341.365234375 l 1
 254.453125 293.768554688 l 1
 45.8486328125 217.056640625 l 1
 15.2978515625 322.71484375 l 1
1 483.859375 m 1
 216.341796875 543.98046875 l 1
 425.389648438 622.5 l 1
 460.366210938 502.509765625 l 1
 240.155273438 454.912109375 l 1
 31.55078125 378.200195312 l 1
 1 483.859375 l 1
320.982421875 195.29296875 m 1
 320.982421875 195.29296875 331.477539062 190.87890625 351.380859375 190.87890625 c 0
 398.19921875 190.87890625 429.047851562 211.090820312 445.91796875 293 c 1
 631.91796875 256 l 1
 607.461914062 105.546875 538.724609375 -9.998046875 299.91796875 -9.998046875 c 0
 181.982421875 -9.998046875 105.34765625 0 105.34765625 0 c 1
 110.76953125 731.009765625 l 1
 316.647460938 731.009765625 l 1
 320.982421875 195.29296875 l 1
EndSplineSet
Validated: 5
EndChar

StartChar: breve
Encoding: 430 728 194
Width: 332
Flags: W
HStem: 556 130<104.844 232.226>
LayerCount: 2
Fore
SplineSet
168 556 m 0
 61.9767473296 556 -5 636 -5 636 c 29
 63 748 l 25
 63 748 106.282819864 686 167 686 c 0
 226.162790698 686 273 742 273 742 c 25
 337 642 l 29
 337 642 286 556 168 556 c 0
EndSplineSet
Validated: 1
EndChar

StartChar: dotaccent
Encoding: 431 729 195
Width: 240
Flags: W
HStem: 599.008 140<66.7426 173.257>
VStem: 50 140<615.75 722.265>
LayerCount: 2
Fore
SplineSet
50 669.0078125 m 0
 50 711.785866478 77.2219460228 739.0078125 120 739.0078125 c 0
 162.778053978 739.0078125 190 711.785866478 190 669.0078125 c 4
 190 626.229758522 162.778053978 599.0078125 120 599.0078125 c 0
 77.2219460228 599.0078125 50 626.229758522 50 669.0078125 c 0
EndSplineSet
EndChar

StartChar: ogonek
Encoding: 433 731 196
Width: 207
Flags: W
HStem: -248 81<131.585 195.519>
VStem: 20 104<-158.34 -53.4902>
LayerCount: 2
Fore
SplineSet
190 18 m 5
 190 18 124 -65.7008797666 124 -124 c 0
 124 -157.041407437 146.4 -166.413636364 201 -167 c 1
 195 -248 l 1
 79.5177664972 -242 20 -216.730463477 20 -136 c 0
 20 -47.52 97 22 97 22 c 5
 190 18 l 5
EndSplineSet
Validated: 1
EndChar

StartChar: ring
Encoding: 432 730 197
Width: 307
Flags: W
HStem: 478.113 89.3027<123.522 187.276> 649.593 89.3994<121.613 187.458>
VStem: 20 98.3838<570.412 645.759> 191.184 96.416<571.06 646.249>
LayerCount: 2
Fore
SplineSet
118.383789062 609.416015625 m 0
 118.383789062 583.74975586 132.420436905 567.416015625 154.479492188 567.416015625 c 0
 176.909817361 567.416015625 191.18359375 583.74975586 191.18359375 609.416015625 c 0
 191.18359375 633.968760368 176.909817361 649.592773438 154.479492188 649.592773438 c 0
 132.420436905 649.592773438 118.383789062 633.968760368 118.383789062 609.416015625 c 0
20 609.512695312 m 0
 20 688.639014575 72.2975427796 738.9921875 154.479492188 738.9921875 c 0
 235.830785956 738.9921875 287.599609375 685.717408692 287.599609375 602 c 0
 287.599609375 526.291133604 235.830785956 478.11328125 154.479492188 478.11328125 c 0
 72.2975427796 478.11328125 20 529.212718171 20 609.512695312 c 0
EndSplineSet
Validated: 1
EndChar

StartChar: hungarumlaut
Encoding: 435 733 198
Width: 420
Flags: W
HStem: 509.248 235.246
LayerCount: 2
Fore
SplineSet
300.5078125 744.494140625 m 29
 412.631835938 662.544921875 l 29
 273.493164062 509.248046875 l 29
 201.208984375 560.534179688 l 29
 300.5078125 744.494140625 l 29
110.5078125 744.494140625 m 25
 222.631835938 662.544921875 l 25
 83.4931640625 509.248046875 l 25
 11.208984375 560.534179688 l 25
 110.5078125 744.494140625 l 25
EndSplineSet
Validated: 1
EndChar

StartChar: partialdiff
Encoding: 714 8706 199
Width: 615
Flags: W
HStem: -10.0664 174.925<240.19 350.504> 342.009 154.925<245.753 358.249>
VStem: 20 194.375<189.865 312.608> 380.625 214.375<196.085 451.398>
LayerCount: 2
Fore
SplineSet
214.375 249.858398438 m 0
 214.375 197.913856907 245.793945312 164.858398438 292.025390625 164.858398438 c 0
 347.391601562 164.858398438 380.625 201.802734375 380.625 259.858398438 c 0
 380.625 310.061705126 350.836461863 342.008789062 304.025390625 342.008789062 c 0
 249.238805404 342.008789062 214.375 306.172851562 214.375 249.858398438 c 0
20 239.93359375 m 0
 20 403.100373145 114.111328125 496.93359375 262 496.93359375 c 0
 359.9299275 496.93359375 403.90234375 447.057617188 403.90234375 447.057617188 c 5
 383.782977401 519.482091024 328.206747095 562.088829469 172.021484375 589.267578125 c 1
 212.770507812 753.510742188 l 1
 476.724663068 732.027172961 595 570.795761438 595 332 c 0
 595 103.182430662 473.373723448 -10.06640625 279 -10.06640625 c 0
 121.944335938 -10.06640625 20 87.155085637 20 239.93359375 c 0
EndSplineSet
EndChar

StartChar: emptyset
Encoding: 715 8709 200
Width: 795
Flags: W
HStem: -10.0664 100.877<283.004 518.138> 640.64 98.2939<286.076 524.103>
VStem: 20 108<243.344 482.978> 674.117 100.883<243.344 482.978>
LayerCount: 2
Fore
SplineSet
710.94921875 726.93359375 m 5
 442.330078125 339.799804688 l 5
 185.37890625 -81 l 5
 84.05078125 -17 l 5
 366.529296875 378.200195312 l 5
 616.220703125 793.93359375 l 5
 710.94921875 726.93359375 l 5
20 361.93359375 m 0
 20 592.322641811 166.610951939 738.93359375 397 738.93359375 c 0
 628.000476926 738.93359375 775 592.322641811 775 361.93359375 c 0
 775 134.599173678 628.000476926 -10.06640625 397 -10.06640625 c 0
 166.610951939 -10.06640625 20 134.599173678 20 361.93359375 c 0
128 361.93359375 m 0
 128 196.246930926 232.9990625 90.810546875 398 90.810546875 c 0
 566.738726451 90.810546875 674.1171875 196.246930926 674.1171875 361.93359375 c 0
 674.1171875 532.255308483 566.738726451 640.639648438 398 640.639648438 c 0
 232.9990625 640.639648438 128 532.255308483 128 361.93359375 c 0
EndSplineSet
Validated: 5
EndChar

StartChar: Delta
Encoding: 716 8710 201
Width: 670
Flags: W
HStem: 0 178.317<234.086 432.606> 529.069 191.931<45.8193 177.508> 711 20G<41.4395 450.764>
LayerCount: 2
Fore
SplineSet
177.5078125 534.112304688 m 1xa0
 45.8193359375 529.069335938 l 1
 41.439453125 721 l 1xc0
 443.548828125 731 l 1
 660 131 l 1
 643 0 l 1
 27 0 l 1
 10 127 l 1
 177.5078125 534.112304688 l 1xa0
432.606445312 179.631835938 m 5
 336.818359375 476.8671875 l 1
 234.0859375 178.317382812 l 1
 432.606445312 179.631835938 l 5
EndSplineSet
Validated: 1
EndChar

StartChar: notequal
Encoding: 726 8800 202
Width: 450
Flags: W
HStem: 197 97<151.2 399> 207 90<46 292.8> 373 90<48 403>
LayerCount: 2
Fore
SplineSet
256.526367188 596.734375 m 5x20
 368.124023438 560.322265625 l 5
 263.0859375 315.234375 l 5
 192.477539062 78.1787109375 l 5
 81.7880859375 115.673828125 l 5
 183.328125 343.390625 l 5
 256.526367188 596.734375 l 5x20
EndSplineSet
Refer: 19 61 N 1 0 0 1 0 0 2
EndChar

StartChar: approxequal
Encoding: 725 8776 203
Width: 450
Flags: W
LayerCount: 2
Fore
SplineSet
279.991210938 281.168945312 m 1
 374.650390625 344.280273438 l 1
 446.330078125 239 l 1
 284.950195312 116.959960938 l 1
 170.009765625 207.791015625 l 1
 85.3505859375 144.6796875 l 1
 3.669921875 249.959960938 l 1
 165.05078125 372 l 1
 279.991210938 281.168945312 l 1
279.991210938 501.168945312 m 1
 374.650390625 564.280273438 l 1
 446.330078125 459 l 1
 284.950195312 336.959960938 l 1
 170.009765625 427.791015625 l 1
 85.3505859375 364.6796875 l 1
 3.669921875 469.959960938 l 1
 165.05078125 592 l 1
 279.991210938 501.168945312 l 1
EndSplineSet
Validated: 1
EndChar

StartChar: product
Encoding: 717 8719 204
Width: 853
Flags: W
HStem: 550.084 180.927<13.6201 118.151 325.838 527.979 736.073 840.369>
VStem: 113.83 216.329<-173.994 550.084> 523.83 216.329<-173.994 548.628>
LayerCount: 2
Fore
SplineSet
113.830078125 -173.994140625 m 1
 118.151367188 550.083984375 l 1
 10 548.080078125 l 1
 13.6201171875 731.010742188 l 1
 840.369140625 731.010742188 l 1
 843.989257812 548.080078125 l 1
 736.073242188 550.080078125 l 5
 740.159179688 -173.994140625 l 5
 523.830078125 -173.994140625 l 5
 527.979492188 548.627929688 l 5
 325.837890625 550.083984375 l 1
 330.159179688 -173.994140625 l 1
 113.830078125 -173.994140625 l 1
EndSplineSet
Validated: 1
EndChar

StartChar: summation
Encoding: 718 8721 205
Width: 670
Flags: W
HStem: -173.994 171.293<281.064 656.539> 558.08 172.931<13.6201 138.151 358.104 648.729>
LayerCount: 2
Fore
SplineSet
648.729492188 731.010742188 m 1
 654.61328125 554 l 1
 358.103515625 558 l 5
 504 301 l 5
 281.017578125 -2.513671875 l 5
 281.064453125 -2.701171875 l 5
 660.159179688 -1.0634765625 l 1
 656.5390625 -173.994140625 l 1
 63.4296875 -173.994140625 l 1
 54.87109375 -2.994140625 l 1
 276 302 l 1
 138.151367188 560.083984375 l 1
 10 558.080078125 l 1
 13.6201171875 731.010742188 l 1
 648.729492188 731.010742188 l 1
EndSplineSet
Validated: 1
EndChar

StartChar: integral
Encoding: 724 8747 206
Width: 523
Flags: W
LayerCount: 2
Fore
SplineSet
352.01953125 797.84375 m 5
 507.7265625 688.374023438 l 5
 354.637695312 529.96484375 l 5
 308.63671875 10 l 1
 171.477539062 -204 l 1
 -10.5224609375 -118 l 1
 112.307617188 30 l 1
 165.984375 592.096679688 l 5
 352.01953125 797.84375 l 5
EndSplineSet
Validated: 1
EndChar

StartChar: angleleft
Encoding: 729 9001 268
Width: 382
Flags: W
LayerCount: 2
Fore
SplineSet
212.13671875 300.836914062 m 1
 381 -148.994140625 l 1
 201 -198.994140625 l 1
 1 301.005859375 l 1
 201 791.001953125 l 1
 381 741.001953125 l 1
 212.13671875 300.836914062 l 1
EndSplineSet
Validated: 1
EndChar

StartChar: angleright
Encoding: 730 9002 269
Width: 382
Flags: W
LayerCount: 2
Fore
SplineSet
169.86328125 291.170898438 m 1
 1 741.001953125 l 1
 181 791.001953125 l 1
 381 291.001953125 l 1
 181 -198.994140625 l 1
 1 -148.994140625 l 1
 169.86328125 291.170898438 l 1
EndSplineSet
Validated: 1
EndChar

StartChar: dcroat
Encoding: 207 273 271
Width: 672
Flags: W
HStem: -10.0664 100<209.367 366.154> 0 90.9268<556.849 658.38> 406.934 100<209.367 371.068> 544 100<292 599.38> 735.002 20G<446.875 554.251>
VStem: 30 111<158.441 336.789> 438 118.849<150.988 344.712> 442.271 62.7295<117.013 412.434> 447 107.17<263.934 755.002>
AnchorPoint: "Anchor-0" 483 755.01 basechar 0
AnchorPoint: "Anchor-2" 328 0 basechar 0
LayerCount: 2
Fore
SplineSet
292 644 m 5x3c
 493 639 l 5
 648 645 l 5
 646 536 l 5
 483 545.288085938 l 5
 290 544 l 5
 292 644 l 5x3c
EndSplineSet
Refer: 5 100 S 1 0 0 1 0 0 2
EndChar

StartChar: Hbar
Encoding: 228 294 272
Width: 830
Flags: W
HStem: 0 21G<123.83 340.159 533.83 750.159> 165 172<377.455 604> 176 157<252 474.545> 397.934 109<133.308 818> 406 100<31 713.692> 560.084 170.927<13.6201 128.151 423.62 538.151>
VStem: 123.83 216.329<0 176 333 560.084> 248 92.1592<176 333> 533.83 216.329<0 165 337 560.084>
AnchorPoint: "Anchor-0" 386 731.008 basechar 0
AnchorPoint: "Anchor-2" 432 0 basechar 0
AnchorPoint: "Anchor-2" 432 0 basechar 0
LayerCount: 2
Fore
SplineSet
334.729492188 731.010742188 m 1x8680
 340.159179688 0 l 1
 123.830078125 0 l 1
 128.151367188 560.083984375 l 1
 10 558.080078125 l 1
 13.6201171875 731.010742188 l 1
 334.729492188 731.010742188 l 1x8680
744.729492188 731.010742188 m 1
 750.159179688 0 l 1
 533.830078125 0 l 1
 538.151367188 560.083984375 l 1
 420 558.080078125 l 1
 423.620117188 731.010742188 l 1
 744.729492188 731.010742188 l 1
252 333 m 1xa580
 608 337 l 1
 604 165 l 1xc580
 248 176 l 1
 252 333 l 1xa580
31 506 m 1x8c80
 820 506.93359375 l 1
 818 397.93359375 l 1x9480
 29 406 l 1
 31 506 l 1x8c80
EndSplineSet
Validated: 5
EndChar

StartChar: hbar
Encoding: 229 295 273
Width: 663
Flags: W
HStem: 0 21G<103.83 300.159> 347.934 159<325.167 500.535> 549 109<245.472 406> 557 100<12 345.08> 735.002 20G<108.037 294.873>
VStem: 103.83 196.329<0 253.934 558.288 755.002> 446 192<-1.00814 329.64>
AnchorPoint: "Anchor-0" 174 755.01 basechar 0
AnchorPoint: "Anchor-2" 360 0 basechar 0
LayerCount: 2
Fore
SplineSet
12 657 m 1xde
 203 652 l 1
 408 658 l 1
 406 549 l 1xee
 193 558.288085938 l 1
 10 557 l 1
 12 657 l 1xde
188 253.93359375 m 1
 210.936523438 411.989257812 283.27734375 506.93359375 433 506.93359375 c 0
 568.0703125 506.93359375 638 432.569335938 638 288.93359375 c 0
 638 139.458984375 620.159179688 -15 620.159179688 -15 c 1
 425.830078125 0 l 1
 425.830078125 0 446 143.766601562 446 261.93359375 c 0
 446 316.521484375 428.012695312 347.93359375 377 347.93359375 c 0
 311.48828125 347.93359375 284.346679688 311.094726562 266 216.93359375 c 1
 188 253.93359375 l 1
294.729492188 755.001953125 m 1
 300.159179688 0 l 1
 103.830078125 0 l 1
 108.151367188 755.001953125 l 1
 294.729492188 755.001953125 l 1
EndSplineSet
Validated: 5
EndChar

StartChar: Tbar
Encoding: 292 358 275
Width: 590
Flags: W
HStem: 0 21G<221.83 358.159> 239 149<373.092 512> 249 137<80 415.947> 618 30<226.151 354.104> 618.08 112.931<23.6201 226.151 354.104 558.729>
VStem: 221.83 136.329<0 648>
AnchorPoint: "Anchor-0" 289 731.008 basechar 0
AnchorPoint: "Anchor-2" 288 0 basechar 0
AnchorPoint: "Anchor-2" 288 0 basechar 0
LayerCount: 2
Fore
SplineSet
80 386 m 1xa4
 295 382 l 1
 516 388 l 1
 512 239 l 1xc4
 288 250.288085938 l 1
 76 249 l 1
 80 386 l 1xa4
EndSplineSet
Refer: 61 84 N 1 0 0 1 0 0 2
EndChar

StartChar: tbar
Encoding: 293 359 276
Width: 426
Flags: W
HStem: 195.712 109<234.008 387> 203.712 100<3 328.94> 401 96<13 294.833> 480 20G<173 385.64>
VStem: 118.83 112.299<139.615 462.872>
AnchorPoint: "Anchor-0" 203 648.019 basechar 0
AnchorPoint: "Anchor-2" 248 0 basechar 0
LayerCount: 2
Fore
SplineSet
3 303.711914062 m 1x48
 194 298.711914062 l 1
 389 304.711914062 l 1
 387 195.711914062 l 1x88
 184 205 l 1
 1 203.711914062 l 1
 3 303.711914062 l 1x48
EndSplineSet
Refer: 7 116 N 1 0 0 1 0 0 2
EndChar

StartChar: .notdef
Encoding: 738 -1 362
Width: 795
Flags: W
HStem: -10.0664 100.877<283.004 518.138> 141.077 132<323.786 426.214> 299.857 113.903<329.412 412.072> 500.477 93.8301<316.33 393.988> 640.64 98.2939<286.076 514.996>
VStem: 20 108<243.344 482.978> 309 132<155.863 258.291> 415.2 122.399<418.986 479.955> 674.117 100.883<243.344 482.978>
LayerCount: 2
Fore
SplineSet
299.400390625 500.4765625 m 5xfd80
 317.694335938 594.306640625 l 5
 468.5 575.315429688 537.599609375 530.359375 537.599609375 451.237304688 c 4
 537.599609375 366.676757812 427.99609375 339.077148438 427.99609375 339.077148438 c 5
 420 294.077148438 l 5
 420 294.077148438 406.799804688 299.857421875 376.200195312 299.857421875 c 4
 345.599609375 299.857421875 329.400390625 292.876953125 329.400390625 292.876953125 c 5
 320.943359375 416.4765625 l 5
 320.943359375 416.4765625 334.200195312 413.760742188 360.599609375 413.760742188 c 4
 392.400390625 413.760742188 415.200195312 423.676757812 415.200195312 450.077148438 c 4
 415.200195312 478.921875 388.900390625 489.6875 299.400390625 500.4765625 c 5xfd80
309 207.077148438 m 4xfe80
 309 247.41015625 334.666015625 273.077148438 375 273.077148438 c 4
 415.333984375 273.077148438 441 247.41015625 441 207.077148438 c 4
 441 166.743164062 415.333984375 141.077148438 375 141.077148438 c 4
 334.666015625 141.077148438 309 166.743164062 309 207.077148438 c 4xfe80
20 361.93359375 m 0
 20 592.322641811 166.610951939 738.93359375 397 738.93359375 c 0
 628.000476926 738.93359375 775 592.322641811 775 361.93359375 c 0
 775 134.599173678 628.000476926 -10.06640625 397 -10.06640625 c 0
 166.610951939 -10.06640625 20 134.599173678 20 361.93359375 c 0
128 361.93359375 m 0
 128 196.246930926 232.9990625 90.810546875 398 90.810546875 c 0
 566.738726451 90.810546875 674.1171875 196.246930926 674.1171875 361.93359375 c 0
 674.1171875 532.255308483 566.738726451 640.639648438 398 640.639648438 c 0
 232.9990625 640.639648438 128 532.255308483 128 361.93359375 c 0
EndSplineSet
Validated: 1
EndChar

StartChar: uni0326
Encoding: 452 806 363
Width: 0
Flags: W
HStem: -206.337 211.029
VStem: 0 185.796
AnchorPoint: "Anchor-2" 138 21 mark 0
AnchorPoint: "Anchor-2" 138 21 mark 0
LayerCount: 2
Fore
SplineSet
57.78125 4.6923828125 m 25
 185.795898438 -65.037109375 l 25
 77.78125 -206.336914062 l 25
 0 -163 l 25
 57.78125 4.6923828125 l 25
EndSplineSet
Validated: 1
EndChar

StartChar: dcaron
Encoding: 205 271 403
Width: 672
Flags: W
HStem: -10.0664 100<209.367 366.154> 0 90.9268<556.849 658.38> 406.934 100<209.367 371.068> 735.002 20G<446.875 554.251>
VStem: 30 111<158.441 336.789> 438 118.849<150.988 344.712> 442.271 62.7295<117.013 412.434> 447 107.17<263.934 755.002>
LayerCount: 2
Fore
SplineSet
807 728.9921875 m 5x38
 734 476 l 29
 635 484 l 5
 625 751 l 29
 807 728.9921875 l 5x38
EndSplineSet
Refer: 5 100 N 1 0 0 1 0 0 2
EndChar

StartChar: Lcaron
Encoding: 251 317 404
Width: 620
Flags: W
HStem: 0 111.293<279.064 596.539> 620.084 110.927<23.6201 148.151>
VStem: 143.43 135.635<111.293 620.084>
LayerCount: 2
Fore
SplineSet
637 728.9921875 m 5
 564 476 l 29
 465 484 l 5
 455 751 l 29
 637 728.9921875 l 5
EndSplineSet
Refer: 44 76 N 1 0 0 1 0 0 2
EndChar

StartChar: lcaron
Encoding: 252 318 405
Width: 387
Flags: W
HStem: 0 91.3975<259.129 373.539> 664.075 90.9268<33.6201 148.151>
VStem: 143.83 115.299<91.3975 664.075>
LayerCount: 2
Fore
SplineSet
531 728.9921875 m 5
 458 476 l 29
 359 484 l 5
 349 751 l 29
 531 728.9921875 l 5
EndSplineSet
Refer: 8 108 N 1 0 0 1 0 0 2
EndChar

StartChar: tcaron
Encoding: 291 357 409
Width: 426
Flags: W
HStem: 401 96<13 294.833> 480 20G<173 385.64>
VStem: 118.83 112.299<139.615 462.872>
LayerCount: 2
Fore
SplineSet
485 728.9921875 m 1x20
 417 551 l 29
 323 549 l 5
 326 751 l 25
 485 728.9921875 l 1x20
EndSplineSet
Refer: 7 116 N 1 0 0 1 0 0 2
EndChar

StartChar: uni030F
Encoding: 448 783 435
Width: 0
Flags: W
HStem: 509.248 235.246
AnchorPoint: "Anchor-0" 248.423 491 mark 0
LayerCount: 2
Fore
SplineSet
112.124023438 744.494140625 m 25
 211.422851562 560.534179688 l 25
 139.138671875 509.248046875 l 25
 0 662.544921875 l 25
 112.124023438 744.494140625 l 25
302.124023438 744.494140625 m 25
 401.422851562 560.534179688 l 25
 329.138671875 509.248046875 l 25
 190 662.544921875 l 25
 302.124023438 744.494140625 l 25
EndSplineSet
Validated: 1
EndChar

StartChar: uni031B
Encoding: 450 795 463
Width: 0
Flags: W
VStem: 56 154<521.293 677.516>
LayerCount: 2
Fore
SplineSet
9 717 m 1
 165 750 l 1
 165 750 210 696.444114829 210 611 c 0
 210 463.181818182 69 404 69 404 c 1
 0 483 l 1
 0 483 56 521 56 597.989257812 c 0
 56 661 9 717 9 717 c 1
EndSplineSet
Validated: 1
EndChar

StartChar: Uhorn
Encoding: 322 431 464
Width: 847
Flags: W
HStem: -10 122<339.464 513.608> 620.084 110.927<33.6201 155.151 453.62 572.151>
VStem: 143.517 128.643<184.632 581.094> 580.83 126.812<181.616 570.93>
AnchorPoint: "Anchor-0" 386 731.008 basechar 0
AnchorPoint: "Anchor-0" 386 731.008 basechar 0
AnchorPoint: "Anchor-2" 425 0 basechar 0
AnchorPoint: "Anchor-2" 425 0 basechar 0
AnchorPoint: "Anchor-3" 495 0 basechar 0
LayerCount: 2
Fore
SplineSet
637 790 m 1
 764 860.93359375 l 1
 764 860.93359375 827 822 827 754 c 0
 827 671 766 645 686 642 c 1
 619 731.0078125 l 1
 662 731.0078125 682 735 682 753 c 0
 682 776 637 790 637 790 c 1
EndSplineSet
Refer: 53 85 N 1 0 0 1 0 0 2
EndChar

StartChar: uhorn
Encoding: 323 432 465
Width: 687
Flags: W
HStem: -9.93164 99<198.535 332.644> 0 90.9268<507.849 619.38> 477.002 20G<65.8408 177.17 397.81 505.302>
VStem: 45 112<136.781 501.152> 398 107.17<213.068 497.002> 522 145<502.672 571.519>
AnchorPoint: "Anchor-0" 298 496.019 basechar 0
AnchorPoint: "Anchor-2" 325 0 basechar 0
AnchorPoint: "Anchor-3" 465 0 basechar 0
LayerCount: 2
Fore
SplineSet
477 584.002929688 m 1x3c
 604 654.936523438 l 1
 604 654.936523438 667 605.80837261 667 527 c 0
 667 440.398359395 601.673758865 410.707408558 516 408.002929688 c 1
 459 497.010742188 l 1
 502 497.010742188 522 503.362787592 522 532.002929688 c 0
 522 571 477 584.002929688 477 584.002929688 c 1x3c
EndSplineSet
Refer: 27 117 N 1 0 0 1 0 0 2
EndChar

StartChar: uni01B7
Encoding: 324 439 466
Width: 644
Flags: W
HStem: -183.994 184<104.192 334.117> 532.008 199<30 323.848>
VStem: 376.917 246<40.9075 160.153>
AnchorPoint: "Anchor-2" 296 -174 basechar 0
AnchorPoint: "Anchor-0" 306 731.008 basechar 0
LayerCount: 2
Fore
SplineSet
416 351 m 1
 416 351 622.916992188 321.502639075 622.916992188 91.056640625 c 0
 622.916992188 -89.1445157095 488.361564767 -183.994140625 276.916992188 -183.994140625 c 0
 88.2072104288 -183.994140625 8 -129.842773438 8 -129.842773438 c 1
 60 43.072265625 l 1
 60 43.072265625 121.038085938 0.005859375 233.916992188 0.005859375 c 0
 334.674804688 0.005859375 376.916992188 38.525390625 376.916992188 99.056640625 c 4
 376.916992188 159.212890625 335.536132812 197.9921875 240.916992188 197.9921875 c 0
 174.966796875 197.9921875 145.2578125 188.43359375 145.2578125 188.43359375 c 1
 129 312 l 1
 323.84765625 538.0078125 l 1
 20 532.0078125 l 1
 30 731.0078125 l 1
 569.016601562 731.0078125 l 1
 599.016601562 573.0078125 l 1
 416 351 l 1
EndSplineSet
Validated: 1
EndChar

StartChar: uni0292
Encoding: 426 658 467
Width: 498
Flags: W
HStem: -183.994 157<65.2485 262.839> 338 159.011<30 233.848>
VStem: 280.917 196<-5.9971 81.1503>
AnchorPoint: "Anchor-0" 241 496.019 basechar 0
AnchorPoint: "Anchor-2" 226 -174 basechar 0
LayerCount: 2
Back
SplineSet
20 338 m 5
 30 497 l 5
 399.016601562 497 l 5
 431.016601562 369 l 5
 257.168945312 164 l 5
 441.016601562 170 l 5
 431.016601562 0 l 5
 41 0 l 5
 12 128 l 5
 193.84765625 344 l 5
 20 338 l 5
EndSplineSet
Fore
SplineSet
318 221 m 1
 318 221 476.916992188 197.81747321 476.916992188 37.0830078125 c 0
 476.916992188 -114.514620659 373.472646251 -183.994140625 210.916992188 -183.994140625 c 0
 71.3290030521 -183.994140625 12 -149.842773438 12 -149.842773438 c 1
 44 6.072265625 l 1
 44 6.072265625 87.6838942308 -26.994140625 194 -26.994140625 c 0
 249.844503796 -26.994140625 280.916992188 -2.09823650541 280.916992188 37.056640625 c 0
 280.916992188 77.7558593356 247.422314453 103.9921875 181.916992188 103.9921875 c 0
 134.067708965 103.9921875 105.2578125 97.43359375 105.2578125 97.43359375 c 1
 85 212 l 1
 233.84765625 344 l 1
 20 338 l 1
 30 497.010742188 l 1
 426.016601562 497 l 5
 459.016601562 369 l 5
 318 221 l 1
EndSplineSet
Validated: 1
EndChar

StartChar: infinity
Encoding: 723 8734 470
Width: 579
Flags: W
HStem: 221 110.59<363.476 437.458> 221 101.588<141.816 243.05> 404.634 110.051<141.393 218.637> 412.315 102.369<335.563 435.715>
VStem: 20 117.069<328 399.5> 441.665 118.119<337.001 406.859>
LayerCount: 2
Fore
SplineSet
441.665039062 370.404296875 m 4x9c
 441.665039062 346.333984375 425.881835938 331.58984375 400.116210938 331.58984375 c 4x9c
 376.522460938 331.58984375 363.36328125 345.263671875 345.504882812 388.341796875 c 4
 314.42578125 463.3125 263.467773438 514.684570312 175.237304688 514.684570312 c 4
 80.34375 514.684570312 20 457.278320312 20 367.000976562 c 4
 20 280.737304688 75.1875 221 162.53515625 221 c 4
 269.056640625 221 309.377929688 301.271484375 309.377929688 301.271484375 c 5
 261.307617188 372.428710938 l 5
 261.307617188 372.428710938 231.27734375 322.587890625 182.021484375 322.587890625 c 4
 154.068359375 322.587890625 137.069335938 337.98046875 137.069335938 363.291015625 c 4
 137.069335938 388.787109375 154.357421875 404.633789062 182.170898438 404.633789062 c 4x6c
 206.815429688 404.633789062 220.095703125 390.28125 232.903320312 354.533203125 c 4
 267.490234375 257.99609375 314.149414062 221 401.311523438 221 c 4
 500.095703125 221 559.784179688 276.083984375 559.784179688 367.248046875 c 4
 559.784179688 455.794921875 501.685546875 514.684570312 414.331054688 514.684570312 c 4
 318.250976562 514.684570312 276.788085938 443.2109375 276.788085938 443.2109375 c 5
 329.979492188 379.119140625 l 5
 329.979492188 379.119140625 351.071289062 412.315429688 396.541992188 412.315429688 c 4
 423.866210938 412.315429688 441.665039062 395.784179688 441.665039062 370.404296875 c 4x9c
EndSplineSet
Validated: 5
EndChar

StartChar: radical
Encoding: 722 8730 471
Width: 659
Flags: W
HStem: 0 21G<230.526 440.599> 491 20G<10 264.279>
LayerCount: 2
Fore
SplineSet
434.607421875 0 m 1
 237.174804688 0 l 1
 120.151367188 352 l 1
 17.0458984375 344 l 1
 10 497 l 1
 258.546875 511 l 1
 337.905273438 234.1328125 l 1
 473 783 l 1
 659 749 l 5
 434.607421875 0 l 1
EndSplineSet
Validated: 1
EndChar

StartChar: lessequal
Encoding: 727 8804 472
Width: 450
Flags: W
HStem: 64 156<189.667 430> 76 141<21 258.333>
LayerCount: 2
Fore
SplineSet
299.37109375 441.5 m 1x00
 435.349609375 391 l 5
 375.349609375 242 l 5
 14.650390625 432 l 1
 375.349609375 651 l 1
 435.349609375 502 l 1
 299.37109375 441.5 l 1x00
21 217 m 5x40
 432 220 l 5
 430 64 l 5x80
 18 76 l 5
 21 217 l 5x40
EndSplineSet
Validated: 1
EndChar

StartChar: greaterequal
Encoding: 728 8805 473
Width: 450
Flags: W
HStem: 64 156<189.667 430> 76 141<21 258.333>
LayerCount: 2
Fore
SplineSet
150.62890625 451.5 m 1x00
 14.650390625 502 l 1
 74.650390625 651 l 1
 435.349609375 461 l 1
 74.650390625 242 l 1
 14.650390625 391 l 1
 150.62890625 451.5 l 1x00
21 217 m 5x40
 432 220 l 5
 430 64 l 5x80
 18 76 l 5
 21 217 l 5x40
EndSplineSet
Validated: 1
EndChar

StartChar: three.ss01.superior
Encoding: 739 -1 507
Width: 391
HStem: 342 117<35.0242 223.486> 548 101<100.01 212.014> 726 117<55.0479 209.536>
VStem: 216 149<656.878 717.07> 232 146<470.781 538.411>
LayerCount: 2
Fore
SplineSet
34 486 m 1xe8
 34 486 87 459 160 459 c 0
 209 459 232 477 232 506 c 0xe8
 232 532 211 548 162 548 c 0
 113 548 100 544 100 544 c 1
 100 652 l 1
 100 652 112 649 152 649 c 0
 197 649 216 664 216 686 c 0
 216 711 196 726 151 726 c 0
 86 726 43 698 43 698 c 1
 14 814 l 1
 14 814 63 843 176 843 c 0
 294 843 365 793 365 712 c 0xf0
 365 629 289 606 289 606 c 1
 289 606 378 585 378 480 c 0
 378 395 301 342 180 342 c 0
 57 342 5 372 5 372 c 1
 34 486 l 1xe8
EndSplineSet
EndChar

StartChar: five.ss02.superior
Encoding: 740 -1 508
Width: 387
Flags: W
HStem: 343 116<48.7181 215.906> 562 107<149.471 273.827> 715 168<243 343> 716 121<159 243>
VStem: 227 146<471.792 549.201> 241 102<837 882>
LayerCount: 2
Fore
SplineSet
353 715 m 5xe4
 159 716 l 5
 149 657 l 5
 149 657 167 669 217 669 c 4
 330 669 373 607 373 514 c 4
 373 395 297 343 178 343 c 4
 57 343 5 379 5 379 c 5
 33 488 l 5
 33 488 85 459 156 459 c 4
 204 459 227 480 227 513 c 4
 227 543 203 562 154 562 c 4
 110 562 84 542 84 542 c 5
 13 605 l 5
 53 837 l 5
 243 837 l 5xd8
 241 882 l 5
 343 883 l 5
 353 715 l 5xe4
EndSplineSet
EndChar

StartChar: three.ss01.inferior
Encoding: 741 -1 509
Width: 391
HStem: -358 117<34.9278 223.35> -152 101<99.0096 211.443> 26 117<55.1607 209.536>
VStem: 216 149<-44.2665 17.0475> 232 146<-228.721 -161.089>
LayerCount: 2
Fore
SplineSet
34 -214 m 1xe8
 34 -214 86 -241 159 -241 c 0
 208 -241 232 -223 232 -194 c 0xe8
 232 -168 210 -152 161 -152 c 0
 112 -152 99 -156 99 -156 c 1
 99 -48 l 1
 99 -48 111 -51 152 -51 c 0
 198 -51 216 -36 216 -14 c 0
 216 11 196 26 151 26 c 0
 85 26 42 -3 42 -3 c 1
 14 113 l 1
 14 113 63 143 176 143 c 0
 294 143 365 92 365 12 c 0xf0
 365 -71 289 -93 289 -93 c 1
 289 -93 378 -114 378 -219 c 0
 378 -304 301 -358 180 -358 c 0
 57 -358 5 -328 5 -328 c 1
 34 -214 l 1xe8
EndSplineSet
EndChar

StartChar: five.ss02.inferior
Encoding: 742 -1 510
Width: 387
HStem: -357 116<48.7181 215.906> -138 107<149.471 273.827> 15 168<243 343> 16 121<159 243>
VStem: 227 146<-228.208 -150.799> 241 102<137 182>
LayerCount: 2
Fore
SplineSet
353 15 m 1xe4
 159 16 l 25
 149 -43 l 21
 149 -43 167 -31 217 -31 c 0
 330 -31 373 -93 373 -186 c 0
 373 -305 297 -357 178 -357 c 0
 57 -357 5 -321 5 -321 c 1
 33 -212 l 1
 33 -212 85 -241 156 -241 c 0
 204 -241 227 -220 227 -187 c 0
 227 -157 203 -138 154 -138 c 0
 110 -138 84 -158 84 -158 c 1
 13 -95 l 1
 53 137 l 1
 243 137 l 1xd8
 241 182 l 1
 343 183 l 1
 353 15 l 1xe4
EndSplineSet
EndChar

StartChar: guilsinglleft
Encoding: 651 8249 511
Width: 372
Flags: W
HStem: 491 20G<231.568 278.666>
LayerCount: 2
Fore
SplineSet
215.720703125 261.5 m 1
 371.69921875 111 l 5
 251.69921875 2 l 5
 -9 252 l 1
 251.69921875 511 l 1
 371.69921875 422 l 1
 215.720703125 261.5 l 1
EndSplineSet
EndChar

StartChar: guilsinglright
Encoding: 652 8250 512
Width: 373
Flags: W
HStem: 491 20G<98.9817 141.856>
LayerCount: 2
Fore
SplineSet
156.978515625 251.5 m 1
 1 402 l 1
 121 511 l 1
 381.69921875 261 l 1
 121 2 l 1
 1 91 l 5
 156.978515625 251.5 l 1
EndSplineSet
EndChar

StartChar: dagger
Encoding: 640 8224 513
Width: 520
Flags: W
HStem: 395.934 170<14 222.322> 400.345 157.524<45.6784 369.008>
VStem: 154 208.329<-170 23.2571> 177.616 161.554<288.743 600.787>
LayerCount: 2
Fore
SplineSet
14 565.93359375 m 5x80
 254 557.869140625 l 5
 510 569.93359375 l 5
 506 384.93359375 l 5
 255 400.344726562 l 5x40
 10 395.93359375 l 5
 14 565.93359375 l 5x80
356.899414062 788.9921875 m 1
 339.169921875 478 l 5x10
 362.329101562 -170 l 1
 154 -170 l 1x20
 177.616210938 482 l 5x10
 160.169921875 788.9921875 l 1
 356.899414062 788.9921875 l 1
EndSplineSet
Validated: 5
EndChar

StartChar: daggerdbl
Encoding: 641 8225 514
Width: 520
Flags: W
HStem: 104.934 170<14 222.322> 109.345 157.524<45.6784 369.008> 266.869 143.476<45.6784 369.008> 405.934 170<14 222.322> 410.345 157.524<45.6784 369.008>
VStem: 178 160.898<155.008 576.144> 338.898 171.102<154.732 249 488 576.144>
LayerCount: 2
Fore
SplineSet
14 274.93359375 m 5x82
 254 266.869140625 l 5
 510 278.93359375 l 5
 506 93.93359375 l 5
 255 109.344726562 l 5x42
 10 104.93359375 l 5
 14 274.93359375 l 5x82
14 575.93359375 m 5x12
 254 567.869140625 l 5x0a
 510 579.93359375 l 5
 506 394.93359375 l 5
 255 410.344726562 l 5x22
 10 405.93359375 l 5
 14 575.93359375 l 5x12
356.899414062 788.9921875 m 5
 337.169921875 488 l 5
 338.8984375 249 l 5
 362.329101562 -170 l 5
 154 -170 l 5
 178 249 l 5x04
 179.616210938 492 l 5
 160.169921875 788.9921875 l 5
 356.899414062 788.9921875 l 5
EndSplineSet
Validated: 5
EndChar

StartChar: uni20A6
Encoding: 680 8358 515
Width: 831
Flags: W
HStem: -10 21G<504.31 711.539> 0 21G<125.21 331.539> 226 100<22 224.906> 236 94.4668<573 762.712> 320.467 36.8213<188 253> 330.467 36.8213<684 785.743> 356 100<24 251.405> 366 100<583 780.389>
VStem: 125.21 206.329<0 227.577 320.467 331.793> 513 193.109<461 731.011>
LayerCount: 2
Fore
SplineSet
573 336 m 5x10c0
 677 330.466796875 l 5
 814 337 l 5
 812 228 l 5
 659 237.577148438 l 5
 571 236 l 5
 573 336 l 5x10c0
583 466 m 5x01c0
 694 461 l 5
 821 467 l 5
 819 358 l 5
 684 367.288085938 l 5x04c0
 581 366 l 5
 583 466 l 5x01c0
22 326 m 1x20c0
 188 320.466796875 l 1x08c0
 253 327 l 1
 251 218 l 1
 170 227.577148438 l 1
 20 226 l 1
 22 326 l 1x20c0
24 456 m 1x02c0
 205 451 l 1
 276 457 l 1
 274 348 l 1
 195 357.288085938 l 1x08c0
 22 356 l 1
 24 456 l 1x02c0
706.109375 731.010742188 m 1
 711.5390625 0 l 1x40c0
 515.209960938 -10 l 1x80c0
 328.92578125 331.79296875 l 1
 331.5390625 0 l 1
 125.209960938 0 l 1x40c0
 129.53125 564.083984375 l 1
 14.3798828125 558.080078125 l 1
 10 731.010742188 l 1
 346.109375 741.010742188 l 1
 509.151367188 389.888671875 l 1
 513 731.010742188 l 1
 706.109375 731.010742188 l 1
EndSplineSet
Validated: 5
EndChar

StartChar: peseta
Encoding: 681 8359 516
Width: 732
Flags: W
HStem: 0 21G<97.7705 309.003> 169.934 175<310.341 451.327> 356 100<24 251.405> 366 100<484 681.389> 542.992 196<314.505 407.906> 542.992 56.2578<155.68 305.67>
VStem: 97.7705 211.232<0 194.434 348 357.288 451 599.25> 484 160.917<366 466>
LayerCount: 2
Fore
SplineSet
484 466 m 1xd3
 595 461 l 1
 722 467 l 1
 720 358 l 1
 585 367.288085938 l 1
 482 366 l 1
 484 466 l 1xd3
24 456 m 1xe3
 205 451 l 1
 276 457 l 1
 274 348 l 1
 195 357.288085938 l 1
 22 356 l 1
 24 456 l 1xe3
309.002929688 0 m 1
 97.7705078125 0 l 1
 103.940429688 599.25 l 1
 305.669921875 599.25 l 1xc7
 309.002929688 0 l 1
224.196289062 365.876953125 m 1
 224.196289062 365.876953125 259.885810621 344.93359375 340.916992188 344.93359375 c 0
 410.392578125 344.93359375 445.916992188 381.877929688 445.916992188 439.93359375 c 0
 445.916992188 502.9140625 412.583984375 542.9921875 328.916992188 542.9921875 c 4
 155.6796875 542.9921875 29.26953125 491.427734375 29.26953125 491.427734375 c 1
 -2 684.840820312 l 1
 -2 684.840820312 96.10249859 738.9921875 326.916992188 738.9921875 c 0xcb
 521.25 738.9921875 644.916992188 619.581054688 644.916992188 431.93359375 c 0
 644.916992188 271.821289062 536.805664062 169.93359375 366.916992188 169.93359375 c 0
 259.770507812 169.93359375 195.2578125 194.43359375 195.2578125 194.43359375 c 1
 224.196289062 365.876953125 l 1
EndSplineSet
Validated: 5
EndChar

StartChar: uni20A9
Encoding: 682 8361 517
Width: 1082
Flags: W
HStem: 0 21G<289.598 510.838 618.578 840.127> 236 94.4668<794 983.712> 245 93.7119<164.139 342> 330.467 36.8213<898 1035> 340 30<173.5 241> 375.533 92.8896<151.436 321> 716 20G<841.08 973.284>
LayerCount: 2
Fore
SplineSet
321 370 m 1x8e
 237 375.533203125 l 1
 80 369 l 1
 82 478 l 1
 215 468.422851562 l 1
 323 470 l 1
 321 370 l 1x8e
342 240 m 1
 251 245 l 1
 104 239 l 1
 106 348 l 1
 241 338.711914062 l 1xae
 344 340 l 1
 342 240 l 1
794 336 m 1
 898 330.466796875 l 1
 1035 337 l 1
 1033 228 l 1
 880 237.577148438 l 1
 792 236 l 1xc6
 794 336 l 1
834 466 m 1
 945 461 l 1
 1072 467 l 1
 1070 358 l 1
 935 367.288085938 l 1x96
 832 366 l 1
 834 466 l 1
504.607421875 0 m 1
 295.174804688 0 l 1
 140.151367188 556 l 1
 17.0458984375 548 l 1
 10 732 l 1
 298.546875 746 l 1
 409.905273438 284.1328125 l 1
 513.904296875 759 l 1
 730.450195312 725 l 1
 504.607421875 0 l 1
833.607421875 0 m 1
 624.174804688 0 l 1
 503 433 l 1
 646.395507812 623 l 1
 736.905273438 284.1328125 l 1
 845.904296875 736 l 1
 1062.45019531 702 l 1
 833.607421875 0 l 1
EndSplineSet
Validated: 5
EndChar

